<svg xmlns="http://www.w3.org/2000/svg" width="24" height="24" fill="none" viewBox="0 0 24 24"><path fill="#000" d="M10.932.023c-.132.02-.56.082-.956.144-2.298.34-4.749 1.614-6.488 3.371-4.545 4.605-4.667 11.944-.254 16.652 1.82 1.953 4.119 3.207 6.722 3.66 1.76.308 4.19.133 5.847-.433A12.04 12.04 0 0 0 23.38 8.196C21.813 3.445 17.4.167 12.366.023c-.661-.03-1.302-.03-1.434 0m2.919 1.696c2.074.35 4.423 1.645 5.827 3.197 2.4 2.662 3.315 6.27 2.42 9.765-.244.976-1.078 2.703-1.698 3.525-1.495 1.984-3.438 3.29-5.919 3.978-.62.175-1.007.206-2.45.206-1.567.01-1.8-.02-2.655-.247-1.057-.288-2.43-.915-3.325-1.511-.793-.545-2.227-1.994-2.736-2.796-1.098-1.685-1.627-3.31-1.708-5.262-.071-1.491.061-2.54.447-3.721C3.712 3.795 8.634.835 13.851 1.719"/><path fill="#000" d="M16.382 6.684c-.773.658-.457 2.014.519 2.2.376.082.864-.103 1.139-.412.244-.277.315-1.048.112-1.439-.315-.627-1.23-.802-1.77-.35M7.515 12.193c-.804 2.96-1.454 5.438-1.454 5.51 0 .092.254.113 1.118.092l1.119-.03.335-1.378.336-1.367h2.796l.377 1.398.366 1.398h1.17c.925 0 1.169-.031 1.169-.124 0-.082-.671-2.539-1.475-5.468a633 633 0 0 1-1.474-5.365c0-.021-.661-.042-1.465-.042H8.97zm3.325-1.377a58 58 0 0 0 .539 2.097c.05.164-.04.174-.996.174H9.335l.305-1.233c.173-.678.386-1.634.488-2.117.092-.494.193-.874.204-.864s.244.884.508 1.943M16.058 9.87c-.041.031-.072 1.83-.072 3.999v3.936h2.197V9.81h-1.027c-.57 0-1.068.03-1.098.061"/></svg>