<svg xmlns="http://www.w3.org/2000/svg" width="24" height="24" fill="none" viewBox="0 0 24 24"><path stroke="#e8eaed" stroke-width="1.5" d="M9.523 6.388h11.14V21.23H9.699a.913.913 0 0 1-.925-.9V7.116c0-.402.336-.729.749-.729Z"/><path stroke="#e8eaed" stroke-width="1.5" d="M8.845 20.021c0-.399.06-.997 1.614-.997.84 0 7.072.034 10.336.034M10.86 6.375v12.603M14.708 6.219V2.625H4.493a.87.87 0 0 0-.88.858v12.353c0 .568.472 1.03 1.056 1.03h3.69"/><path stroke="#e8eaed" stroke-width="1.5" d="M3.612 16.007c0-.549 0-1.372 1.626-1.372H8.52M5.727 2.796v12.01"/></svg>