<svg width="24" height="24" viewBox="0 0 24 24" fill="none" xmlns="http://www.w3.org/2000/svg">
	<path d="M2.64551 4.14282H5.70934C6.02947 4.14282 6.30119 4.38106 6.34766 4.70252L7.63339 13.5947C7.77282 14.559 8.58796 15.2738 9.54835 15.2738H17.6837C18.5472 15.2738 19.3062 14.6933 19.5442 13.8509L21.1192 8.27611C21.2374 7.85771 20.9279 7.44088 20.4991 7.44088H9.32751" stroke="#e8eaed" stroke-linecap="round" />
	<path d="M9.41907 20.0208C10.0426 20.0208 10.5481 19.5078 10.5481 18.875C10.5481 18.2421 10.0426 17.7291 9.41907 17.7291C8.79552 17.7291 8.29004 18.2421 8.29004 18.875C8.29004 19.5078 8.79552 20.0208 9.41907 20.0208Z" stroke="#e8eaed" />
	<path d="M17.8063 20.0208C18.4298 20.0208 18.9353 19.5078 18.9353 18.875C18.9353 18.2421 18.4298 17.7291 17.8063 17.7291C17.1827 17.7291 16.6772 18.2421 16.6772 18.875C16.6772 19.5078 17.1827 20.0208 17.8063 20.0208Z" stroke="#e8eaed" />
	<path d="M9.74219 10.0356H20.3873" stroke="#e8eaed" stroke-linecap="round" />
	<path d="M10.3872 12.6548H19.742" stroke="#e8eaed" stroke-linecap="round" />
</svg>