<svg xmlns="http://www.w3.org/2000/svg" width="24" height="24" fill="#e3e3e3" viewBox="0 -960 960 960"><path d="M100-160v-289.23h289.23V-160zm60-60h169.23v-169.23H160zm92.31-360 192.31-315.38L636.92-580zm105.84-60h172.93l-86.46-139.08zM863.77-64.31 758.54-169.54q-19.85 14.38-43.58 21.96T664.62-140q-68.85 0-116.73-47.89Q500-235.77 500-304.62q0-68.84 47.89-116.73 47.88-47.88 116.73-47.88 68.84 0 116.73 47.88 47.88 47.89 47.88 116.73 0 26-7.58 49.54-7.57 23.54-20.96 43.39l105.23 105.23zM738.89-230.35q30.34-30.34 30.34-74.27 0-43.92-30.34-74.27-30.35-30.34-74.27-30.34-43.93 0-74.27 30.34Q560-348.54 560-304.62q0 43.93 30.35 74.27Q620.69-200 664.62-200q43.92 0 74.27-30.35M444.62-640"/></svg>