<svg xmlns="http://www.w3.org/2000/svg" width="24" height="24" fill="none" viewBox="0 0 24 24"><path fill="#e3e3e3" d="m12 15.789-4.27-4.27 1.055-1.084L11.25 12.9V4.5h1.5v8.4l2.465-2.465 1.054 1.084zM6.308 19.5q-.758 0-1.283-.525a1.75 1.75 0 0 1-.525-1.283v-2.711H6v2.711q0 .116.096.212a.3.3 0 0 0 .212.096h11.384a.3.3 0 0 0 .212-.096.3.3 0 0 0 .096-.212v-2.711h1.5v2.711q0 .758-.525 1.283t-1.283.525z"/><g clip-path="url(#clip0_237_52)"><path fill="#e3e3e3" d="m18.086 6.74 1.961-1.96-.307-.307-1.654 1.653-.83-.831-.308.307zm.415 1.53a2.7 2.7 0 0 1-1.08-.217 2.8 2.8 0 0 1-.88-.592 2.8 2.8 0 0 1-.593-.88 2.7 2.7 0 0 1-.219-1.08q0-.576.219-1.081.218-.505.592-.88.374-.374.88-.593a2.7 2.7 0 0 1 1.08-.218 2.7 2.7 0 0 1 1.08.218 2.8 2.8 0 0 1 .88.593q.375.373.593.88.218.504.218 1.08a2.7 2.7 0 0 1-.218 1.08q-.219.505-.592.88-.375.375-.88.593a2.7 2.7 0 0 1-1.08.218"/></g><defs><clipPath id="clip0_237_52"><path fill="#fff" d="M15 2h7v7h-7z"/></clipPath></defs></svg>