<svg xmlns="http://www.w3.org/2000/svg" width="24" height="24" fill="#e3e3e3" viewBox="0 -960 960 960"><path d="m313.08-313.08 256.15-77.69 77.69-256.15-256.15 77.69zm166.83-114.61q-21.83 0-37.02-15.29-15.2-15.28-15.2-37.11t15.29-37.02q15.28-15.2 37.11-15.2t37.02 15.29q15.2 15.28 15.2 37.11t-15.29 37.02q-15.28 15.2-37.11 15.2m.16 327.69q-78.84 0-148.21-29.92t-120.68-81.21-81.25-120.63Q100-401.1 100-479.93q0-78.84 29.92-148.21t81.21-120.68 120.63-81.25Q401.1-860 479.93-860q78.84 0 148.21 29.92t120.68 81.21 81.25 120.63Q860-558.9 860-480.07q0 78.84-29.92 148.21t-81.21 120.68-120.63 81.25Q558.9-100 480.07-100m-.07-60q133.38 0 226.69-93.31T800-480t-93.31-226.69T480-800t-226.69 93.31T160-480t93.31 226.69T480-160m0-320"/></svg>