<svg xmlns="http://www.w3.org/2000/svg" width="24" height="24" fill="#e3e3e3" viewBox="0 -960 960 960"><path d="m480-146.93-44.15-39.69q-99.46-90.23-164.5-155.07-65.04-64.85-103.08-115.43-38.04-50.57-53.15-92.27Q100-591.08 100-634q0-85.15 57.42-142.58Q214.85-834 300-834q52.38 0 99 24.5t81 70.27q34.38-45.77 81-70.27t99-24.5q85.15 0 142.58 57.42Q860-719.15 860-634q0 42.92-15.12 84.61-15.11 41.7-53.15 92.27-38.04 50.58-102.89 115.43Q624-276.85 524.15-186.62zm0-81.07q96-86.38 158-148.08 62-61.69 98-107.19t50-80.81q14-35.3 14-69.92 0-60-40-100t-100-40q-47.38 0-87.58 26.88-40.19 26.89-63.65 74.81h-57.54q-23.85-48.31-63.85-75T300-774q-59.62 0-99.81 40T160-634q0 34.62 14 69.92 14 35.31 50 80.81t98 107T480-228m0-273"/></svg>