<svg xmlns="http://www.w3.org/2000/svg" width="24" height="24" fill="#e3e3e3" viewBox="0 -960 960 960"><path d="M252.31-100Q222-100 201-121t-21-51.31v-615.38Q180-818 201-839t51.31-21h455.38Q738-860 759-839t21 51.31v615.38Q780-142 759-121t-51.31 21zM720-172.31v-615.38q0-4.62-3.85-8.46-3.84-3.85-8.46-3.85H252.31q-4.62 0-8.46 3.85-3.85 3.84-3.85 8.46v615.38q0 4.62 3.85 8.46 3.84 3.85 8.46 3.85h455.38q4.62 0 8.46-3.85 3.85-3.84 3.85-8.46M720-800H240zM369.23-603.85h221.54L480-714.61zM480-245.39l110.77-110.76H369.23z"/></svg>