<svg xmlns="http://www.w3.org/2000/svg" width="24" height="24" fill="#e3e3e3" viewBox="0 -960 960 960"><path d="M170-180q-29.15 0-49.58-20.42Q100-220.85 100-250v-457.69q0-29.15 21.58-50.73T172.31-780h219.61l80 80h315.77q26.85 0 46.31 17.35 19.46 17.34 22.54 42.65H447.38l-80-80H172.31q-5.39 0-8.85 3.46t-3.46 8.85v455.38q0 4.23 2.12 6.92 2.11 2.7 5.57 4.62L261-552.31h666.31l-96.85 322.62q-6.85 22.53-25.65 36.11Q786-180 763.08-180zm60.54-60h540.23l75.46-252.31H306zm0 0L306-492.31zM160-640v-80z"/></svg>