<svg xmlns="http://www.w3.org/2000/svg" width="24" height="24" fill="#e3e3e3" viewBox="0 -960 960 960"><path d="m245.69-253.85 93.93-163.46q-3.46 1.92-8.08 2.69t-9.23.77q-61 0-103.58-42.93-42.57-42.93-42.57-103.22 0-61 42.57-103.58 42.58-42.57 103.58-42.57 60.29 0 103.22 42.57 42.93 42.58 42.93 103.45 0 21.21-5.11 39.36-5.12 18.15-14.97 34.62l-133.77 232.3zm355.39 0L695-417.31q-3.46 1.92-8.08 2.69-4.61.77-9.23.77-61 0-103.57-42.93-42.58-42.93-42.58-103.22 0-61.38 42.58-103.77 42.57-42.38 103.57-42.38 60.29 0 103.22 42.57 42.93 42.58 42.93 103.45 0 21.21-5.11 39.36-5.12 18.15-14.96 34.62L670-253.85zM374.62-507.69q21.54-21.54 21.54-52.31t-21.54-52.31-52.31-21.54T270-612.31 248.46-560 270-507.69t52.31 21.54 52.31-21.54m355.38 0q21.54-21.54 21.54-52.31T730-612.31t-52.31-21.54-52.31 21.54T603.84-560t21.54 52.31 52.31 21.54T730-507.69M322.31-560"/></svg>