<svg xmlns="http://www.w3.org/2000/svg" width="24" height="24" fill="#e3e3e3" viewBox="0 -960 960 960"><path d="m696-80-56-56 84-84-84-84 56-56 84 84 84-84 56 56-83 84 83 84-56 56-84-83zm-216 0q-83 0-156-31.5T197-197t-85.5-127T80-480t31.5-156T197-763t127-85.5T480-880t156 31.5T763-763t85.5 127T880-480q0 10-.5 20t-1.5 20h-81q2-10 2.5-20t.5-20q0-20-2.5-40t-7.5-40H654q3 20 4.5 40t1.5 40v20q0 10-1 20h-80q1-10 1-20v-20q0-20-1.5-40t-4.5-40H386q-3 20-4.5 40t-1.5 40 1.5 40 4.5 40h174v80H404q12 43 31 82.5t45 75.5q18 0 35.5-2t35.5-4l18 78q-23 5-44.5 7.5T480-80M170-400h136q-3-20-4.5-40t-1.5-40 1.5-40 4.5-40H170q-5 20-7.5 40t-2.5 40 2.5 40 7.5 40m34-240h118q9-37 22.5-72.5T376-782q-55 18-99 54.5T204-640m172 462q-18-34-31.5-69.5T322-320H204q29 51 73 87.5t99 54.5m28-462h152q-12-43-31-82.5T480-798q-26 36-45 75.5T404-640m234 0h118q-29-51-73-87.5T584-782q18 34 31.5 69.5T638-640"/></svg>