<svg xmlns="http://www.w3.org/2000/svg" width="24" height="24" fill="none" viewBox="0 0 24 24"><g fill="#e8eaed" clip-path="url(#clip0_231_160)"><path d="M8.094 2.11a3.11 3.11 0 0 0-2.266 2.437c-.062.312-.086 1.031-.062 2.11.031 1.468.054 1.679.21 2.085.25.64.946 1.367 1.587 1.664.484.227.507.227 2.156.25l1.656.024v2.648H7.992c-3.343 0-3.39 0-3.539.164-.133.149-.148.32-.172 1.875l-.023 1.711h-.969C1.914 17.078 2 16.914 2 19.555v2.062l.195.188.188.195h5.016l.187-.195.195-.188v-2.062c0-2.633.094-2.461-1.312-2.492l-.992-.024-.024-1.273-.015-1.266h5.938v2.578h-.97c-1.382 0-1.297-.164-1.297 2.477v2.062l.196.188.187.195h5.016l.187-.195.196-.188v-2.062c0-2.64.086-2.477-1.297-2.477h-.969V14.5h5.938l-.016 1.266-.024 1.273-.992.023c-1.406.032-1.312-.14-1.312 2.493v2.062l.195.188.188.195h5.015l.188-.195.195-.188v-2.062c0-2.64.086-2.477-1.289-2.477h-.969l-.023-1.71c-.024-1.556-.04-1.727-.172-1.876-.149-.164-.195-.164-3.54-.164h-3.382V10.68l1.664-.024 1.664-.023.516-.258c.664-.32 1.304-1 1.554-1.633.157-.406.18-.617.212-2.086.038-1.851-.032-2.351-.391-3.039-.305-.57-.797-1.015-1.453-1.328l-.524-.25-3.71-.016c-2.79-.015-3.798.008-4.063.086m7.594 1.14c.437.125.93.54 1.148.977.203.382.203.414.203 2.148 0 1.656-.008 1.773-.172 2.078-.195.375-.648.79-1.008.938-.382.156-7.335.156-7.718 0-.36-.149-.813-.563-1.008-.938-.164-.305-.172-.422-.172-2.078 0-1.727.008-1.766.195-2.14a2 2 0 0 1 1.063-.946c.383-.14 7-.164 7.469-.039M6.609 19.54v1.288H3.172V18.25h3.437zm7.11 0v1.288H10.28V18.25h3.438zm7.11 0v1.288H17.39V18.25h3.437z"/><path d="M8.586 4.594c-.375.18-.399.804-.031.992.101.055 1.273.086 3.445.086s3.344-.031 3.445-.086c.375-.195.344-.82-.055-1-.257-.117-6.554-.11-6.804.008M8.469 7.234c-.188.196-.227.282-.188.454a.73.73 0 0 0 .219.343c.14.125.398.14 2.875.14s2.734-.015 2.883-.14c.258-.203.242-.617-.024-.851l-.21-.18H8.703z"/></g><defs><clipPath id="clip0_231_160"><path fill="#fff" d="M2 2h20v20H2z"/></clipPath></defs></svg>