<svg xmlns="http://www.w3.org/2000/svg" width="24" height="24" fill="none" viewBox="0 0 24 24"><g fill="#e8eaed" clip-path="url(#clip0_231_161)"><path d="M7.097 4.086c-2.71 1.187-4.82 2.129-4.89 2.191a.57.57 0 0 0-.07.793c.128.157.296.22.519.192.129-.012 1.54-.614 4.746-2.016C9.91 4.148 11.98 3.25 12.004 3.25c.023 0 2.113.906 4.648 2.016 3.555 1.554 4.645 2.015 4.762 2.015.523-.008.777-.636.402-.992C21.66 6.145 12.172 2 11.996 2c-.086.004-1.762.715-4.899 2.086M6.883 8.16c-.418.044-1.258.223-1.7.368-.648.207-.925.343-1.03.515-.083.133-.083.137-.083 4.137v4.004l.09.133c.102.152.309.27.477.27.066 0 .32-.079.566-.172a7 7 0 0 1 2.559-.462c.945-.003 1.8.153 2.511.454.415.171.602.296 1.063.683.586.5.746.504 1.297.028.457-.391.656-.524 1.062-.7.723-.308 1.582-.468 2.543-.465a7 7 0 0 1 2.559.462c.246.093.504.171.566.171a.64.64 0 0 0 .477-.27l.09-.132v-3.988c0-4.54.027-4.168-.336-4.367-.367-.204-1.137-.438-1.89-.583-.626-.117-1.9-.144-2.563-.058-1.118.148-2.09.496-2.86 1.027-.136.09-.261.168-.281.168s-.145-.078-.281-.172c-.758-.523-1.742-.875-2.832-1.02-.407-.054-1.617-.073-2.004-.03M9.043 9.4c.812.152 1.629.484 2.129.867l.242.188v6.195l-.281-.14c-1.578-.794-3.711-.962-5.598-.442-.148.039-.277.074-.281.074-.008 0-.012-1.441-.012-3.2V9.744l.246-.082a8 8 0 0 1 1.16-.274l.391-.058c.238-.043 1.676.011 2.004.07m8.406-.004c.387.074.746.164 1.067.266l.242.082v3.199c0 1.758-.004 3.199-.012 3.199-.004 0-.133-.035-.281-.074-1.89-.524-4.024-.352-5.606.445l-.273.137V10.45l.246-.184c.547-.414 1.477-.773 2.273-.883.196-.023.38-.05.41-.058.157-.04 1.65.015 1.934.07M6.207 18.778c-.957.156-1.918.566-2.07.89-.192.402.077.848.511.848.121 0 .246-.043.45-.152.558-.305 1.077-.43 1.921-.458 1.102-.039 1.844.11 2.735.551.562.277.972.574 1.574 1.13.426.394.535.448.808.398.098-.02.223-.106.403-.274.78-.726 1.16-1 1.816-1.312.734-.348 1.484-.508 2.41-.508.844 0 1.438.125 2.051.43.438.218.621.246.832.117a.59.59 0 0 0 .215-.77c-.113-.238-.652-.527-1.379-.734-.977-.282-2.418-.29-3.477-.02-.937.238-1.89.735-2.722 1.41l-.29.239-.288-.239c-.918-.757-2.07-1.312-3.145-1.507-.508-.094-1.879-.118-2.355-.04"/></g><defs><clipPath id="clip0_231_161"><path fill="#fff" d="M2 2h20v20H2z"/></clipPath></defs></svg>