<svg xmlns="http://www.w3.org/2000/svg" width="24" height="24" fill="none" viewBox="0 0 24 24"><g fill="#e8eaed" clip-path="url(#clip0_231_165)"><path d="M12.547 2.043a4.23 4.23 0 0 0-2.395 1.18l-.3.308-.215-.097c-.387-.188-.664-.243-1.192-.239-.43 0-.527.016-.8.11-.547.187-.95.468-1.305.914a2.7 2.7 0 0 0-.535 2.187c.035.176.074.344.086.375.011.035-.059.098-.203.18-.45.254-.829.707-.997 1.2-.128.374-.128.976-.003 1.343.214.629.699 1.125 1.304 1.344l.238.086.141.41c.078.222.203.511.277.636.278.461.711.856 1.196 1.082l.25.118v.578c0 .62.062 1.055.191 1.348l.078.18-.675.448c-.372.25-.696.489-.715.536-.09.199-1.23 5.34-1.207 5.437a.4.4 0 0 0 .285.277c.082.024.527-.109 1.855-.554l1.75-.582 1.758.586 1.758.585 1.75-.581 1.746-.582 1.14.574c.63.312 1.18.57 1.223.57.14 0 .301-.11.352-.238.047-.11.039-.188-.078-.715-.07-.324-.153-.645-.176-.711-.102-.246-.383-.324-.582-.168-.152.121-.188.234-.137.469.024.11.035.207.024.215-.012.011-.391-.165-.844-.391-.453-.227-.856-.414-.895-.414-.035 0-.515.148-1.062.332-.547.183-1 .332-1.008.332s.055-.082.14-.184c.391-.472.75-1.148.926-1.75.157-.547.215-1.02.215-1.804v-.715l.13-.23.128-.235.672.445c.719.48.672.426.77.856a.6.6 0 0 0 .14.23c.102.102.137.113.281.094.32-.043.399-.254.282-.77-.106-.445-.079-.418-.985-1.023-.465-.305-.86-.57-.879-.582-.027-.016.094-.426.297-1.035l.336-1.012v-.527l.004-.528.203-.097c.461-.223.965-.742 1.2-1.235.066-.14.199-.55.292-.914.125-.496.2-.71.309-.886.238-.391.309-.637.312-1.125.004-.356-.011-.477-.085-.692-.165-.469-.536-.937-.93-1.164l-.152-.09v-.414c0-.328-.02-.469-.09-.676a2.18 2.18 0 0 0-1.77-1.457c-.176-.023-.25-.062-.453-.23-.898-.746-2.121-1.078-3.371-.918m1.48.836c.582.14 1.067.394 1.485.781.293.27.316.277.703.309.312.023.683.199.883.418.316.351.441.863.316 1.293a1.6 1.6 0 0 0-.062.316c0 .11.171.34.25.34.117 0 .535.25.668.398.437.485.484 1.172.113 1.715-.117.176-.176.34-.332.942-.106.414-.235.824-.297.937-.059.113-.23.328-.383.48l-.273.274-.024-1.66c-.023-1.86-.023-1.867-.32-2.442-.227-.44-.707-.918-1.156-1.148-.203-.105-.387-.172-.477-.176-.137-.004-.172.024-.492.352-.262.273-.402.387-.598.476-.64.301-1.289.262-1.918-.113-.36-.215-.453-.203-.738.082A.77.77 0 0 1 10.063 6c-.036-.258-.106-.387-.25-.445-.301-.125-.973.11-1.286.453a1.9 1.9 0 0 0-.289.437l-.125.262-.011 1.156-.012 1.16-.34.016c-.219.012-.422.05-.566.106-.297.117-.645.437-.793.734l-.121.238c-.004.008-.098-.035-.207-.094a1.36 1.36 0 0 1-.583-.636c-.085-.184-.101-.274-.101-.551 0-.387.101-.656.351-.93.16-.18.52-.379.762-.418.184-.031.352-.207.352-.37a1 1 0 0 0-.098-.317c-.215-.473-.262-.899-.156-1.356.082-.347.23-.613.496-.89a1.88 1.88 0 0 1 1.516-.59c.386.027.668.125.976.336.41.281.563.246.848-.18.414-.625 1.219-1.117 2.094-1.285.351-.066 1.156-.043 1.507.043m-4.574 3.75c.16.309.402.535.742.695.239.114.297.125.637.125.367 0 .387-.004.695-.164l.317-.16.199.094c.934.453 2.18.258 2.95-.461.245-.23.257-.238.359-.184.214.11.617.555.738.817.164.347.207.586.207 1.148v.484l-.578.012c-.578.016-.578.016-.875.16a1.5 1.5 0 0 0-.746.766l-.125.262-.012 1.16-.012 1.164h-.426c-.472 0-.601.039-.687.2a.37.37 0 0 0 0 .382c.094.176.203.2.926.2.695 0 .843-.032.918-.184.02-.04.043-.688.054-1.438.02-1.355.02-1.367.114-1.516.05-.082.164-.195.25-.254.148-.097.191-.105.68-.117l.519-.015v3.074l-.442 1.328c-.468 1.406-.511 1.512-.66 1.648-.215.204-.261.207-1.984.207-1.766 0-1.77 0-2.02-.242a.84.84 0 0 1-.183-.3c-.035-.098-.254-.961-.492-1.918-.239-.957-.453-1.809-.473-1.895-.035-.125-.148-.266-.543-.664-.293-.297-.527-.57-.562-.652-.055-.125-.063-.391-.063-1.774 0-1.172.012-1.672.047-1.789.043-.14.3-.453.375-.453.016 0 .086.113.156.254m-1.36 3.43c0 .289.083.601.227.847.055.098.301.38.547.633.434.441.446.461.516.73l.07.278h-.34c-.566 0-1.054-.18-1.445-.531C7.336 11.715 7 11 7 10.59c0-.465.336-.774.852-.777h.242zm1.856 4.488c.168.672.328 1.27.36 1.328.046.098.046.11-.012.11-.035 0-.18-.055-.324-.126a2.1 2.1 0 0 1-.891-.89c-.164-.348-.207-.586-.207-1.153v-.488h.773zm-.91 1.613c.266.246.816.531 1.176.61l.223.046v.434c0 1.215.398 2.367 1.124 3.262.098.117.153.203.122.191-.032-.012-.5-.168-1.043-.348l-.985-.328-1.484.496c-.817.27-1.484.48-1.484.47 0-.032.933-4.145.96-4.24.016-.054 1.082-.808 1.145-.808.008 0 .117.098.246.215m6.027 1.832a4.1 4.1 0 0 1-.433 1.313c-.23.449-.473.758-1.008 1.289l-.453.449-.453-.45c-.535-.53-.778-.84-1.008-1.288a4.35 4.35 0 0 1-.492-2.063v-.398l1.847-.004c1.012-.004 1.887-.016 1.942-.031l.098-.028.011.414c.008.239-.015.57-.05.797"/><path d="M10.637 9.086c-.184.101-.246.328-.145.527.094.176.203.2.922.2s.828-.024.922-.2c.106-.203.031-.449-.16-.535-.149-.066-1.414-.062-1.54.008M18.176 18.422c-.34.187-.195.726.191.726.2 0 .39-.191.39-.386a.393.393 0 0 0-.581-.34"/></g><defs><clipPath id="clip0_231_165"><path fill="#fff" d="M2 2h20v20H2z"/></clipPath></defs></svg>