<svg xmlns="http://www.w3.org/2000/svg" width="24" height="24" fill="#e3e3e3" viewBox="0 -960 960 960"><path d="M438.62-329.23q0-67.92 15.65-104t65.35-80q38.69-34.46 58.65-62.5t19.96-63.58q0-47.15-32.11-78.38-32.12-31.23-88.43-31.23-51.38 0-80 27.53-28.61 27.54-43.46 61.47l-73-32.08q23.31-57.46 72.77-95.81 49.46-38.34 123.69-38.34 96.92 0 149.19 54.65t52.27 129.73q0 46.92-20.34 82.81-20.35 35.88-61.73 74.73-52.08 47.77-64.5 75.34-12.43 27.58-12.43 79.66zM477.69-100q-24.54 0-42.27-17.73T417.69-160t17.73-42.27T477.69-220t42.27 17.73T537.69-160t-17.73 42.27T477.69-100"/></svg>