<svg xmlns="http://www.w3.org/2000/svg" width="24" height="24" fill="none" viewBox="0 0 24 24"><g fill="#e8eaed" clip-path="url(#clip0_231_167)"><path d="M11.133 2.14c-.797.266-1.367.759-1.774 1.532-.195.36-.21.477-.21 1.258 0 .789.015.89.21 1.265.282.532.61.891 1.063 1.18 1.469.938 3.414.406 4.172-1.14.242-.485.258-.579.258-1.305 0-.727-.016-.82-.258-1.305-.313-.633-.883-1.164-1.5-1.398-.602-.235-1.406-.266-1.961-.086m1.656 1.25c.266.134.508.344.656.555.22.305.235.391.235.985s-.016.68-.235.984c-.312.438-.937.774-1.445.774s-1.133-.336-1.445-.774c-.22-.305-.235-.39-.235-.984s.016-.68.235-.985c.312-.437.937-.773 1.445-.773.258 0 .5.07.79.219M6.805 6.086c-1.297 1.023-2.016 1.883-2.657 3.18-.492.976-.898 2.406-.898 3.172v.265h1.172v-.258c.008-.43.289-1.578.555-2.21.476-1.141 1.515-2.462 2.57-3.243l.266-.203-.305-.476c-.172-.266-.328-.485-.352-.485-.023.008-.18.117-.351.258M16.492 6.313l-.305.476.266.203c1.055.781 2.094 2.102 2.57 3.242.266.633.547 1.782.555 2.211v.258h1.172v-.265c0-.149-.055-.547-.117-.883a8.86 8.86 0 0 0-3.305-5.36c-.258-.203-.484-.367-.5-.367-.015 0-.164.219-.336.484M4.242 14.422c-.82.21-1.61.875-1.984 1.68-.188.406-.219.562-.219 1.171.008.602.04.774.227 1.188.273.602.882 1.195 1.507 1.492.391.18.555.211 1.157.211.601 0 .773-.031 1.18-.219.6-.28 1.202-.883 1.492-1.5.187-.406.218-.562.218-1.172-.008-.601-.039-.773-.226-1.18-.274-.6-.875-1.202-1.477-1.476-.5-.234-1.367-.32-1.875-.195m1.235 1.18c.406.109.984.703 1.117 1.132.203.696.062 1.258-.446 1.75-.742.727-1.718.735-2.437.008-.711-.703-.727-1.687-.047-2.406.492-.516 1.102-.68 1.813-.484M18.32 14.445c-.828.235-1.508.82-1.898 1.617-.211.454-.242.586-.242 1.211 0 .61.03.766.226 1.188.274.602.883 1.195 1.508 1.492.39.18.555.211 1.156.211.602 0 .774-.031 1.18-.219.602-.28 1.203-.883 1.492-1.5.188-.406.219-.57.219-1.172 0-.625-.023-.757-.242-1.21-.477-1-1.39-1.625-2.469-1.688-.336-.016-.719.008-.93.07m1.297 1.157c.414.117 1.008.71 1.125 1.125.188.671.055 1.234-.39 1.718-.704.758-1.75.774-2.5.04-.711-.68-.727-1.641-.047-2.383.484-.532 1.093-.696 1.812-.5M8.336 20.508c-.133.258-.242.5-.242.539 0 .101 1.406.625 2.11.773.913.188 2.687.188 3.585 0 .734-.156 2.117-.664 2.117-.773 0-.04-.11-.281-.242-.54-.187-.374-.266-.46-.367-.413-2.25.968-4.227.968-6.594-.008-.101-.04-.18.047-.367.422"/></g><defs><clipPath id="clip0_231_167"><path fill="#fff" d="M2 2h20v20H2z"/></clipPath></defs></svg>