<svg xmlns="http://www.w3.org/2000/svg" width="24" height="24" fill="none" viewBox="0 0 24 24"><g clip-path="url(#clip0_291_66)"><mask id="mask0_291_66" width="24" height="24" x="0" y="0" maskUnits="userSpaceOnUse" style="mask-type:luminance"><path fill="#fff" d="M24 0H0v24h24z"/></mask><g fill="#100943" mask="url(#mask0_291_66)"><path d="M14.825 11.452h-7.09V8.646h7.09c.414 0 .702.073.846.199s.234.36.234.701v1.008c0 .36-.09.593-.234.72-.144.125-.432.18-.846.18zm.486-5.45H4.727V18h3.007v-3.904h5.542L15.906 18h3.367l-2.9-3.922c1.07-.159 1.55-.486 1.945-1.026.396-.54.594-1.403.594-2.555v-.9c0-.682-.072-1.222-.198-1.636a2.7 2.7 0 0 0-.648-1.097 2.9 2.9 0 0 0-1.117-.666C16.517 6.072 15.976 6 15.311 6z"/><path d="M36 0c0 6.627-5.372 12-12 12-1.348 0-2.643-.222-3.852-.632q.038-.428.037-.87v-.9c0-.764-.08-1.438-.253-2.008a4 4 0 0 0-.942-1.601l-.024-.026-.026-.024a4.2 4.2 0 0 0-1.588-.948l-.023-.008-.023-.007q-.865-.25-1.995-.249H14.04v.001h-1.072A12 12 0 0 1 12 0c0-6.627 5.373-12 12-12 6.628 0 12 5.373 12 12"/></g></g><defs><clipPath id="clip0_291_66"><path fill="#fff" d="M0 0h24v24H0z"/></clipPath></defs></svg>