<svg xmlns="http://www.w3.org/2000/svg" width="24" height="24" fill="#e3e3e3" viewBox="0 -960 960 960"><path d="M820-671.54v459.23Q820-182 799-161t-51.31 21H212.31Q182-140 161-161t-21-51.31v-535.38Q140-778 161-799t51.31-21h459.23zM760-646 646-760H212.31q-5.39 0-8.85 3.46t-3.46 8.85v535.38q0 5.39 3.46 8.85t8.85 3.46h535.38q5.39 0 8.85-3.46t3.46-8.85zM480-269.23q41.54 0 70.77-29.23T580-369.23 550.77-440 480-469.23 409.23-440 380-369.23t29.23 70.77T480-269.23M255.39-564.62h328.45v-139.99H255.39zM200-646v446-560z"/></svg>