<svg xmlns="http://www.w3.org/2000/svg" width="24" height="24" fill="#e3e3e3" viewBox="0 -960 960 960"><path d="M781.69-136.92 530.46-388.16q-30 24.77-69 38.77t-80.69 14q-102.55 0-173.58-71.01t-71.03-173.54q0-102.52 71.01-173.6 71.01-71.07 173.54-71.07 102.52 0 173.6 71.03 71.07 71.03 71.07 173.58 0 42.85-14.38 81.85-14.39 39-38.39 67.84l251.23 251.23zM380.77-395.38q77.31 0 130.96-53.66 53.66-53.65 53.66-130.96t-53.66-130.96q-53.65-53.66-130.96-53.66t-130.96 53.66Q196.15-657.31 196.15-580t53.66 130.96q53.65 53.66 130.96 53.66"/></svg>