<svg xmlns="http://www.w3.org/2000/svg" id="self" preserveAspectRatio="xMidYMid meet" style="background:0 0" viewBox="0 0 100 100"><rect width="4" height="23" x="48" y="13.5" fill="currentColor" rx="0" ry="0" style="opacity:1"/><rect width="4" height="23" x="48" y="13.5" fill="currentColor" rx="0" ry="0" style="opacity:.85%" transform="rotate(30 50 50)"/><rect width="4" height="23" x="48" y="13.5" fill="currentColor" rx="0" ry="0" style="opacity:.17" transform="rotate(60 50 50)"/><rect width="4" height="23" x="48" y="13.5" fill="currentColor" rx="0" ry="0" style="opacity:.255" transform="rotate(90 50 50)"/><rect width="4" height="23" x="48" y="13.5" fill="currentColor" rx="0" ry="0" style="opacity:.34" transform="rotate(120 50 50)"/><rect width="4" height="23" x="48" y="13.5" fill="currentColor" rx="0" ry="0" style="opacity:.425" transform="rotate(150 50 50)"/><rect width="4" height="23" x="48" y="13.5" fill="currentColor" rx="0" ry="0" style="opacity:.5" transform="rotate(180 50 50)"/><rect width="4" height="23" x="48" y="13.5" fill="currentColor" rx="0" ry="0" style="opacity:.585" transform="rotate(210 50 50)"/><rect width="4" height="23" x="48" y="13.5" fill="currentColor" rx="0" ry="0" style="opacity:.67" transform="rotate(240 50 50)"/><rect width="4" height="23" x="48" y="13.5" fill="currentColor" rx="0" ry="0" style="opacity:.755" transform="rotate(270 50 50)"/><rect width="4" height="23" x="48" y="13.5" fill="currentColor" rx="0" ry="0" style="opacity:.84" transform="rotate(300 50 50)"/><rect width="4" height="23" x="48" y="13.5" fill="currentColor" rx="0" ry="0" style="opacity:.925" transform="rotate(330 50 50)"/></svg>