<svg xmlns="http://www.w3.org/2000/svg"><style>:root svg:not(:target){display:none}</style><svg fill="#e8eaed" viewBox="0 -960 960 960" id="123"><path d="M227.69-366.15v-180h-60v-47.7h107.69v227.7zm137.7 0v-96.16q0-15.04 10.17-25.21t25.21-10.17h85.38v-48.46H365.39v-47.7h133.07q15.04 0 25.21 10.18 10.18 10.17 10.18 25.21v60.77q0 15.04-10.18 25.21-10.17 10.17-25.21 10.17h-85.38v48.46h120.77v47.7zm238.46 0v-47.7h120.77v-48.46h-80.77v-35.38h80.77v-48.46H603.85v-47.7h133.07q15.04 0 25.21 10.18 10.18 10.17 10.18 25.21v156.92q0 15.04-10.18 25.21-10.17 10.18-25.21 10.18z"></path></svg><svg fill="#e8eaed" viewBox="0 -960 960 960" id="abc"><path d="M680.77-366.15q-15.04 0-25.21-10.18-10.17-10.17-10.17-25.21v-156.92q0-15.04 10.17-25.21 10.17-10.18 25.21-10.18h116.92q15.04 0 25.21 10.18 10.18 10.17 10.18 25.21V-520h-47.69v-26.15h-92.31v132.3h92.31V-440h47.69v38.46q0 15.04-10.18 25.21-10.17 10.18-25.21 10.18zm-294.62 0v-227.7h152.31q15.04 0 25.21 10.18 10.18 10.17 10.18 25.21v44.61q0 14.31-8.43 23.5-8.42 9.2-23.11 10.35 14.69 1.15 23.11 10.35 8.43 9.19 8.43 23.5v44.61q0 15.04-10.18 25.21-10.17 10.18-25.21 10.18zm47.7-137.7h92.3v-42.3h-92.3zm0 90h92.3v-42.3h-92.3zm-306.93 47.7v-192.31q0-15.04 10.18-25.21 10.17-10.18 25.21-10.18h116.92q15.04 0 25.21 10.18 10.17 10.17 10.17 25.21v192.31h-47.69V-430h-92.31v63.85zm47.69-111.54h92.31v-68.46h-92.31z"></path></svg><svg fill="#e8eaed" viewBox="0 -960 960 960" id="add"><path d="M450-450H220v-60h230v-230h60v230h230v60H510v230h-60z"></path></svg><svg fill="#e8eaed" viewBox="0 -960 960 960" id="add_box"><path d="M450-290h60v-160h160v-60H510v-160h-60v160H290v60h160zM212.31-140Q182-140 161-161t-21-51.31v-535.38Q140-778 161-799t51.31-21h535.38Q778-820 799-799t21 51.31v535.38Q820-182 799-161t-51.31 21zm0-60h535.38q4.62 0 8.46-3.85 3.85-3.84 3.85-8.46v-535.38q0-4.62-3.85-8.46-3.84-3.85-8.46-3.85H212.31q-4.62 0-8.46 3.85-3.85 3.84-3.85 8.46v535.38q0 4.62 3.85 8.46 3.84 3.85 8.46 3.85M200-760v560z"></path></svg><svg fill="#e8eaed" viewBox="0 -960 960 960" id="add_circle"><path d="M450-290h60v-160h160v-60H510v-160h-60v160H290v60h160zm30.07 190q-78.84 0-148.21-29.92t-120.68-81.21-81.25-120.63Q100-401.1 100-479.93q0-78.84 29.92-148.21t81.21-120.68 120.63-81.25Q401.1-860 479.93-860q78.84 0 148.21 29.92t120.68 81.21 81.25 120.63Q860-558.9 860-480.07q0 78.84-29.92 148.21t-81.21 120.68-120.63 81.25Q558.9-100 480.07-100m-.07-60q134 0 227-93t93-227-93-227-227-93-227 93-93 227 93 227 227 93m0-320"></path></svg><svg fill="#e8eaed" viewBox="0 -960 960 960" id="arrow_backward"><path d="M398.08-253.85 171.92-480l226.16-226.15 42.15 43.38L287.46-510h500.62v60H287.46l152.77 152.77z"></path></svg><svg fill="#e3e3e3" viewBox="0 -960 960 960" id="arrow_downward"><path d="M440-800v487L216-537l-56 57 320 320 320-320-56-57-224 224v-487z"></path></svg><svg fill="#e8eaed" viewBox="0 -960 960 960" id="arrow_forward"><path d="m553.85-253.85-42.16-43.38L664.46-450H180v-60h484.46L511.69-662.77l42.16-43.38L780-480z"></path></svg><svg fill="#e3e3e3" viewBox="0 -960 960 960" id="arrow_upward"><path d="M440-160v-487L216-423l-56-57 320-320 320 320-56 57-224-224v487z"></path></svg><svg fill="#e8eaed" viewBox="0 -960 960 960" id="block"><path d="M480.07-100q-78.84 0-148.21-29.92t-120.68-81.21-81.25-120.63Q100-401.1 100-479.93q0-78.84 29.92-148.21t81.21-120.68 120.63-81.25Q401.1-860 479.93-860q78.84 0 148.21 29.92t120.68 81.21 81.25 120.63Q860-558.9 860-480.07q0 78.84-29.92 148.21t-81.21 120.68-120.63 81.25Q558.9-100 480.07-100m-.07-60q56.29 0 108.42-19.04 52.12-19.04 95.27-55.11L234.15-683.69q-35.69 43.15-54.92 95.27Q160-536.29 160-480q0 134 93 227t227 93m245.85-116.31q36.07-43.15 55.11-95.27Q800-423.71 800-480q0-134-93-227t-227-93q-56.43 0-108.68 18.85-52.24 18.84-95.01 55.3z"></path></svg><svg fill="#e8eaed" viewBox="0 -960 960 960" id="bookmark-thin"><path d="M220-150v-616.15q0-23.23 17.08-40.46t40.61-17.23h404.62q23.53 0 40.61 17.23T740-766.15V-150L480-261.54zm45.39-69.46L480-310.54l214.61 91.08v-546.69q0-4.62-3.84-8.46-3.85-3.85-8.46-3.85H277.69q-4.61 0-8.46 3.85-3.84 3.84-3.84 8.46zm0-559h429.22z"></path></svg><svg fill="#e8eaed" viewBox="0 -960 960 960" id="bookmark"><path d="M220-150v-597.69Q220-778 241-799t51.31-21h375.38Q698-820 719-799t21 51.31V-150L480-261.54zm60-92 200-86 200 86v-505.69q0-4.62-3.85-8.46-3.84-3.85-8.46-3.85H292.31q-4.62 0-8.46 3.85-3.85 3.84-3.85 8.46zm0-518h400z"></path></svg><svg fill="#e8eaed" viewBox="0 -960 960 960" id="cached"><path d="M482-170q-129.77 0-220.88-90.31Q170-350.62 170-480v-31.23l-74 74-42.15-42.15L200-625.54l146.15 146.16L304-437.23l-74-74V-480q0 104.23 73.38 177.12Q376.77-230 482-230q24.85 0 49.65-5.42 24.81-5.43 48.43-16.27l45 45q-33.77 18.15-69.73 27.42Q519.38-170 482-170m278-164.46L613.85-480.62 656-522.77l74 74V-480q0-104.23-73.38-177.12Q583.23-730 478-730q-24.85 0-49.65 5.42-24.81 5.43-48.43 16.27l-45-45q33.77-18.15 69.73-27.42Q440.62-790 478-790q129.77 0 220.88 90.31Q790-609.38 790-480v31.23l74-74 42.15 42.15z"></path></svg><svg fill="#e8eaed" viewBox="0 -960 960 960" id="calendar"><path d="M212.31-100Q182-100 161-121t-21-51.31v-535.38Q140-738 161-759t51.31-21h55.38v-84.61h61.54V-780h303.08v-84.61h60V-780h55.38Q778-780 799-759t21 51.31v535.38Q820-142 799-121t-51.31 21zm0-60h535.38q4.62 0 8.46-3.85 3.85-3.84 3.85-8.46v-375.38H200v375.38q0 4.62 3.85 8.46 3.84 3.85 8.46 3.85M200-607.69h560v-100q0-4.62-3.85-8.46-3.84-3.85-8.46-3.85H212.31q-4.62 0-8.46 3.85-3.85 3.84-3.85 8.46zm0 0V-720zm280 210.77q-14.69 0-25.04-10.35-10.34-10.34-10.34-25.04 0-14.69 10.34-25.04 10.35-10.34 25.04-10.34t25.04 10.34q10.34 10.35 10.34 25.04 0 14.7-10.34 25.04-10.35 10.35-25.04 10.35m-160 0q-14.69 0-25.04-10.35-10.34-10.34-10.34-25.04 0-14.69 10.34-25.04 10.35-10.34 25.04-10.34t25.04 10.34q10.34 10.35 10.34 25.04 0 14.7-10.34 25.04-10.35 10.35-25.04 10.35m320 0q-14.69 0-25.04-10.35-10.34-10.34-10.34-25.04 0-14.69 10.34-25.04 10.35-10.34 25.04-10.34t25.04 10.34q10.34 10.35 10.34 25.04 0 14.7-10.34 25.04-10.35 10.35-25.04 10.35M480-240q-14.69 0-25.04-10.35-10.34-10.34-10.34-25.03 0-14.7 10.34-25.04 10.35-10.35 25.04-10.35t25.04 10.35q10.34 10.34 10.34 25.04 0 14.69-10.34 25.03Q494.69-240 480-240m-160 0q-14.69 0-25.04-10.35-10.34-10.34-10.34-25.03 0-14.7 10.34-25.04 10.35-10.35 25.04-10.35t25.04 10.35q10.34 10.34 10.34 25.04 0 14.69-10.34 25.03Q334.69-240 320-240m320 0q-14.69 0-25.04-10.35-10.34-10.34-10.34-25.03 0-14.7 10.34-25.04 10.35-10.35 25.04-10.35t25.04 10.35q10.34 10.34 10.34 25.04 0 14.69-10.34 25.03Q654.69-240 640-240"></path></svg><svg fill="#e8eaed" viewBox="0 -960 960 960" id="cancel"><path d="m336-293.85 144-144 144 144L666.15-336l-144-144 144-144L624-666.15l-144 144-144-144L293.85-624l144 144-144 144zM480.07-100q-78.84 0-148.21-29.92t-120.68-81.21-81.25-120.63Q100-401.1 100-479.93q0-78.84 29.92-148.21t81.21-120.68 120.63-81.25Q401.1-860 479.93-860q78.84 0 148.21 29.92t120.68 81.21 81.25 120.63Q860-558.9 860-480.07q0 78.84-29.92 148.21t-81.21 120.68-120.63 81.25Q558.9-100 480.07-100m-.07-60q134 0 227-93t93-227-93-227-227-93-227 93-93 227 93 227 227 93m0-320"></path></svg><svg fill="none" id="cart" viewBox="0 0 24 24"><mask id="cart_0" fill="#fff"><path d="M1.5 5.046a.51.51 0 0 1-.5-.523c0-.29.224-.523.5-.523h3.093c.232 0 .428.165.484.39l.551 1.64H21.5c.276 0 .5.235.5.524a.6.6 0 0 1-.033.188l-1.192 3.962-.018.062-.77 2.554a.5.5 0 0 1-.417.363l-6.098.76-.05.006-5.347.666-1.05.334v1.686h12.063c.276 0 .5.234.5.523s-.224.523-.5.523h-1.482c.131.265.206.567.206.886 0 .534-.207 1.018-.542 1.367-.334.35-.796.566-1.306.566a1.8 1.8 0 0 1-1.306-.566 1.97 1.97 0 0 1-.54-1.367c0-.32.073-.62.205-.886H11a2 2 0 0 1-.336 2.253c-.334.35-.796.566-1.306.566a1.8 1.8 0 0 1-1.306-.566 1.97 1.97 0 0 1-.541-1.367c0-.32.074-.62.205-.886h-1.19a.51.51 0 0 1-.5-.523v-2.595h.002a.52.52 0 0 1 .354-.499l.957-.303-1.167-3.47a1 1 0 0 1-.027-.08L4.806 6.726v-.003L4.24 5.046zM16.564 18.44a.825.825 0 0 0-1.199 0 .9.9 0 0 0-.248.627c0 .245.095.467.249.627.153.16.365.26.599.26s.446-.1.6-.26a.9.9 0 0 0 .248-.627.9.9 0 0 0-.249-.627m-6.607 0a.825.825 0 0 0-1.199 0 .9.9 0 0 0-.247.627c0 .245.094.467.248.627.153.16.365.26.6.26.233 0 .446-.1.598-.26a.9.9 0 0 0 .249-.627.9.9 0 0 0-.249-.627m-2.976-8.387h2.317l-.29-2.977H5.98zm3.319 0h2.588V7.077h-2.879zm3.587 0h2.589l.29-2.977h-2.878zm3.59 0h2.447l.895-2.977h-3.05zM19.61 11.1h-2.233l-.178 1.827 1.934-.241zm-3.236 0h-2.486v2.239l2.296-.286zm-3.485 0h-2.486l.258 2.64 2.228-.277zm-3.488 0H7.333l.985 2.932 1.352-.168z"></path></mask><path fill="#5F6368" stroke="#5F6368" stroke-width="2" d="M1.5 5.046a.51.51 0 0 1-.5-.523c0-.29.224-.523.5-.523h3.093c.232 0 .428.165.484.39l.551 1.64H21.5c.276 0 .5.235.5.524a.6.6 0 0 1-.033.188l-1.192 3.962-.018.062-.77 2.554a.5.5 0 0 1-.417.363l-6.098.76-.05.006-5.347.666-1.05.334v1.686h12.063c.276 0 .5.234.5.523s-.224.523-.5.523h-1.482c.131.265.206.567.206.886 0 .534-.207 1.018-.542 1.367-.334.35-.796.566-1.306.566a1.8 1.8 0 0 1-1.306-.566 1.97 1.97 0 0 1-.54-1.367c0-.32.073-.62.205-.886H11a2 2 0 0 1-.336 2.253c-.334.35-.796.566-1.306.566a1.8 1.8 0 0 1-1.306-.566 1.97 1.97 0 0 1-.541-1.367c0-.32.074-.62.205-.886h-1.19a.51.51 0 0 1-.5-.523v-2.595h.002a.52.52 0 0 1 .354-.499l.957-.303-1.167-3.47a1 1 0 0 1-.027-.08L4.806 6.726v-.003L4.24 5.046H1.5ZM16.564 18.44a.825.825 0 0 0-1.199 0 .9.9 0 0 0-.248.627c0 .245.095.467.249.627.153.16.365.26.599.26s.446-.1.6-.26a.9.9 0 0 0 .248-.627.9.9 0 0 0-.249-.627Zm-6.607 0a.825.825 0 0 0-1.199 0 .9.9 0 0 0-.247.627c0 .245.094.467.248.627.153.16.365.26.6.26.233 0 .446-.1.598-.26a.9.9 0 0 0 .249-.627.9.9 0 0 0-.249-.627Zm-2.976-8.387h2.317l-.29-2.977H5.98zm3.319 0h2.588V7.077h-2.879zm3.587 0h2.589l.29-2.977h-2.878zm3.59 0h2.447l.895-2.977h-3.05zM19.61 11.1h-2.233l-.178 1.827 1.934-.241.477-1.586Zm-3.236 0h-2.486v2.239l2.296-.286.19-1.953Zm-3.485 0h-2.486l.258 2.64 2.228-.277zm-3.488 0H7.333l.985 2.932 1.352-.168z" mask="url(#cart_0)"></path></svg><svg fill="#e8eaed" viewBox="0 -960 960 960" id="check"><path d="M382-253.85 168.62-467.23 211.38-510 382-339.38 748.62-706l42.76 42.77z"></path></svg><svg fill="#e8eaed" viewBox="0 -960 960 960" id="check_circle"><path d="m423.23-309.85 268.92-268.92L650-620.92 423.23-394.15l-114-114L267.08-466zM480.07-100q-78.84 0-148.21-29.92t-120.68-81.21-81.25-120.63Q100-401.1 100-479.93q0-78.84 29.92-148.21t81.21-120.68 120.63-81.25Q401.1-860 479.93-860q78.84 0 148.21 29.92t120.68 81.21 81.25 120.63Q860-558.9 860-480.07q0 78.84-29.92 148.21t-81.21 120.68-120.63 81.25Q558.9-100 480.07-100m-.07-60q134 0 227-93t93-227-93-227-227-93-227 93-93 227 93 227 227 93m0-320"></path></svg><svg fill="#e8eaed" viewBox="0 -960 960 960" id="chevron_down"><path d="M480-357.85 253.85-584 296-626.15l184 184 184-184L706.15-584z"></path></svg><svg fill="#e8eaed" viewBox="0 -960 960 960" id="chevron_left"><path d="M560-253.85 333.85-480 560-706.15 602.15-664l-184 184 184 184z"></path></svg><svg fill="#e8eaed" viewBox="0 -960 960 960" id="chevron_left_big"><path d="M640-93.85 253.85-480 640-866.15l56.77 56.77L367.38-480l329.39 329.38z"></path></svg><svg fill="#e8eaed" viewBox="0 -960 960 960" id="chevron_right"><path d="m517.85-480-184-184L376-706.15 602.15-480 376-253.85 333.85-296z"></path></svg><svg fill="#e8eaed" viewBox="0 -960 960 960" id="clock"><path d="m618.92-298.92 42.16-42.16L510-492.16V-680h-60v212.15zM480.07-100q-78.84 0-148.21-29.92t-120.68-81.21-81.25-120.63Q100-401.1 100-479.93q0-78.84 29.92-148.21t81.21-120.68 120.63-81.25Q401.1-860 479.93-860q78.84 0 148.21 29.92t120.68 81.21 81.25 120.63Q860-558.9 860-480.07q0 78.84-29.92 148.21t-81.21 120.68-120.63 81.25Q558.9-100 480.07-100m-.07-60q133 0 226.5-93.5T800-480t-93.5-226.5T480-800t-226.5 93.5T160-480t93.5 226.5T480-160"></path></svg><svg fill="#e8eaed" viewBox="0 -960 960 960" id="close"><path d="M256-213.85 213.85-256l224-224-224-224L256-746.15l224 224 224-224L746.15-704l-224 224 224 224L704-213.85l-224-224z"></path></svg><svg fill="#e8eaed" viewBox="0 -960 960 960" id="collapse"><path d="M440-440v220h-60v-160H220v-60zm140-300v160h160v60H520v-220z"></path></svg><svg fill="#e8eaed" viewBox="0 -960 960 960" id="collapse_all"><path d="M296-93.85 253.85-136 480-362.15 706.15-136 664-93.85l-184-184zm184-504L253.85-824 296-866.15l184 184 184-184L706.15-824z"></path></svg><svg fill="#e3e3e3" viewBox="0 -960 960 960" id="comment"><path d="M250-410h460v-60H250zm0-120h460v-60H250zm0-120h460v-60H250zm610 531.54L718.46-260H172.31Q142-260 121-281t-21-51.31v-455.38Q100-818 121-839t51.31-21h615.38Q818-860 839-839t21 51.31zM172.31-320H744l56 55.39v-523.08q0-4.62-3.85-8.46-3.84-3.85-8.46-3.85H172.31q-4.62 0-8.46 3.85-3.85 3.84-3.85 8.46v455.38q0 4.62 3.85 8.46 3.84 3.85 8.46 3.85M160-320v-480z"></path></svg><svg fill="#e8eaed" viewBox="0 -960 960 960" id="copy"><path d="M362.31-260Q332-260 311-281t-21-51.31v-455.38Q290-818 311-839t51.31-21h335.38Q728-860 749-839t21 51.31v455.38Q770-302 749-281t-51.31 21zm0-60h335.38q4.62 0 8.46-3.85 3.85-3.84 3.85-8.46v-455.38q0-4.62-3.85-8.46-3.84-3.85-8.46-3.85H362.31q-4.62 0-8.46 3.85-3.85 3.84-3.85 8.46v455.38q0 4.62 3.85 8.46 3.84 3.85 8.46 3.85m-140 200Q192-120 171-141t-21-51.31v-515.38h60v515.38q0 4.62 3.85 8.46 3.84 3.85 8.46 3.85h395.38v60zM350-320v-480z"></path></svg><svg fill="#e8eaed" viewBox="0 -960 960 960" id="delete"><path d="M292.31-140q-29.92 0-51.12-21.19Q220-182.39 220-212.31V-720h-40v-60h180v-35.38h240V-780h180v60h-40v507.69Q740-182 719-161t-51.31 21zM680-720H280v507.69q0 5.39 3.46 8.85t8.85 3.46h375.38q4.62 0 8.46-3.85 3.85-3.84 3.85-8.46zM376.16-280h59.99v-360h-59.99zm147.69 0h59.99v-360h-59.99zM280-720v520z"></path></svg><svg fill="#e8eaed" viewBox="0 -960 960 960" id="description"><path d="M330-250h300v-60H330zm0-160h300v-60H330zm-77.69 310Q222-100 201-121t-21-51.31v-615.38Q180-818 201-839t51.31-21H570l210 210v477.69Q780-142 759-121t-51.31 21zM540-620v-180H252.31q-4.62 0-8.46 3.85-3.85 3.84-3.85 8.46v615.38q0 4.62 3.85 8.46 3.84 3.85 8.46 3.85h455.38q4.62 0 8.46-3.85 3.85-3.84 3.85-8.46V-620zM240-800v180zv640z"></path></svg><svg fill="none" id="double_arrow" viewBox="0 0 24 24"><path fill="#E8EAED" d="M12.875 6.346 18.529 12l-5.654 5.654-1.054-1.054 4.585-4.6-4.585-4.6zm-6.35 0L12.179 12l-5.654 5.654L5.471 16.6l4.585-4.6L5.47 7.4z"></path></svg><svg fill="#e8eaed" viewBox="0 -960 960 960" id="double_arrow_backward"><path d="M445-253.85 218.85-480 445-706.15 487.15-664 303.77-480l183.38 184zm254 0L472.85-480 699-706.15 741.15-664 557.77-480l183.38 184z"></path></svg><svg fill="#e8eaed" viewBox="0 -960 960 960" id="download"><path d="M480-328.46 309.23-499.23l42.16-43.38L450-444v-336h60v336l98.61-98.61 42.16 43.38zM252.31-180Q222-180 201-201t-21-51.31v-108.46h60v108.46q0 4.62 3.85 8.46 3.84 3.85 8.46 3.85h455.38q4.62 0 8.46-3.85 3.85-3.84 3.85-8.46v-108.46h60v108.46Q780-222 759-201t-51.31 21z"></path></svg><svg fill="#e8eaed" viewBox="0 -960 960 960" id="drag_handle"><path d="M180-370v-60h600v60zm0-160v-60h600v60z"></path></svg><svg fill="#e8eaed" viewBox="0 -960 960 960" id="edit"><path d="M200-200h50.46l409.46-409.46-50.46-50.46L200-250.46zm-60 60v-135.38l527.62-527.39q9.07-8.24 20.03-12.73 10.97-4.5 23-4.5t23.3 4.27q11.28 4.27 19.97 13.58l48.85 49.46q9.31 8.69 13.27 20t3.96 22.62q0 12.07-4.12 23.03-4.12 10.97-13.11 20.04L275.38-140zm620.38-570.15-50.23-50.23zm-126.13 75.9-24.79-25.67 50.46 50.46z"></path></svg><svg fill="#e8eaed" viewBox="0 -960 960 960" id="error"><path d="M480-290.77q13.73 0 23.02-9.29t9.29-23.02-9.29-23.02q-9.29-9.28-23.02-9.28t-23.02 9.28q-9.29 9.29-9.29 23.02t9.29 23.02 23.02 9.29m-30-146.15h60v-240h-60zM480.07-100q-78.84 0-148.21-29.92t-120.68-81.21-81.25-120.63Q100-401.1 100-479.93q0-78.84 29.92-148.21t81.21-120.68 120.63-81.25Q401.1-860 479.93-860q78.84 0 148.21 29.92t120.68 81.21 81.25 120.63Q860-558.9 860-480.07q0 78.84-29.92 148.21t-81.21 120.68-120.63 81.25Q558.9-100 480.07-100m-.07-60q134 0 227-93t93-227-93-227-227-93-227 93-93 227 93 227 227 93m0-320"></path></svg><svg fill="#e8eaed" viewBox="0 -960 960 960" id="expand"><path d="M220-220v-220h60v160h160v60zm460-300v-160H520v-60h220v220z"></path></svg><svg fill="#e8eaed" viewBox="0 -960 960 960" id="expand_all"><path d="M480-93.85 253.85-320l42.77-42.77L480-180.15l183.38-182.62L706.15-320zm-182.77-504L253.85-640 480-866.15 706.15-640l-43.38 42.15-182.77-182z"></path></svg><svg fill="none" id="eye" viewBox="0 0 24 24"><path stroke="#e8eaed" d="M12 6.035c-5.115 0-9.107 3.921-10.463 5.882 1.453 2.058 5.522 5.882 10.754 5.882 4.883 0 8.913-3.922 10.172-5.882C21.107 9.957 17.116 6.035 12 6.035Z"></path><path fill="#e8eaed" fill-rule="evenodd" d="m9.168 9.736-.685-.427a4.43 4.43 0 0 0-.842 2.608c0 2.436 1.952 4.411 4.36 4.411 2.407 0 4.36-1.975 4.36-4.411 0-2.437-1.953-4.412-4.36-4.412a4.3 4.3 0 0 0-1.93.455l.36.718a3.5 3.5 0 0 1 1.57-.37c1.951 0 3.554 1.604 3.554 3.609s-1.603 3.61-3.555 3.61c-1.951 0-3.555-1.605-3.555-3.61 0-.822.27-1.577.723-2.181" clip-rule="evenodd"></path><path stroke="#e8eaed" d="M13.05 11.917a1.06 1.06 0 0 1-1.05 1.07 1.06 1.06 0 0 1-1.051-1.07c0-.597.476-1.07 1.05-1.07s1.051.473 1.051 1.07Z"></path></svg><svg fill="none" id="eye_off" viewBox="0 0 24 24"><path fill="#e8eaed" d="M7.286 11.5H1v.975h6.286z"></path><path fill="#e8eaed" d="M7.286 11.5H1v1h6.286zM23 11.5h-6.286v1H23z"></path><path fill="#e8eaed" fill-rule="evenodd" d="m10.405 10.81-.817-.594a3 3 0 1 0 1.618-1.11l.402.933q.19-.038.392-.039c1.082 0 1.985.881 1.985 2s-.903 2-1.985 2a1.99 1.99 0 0 1-1.985-2c0-.449.146-.86.39-1.19" clip-rule="evenodd"></path></svg><svg fill="#e8eaed" viewBox="0 -960 960 960" id="filter"><path d="M411.15-260v-60h137.31v60zM256.16-450v-60h447.3v60zM140-640v-60h680v60z"></path></svg><svg fill="#e8eaed" viewBox="0 -960 960 960" id="filter_alt_off"><path d="M577.77-495.23 535-538l143-182H353l-60-60h446.61q18.85 0 27.35 16.62 8.5 16.61-3.04 32zm214.38 412.3L540-335.08v119.69q0 15.08-10.16 25.23Q519.69-180 504.61-180h-49.22q-15.08 0-25.23-10.16Q420-200.31 420-215.39v-239.69L82.93-792.15l42.15-42.77 709.84 709.84zM535-538"></path></svg><svg fill="#e8eaed" viewBox="0 -960 960 960" id="folder-create"><path d="M570-330h60v-80h80v-60h-80v-80h-60v80h-80v60h80zM172.31-180Q142-180 121-201t-21-51.31v-455.38Q100-738 121-759t51.31-21h219.61l80 80h315.77Q818-700 839-679t21 51.31v375.38Q860-222 839-201t-51.31 21zm0-60h615.38q5.39 0 8.85-3.46t3.46-8.85v-375.38q0-5.39-3.46-8.85t-8.85-3.46H447.38l-80-80H172.31q-5.39 0-8.85 3.46t-3.46 8.85v455.38q0 5.39 3.46 8.85t8.85 3.46M160-240v-480z"></path></svg><svg fill="#e8eaed" viewBox="0 -960 960 960" id="folder-delete"><path d="M574.61-287.69h87.7q22.31 0 38.07-15.77 15.77-15.77 15.77-38.08v-170.77h36.16V-560h-96.16v-32.31h-75.38V-560h-96.15v47.69h36.15v170.77q0 22.31 15.77 38.08t38.07 15.77m-6.15-224.62h100v170.77q0 2.69-1.73 4.42-1.73 1.74-4.42 1.74h-87.7q-2.69 0-4.42-1.74-1.73-1.73-1.73-4.42zM172.31-180Q142-180 121-201t-21-51.31v-455.38Q100-738 121-759t51.31-21h219.61l80 80h315.77Q818-700 839-679t21 51.31v375.38Q860-222 839-201t-51.31 21zm0-60h615.38q5.39 0 8.85-3.46t3.46-8.85v-375.38q0-5.39-3.46-8.85t-8.85-3.46H447.38l-80-80H172.31q-5.39 0-8.85 3.46t-3.46 8.85v455.38q0 5.39 3.46 8.85t8.85 3.46M160-240v-480z"></path></svg><svg fill="#e8eaed" viewBox="0 -960 960 960" id="folder-move"><path d="m511.85-410-70.77 70.77 42.15 42.15L626.15-440 483.23-582.92l-42.15 42.15L511.85-470h-178v60zM172.31-180Q142-180 121-201t-21-51.31v-455.38Q100-738 121-759t51.31-21h219.61l80 80h315.77Q818-700 839-679t21 51.31v375.38Q860-222 839-201t-51.31 21zm0-60h615.38q5.39 0 8.85-3.46t3.46-8.85v-375.38q0-5.39-3.46-8.85t-8.85-3.46H447.38l-80-80H172.31q-5.39 0-8.85 3.46t-3.46 8.85v455.38q0 5.39 3.46 8.85t8.85 3.46M160-240v-480z"></path></svg><svg fill="#e8eaed" viewBox="0 -960 960 960" id="folder"><path d="M172.31-180Q142-180 121-201t-21-51.31v-455.38Q100-738 121-759t51.31-21h219.61l80 80h315.77Q818-700 839-679t21 51.31v375.38Q860-222 839-201t-51.31 21zm0-60h615.38q5.39 0 8.85-3.46t3.46-8.85v-375.38q0-5.39-3.46-8.85t-8.85-3.46H447.38l-80-80H172.31q-5.39 0-8.85 3.46t-3.46 8.85v455.38q0 5.39 3.46 8.85t8.85 3.46M160-240v-480z"></path></svg><svg fill="#e8eaed" viewBox="0 -960 960 960" id="gear"><path d="m387.69-100-15.23-121.85q-16.07-5.38-32.96-15.07-16.88-9.7-30.19-20.77L196.46-210l-92.3-160 97.61-73.77q-1.38-8.92-1.96-17.92t-.58-17.93q0-8.53.58-17.34t1.96-19.27L104.16-590l92.3-159.23 112.46 47.31q14.47-11.46 30.89-20.96t32.27-15.27L387.69-860h184.62l15.23 122.23q18 6.54 32.57 15.27 14.58 8.73 29.43 20.58l114-47.31L855.84-590l-99.15 74.92q2.15 9.69 2.35 18.12.19 8.42.19 16.96 0 8.15-.39 16.58-.38 8.42-2.76 19.27L854.46-370l-92.31 160-112.61-48.08q-14.85 11.85-30.31 20.96-15.46 9.12-31.69 14.89L572.31-100zM440-160h78.62L533-267.15q30.62-8 55.96-22.73 25.35-14.74 48.89-37.89L737.23-286l39.39-68-86.77-65.38q5-15.54 6.8-30.47 1.81-14.92 1.81-30.15 0-15.62-1.81-30.15-1.8-14.54-6.8-29.7L777.38-606 738-674l-100.54 42.38q-20.08-21.46-48.11-37.92-28.04-16.46-56.73-23.31L520-800h-79.38l-13.24 106.77q-30.61 7.23-56.53 22.15-25.93 14.93-49.47 38.46L222-674l-39.38 68L269-541.62q-5 14.24-7 29.62t-2 32.38q0 15.62 2 30.62t6.62 29.62l-86 65.38L222-286l99-42q22.77 23.38 48.69 38.31 25.93 14.92 57.31 22.92zm40.46-200q49.92 0 84.96-35.04T600.46-480t-35.04-84.96T480.46-600q-50.54 0-85.27 35.04T360.46-480t34.73 84.96T480.46-360M480-480"></path></svg><svg fill="#e8eaed" viewBox="0 -960 960 960" id="gift"><path d="M164.62-100v-435.39H100v-208.45h206.85q-8.46-9.77-11.5-22.01-3.04-12.23-3.04-25.69 0-44.87 31.41-76.28T400-899.23q23 0 42.62 9.65 19.61 9.66 35.07 25.81 15.46-16.77 35.08-26.11 19.61-9.35 42.61-9.35 44.88 0 76.29 31.41t31.41 76.28q0 13.31-3.35 25.31t-11.19 22.39H860v208.45h-64.62V-100zm390.76-739.23q-20.27 0-33.98 13.71t-13.71 33.98 13.71 33.98q13.71 13.72 33.98 13.72t33.99-13.72q13.71-13.71 13.71-33.98t-13.71-33.98q-13.72-13.71-33.99-13.71m-203.07 47.69q0 20.27 13.71 33.98 13.71 13.72 33.98 13.72t33.98-13.72q13.71-13.71 13.71-33.98t-13.71-33.98T400-839.23t-33.98 13.71-13.71 33.98M160-683.85v88.47h290v-88.47zM450-160v-375.39H224.61V-160zm60 0h225.39v-375.39H510zm290-435.38v-88.47H510v88.47z"></path></svg><svg fill="#e8eaed" viewBox="0 -960 960 960" id="hourglass_empty"><path d="M316.15-160h327.7v-120q0-68.31-47.77-116.85T480-445.39t-116.08 48.54T316.15-280zM480-514.61q68.31 0 116.08-48.54T643.85-680v-120h-327.7v120q0 68.31 47.77 116.85T480-514.61M180-100v-60h76.16v-120q0-67.54 36.96-122.96 36.96-55.43 97.96-77.04-61-22-97.96-77.23T256.16-680v-120H180v-60h600v60h-76.16v120q0 67.54-36.96 122.77T568.92-480q61 21.61 97.96 77.04 36.96 55.42 36.96 122.96v120H780v60z"></path></svg><svg fill="#e8eaed" viewBox="0 -960 960 960" id="hourglass_top"><path d="M316.15-160h327.7v-120q0-68.31-47.77-116.85T480-445.39t-116.08 48.54T316.15-280zM180-100v-60h76.16v-120q0-67.54 36.96-122.96 36.96-55.43 97.96-77.04-61-22-97.96-77.23T256.16-680v-120H180v-60h600v60h-76.16v120q0 67.54-36.96 122.77T568.92-480q61 21.61 97.96 77.04 36.96 55.42 36.96 122.96v120H780v60z"></path></svg><svg fill="#e8eaed" viewBox="0 -960 960 960" id="info"><path d="M478-240q21 0 35.5-14.5T528-290t-14.5-35.5T478-340t-35.5 14.5T428-290t14.5 35.5T478-240m-36-154h74q0-33 7.5-52t42.5-52q26-26 41-49.5t15-56.5q0-56-41-86t-97-30q-57 0-92.5 30T342-618l66 26q5-18 22.5-39t53.5-21q32 0 48 17.5t16 38.5q0 20-12 37.5T506-526q-44 39-54 59t-10 73m38 314q-83 0-156-31.5T197-197t-85.5-127T80-480t31.5-156T197-763t127-85.5T480-880t156 31.5T763-763t85.5 127T880-480t-31.5 156T763-197t-127 85.5T480-80"></path></svg><svg fill="#e8eaed" viewBox="0 -960 960 960" id="list"><path d="M293.08-597.69v-60H820v60zm0 147.69v-60H820v60zm0 147.69v-60H820v60zM172.31-595.38q-13.73 0-23.02-9.4t-9.29-23.3q0-13.56 9.29-22.74t23.02-9.18 23.02 9.18 9.29 22.74q0 13.9-9.29 23.3t-23.02 9.4m0 147.3q-13.73 0-23.02-9.18Q140-466.43 140-480q0-14.31 9.29-23.5t23.02-9.19 23.02 9.19 9.29 23.5q0 13.57-9.29 22.74-9.29 9.18-23.02 9.18m0 148.08q-13.73 0-23.02-9.4T140-332.69q0-13.57 9.29-22.75t23.02-9.18 23.02 9.18 9.29 22.75q0 13.89-9.29 23.29t-23.02 9.4"></path></svg><svg fill="#e8eaed" viewBox="0 -960 960 960" id="list_alt"><path d="M322.33-289.23q15.05 0 25.21-10.18 10.15-10.18 10.15-25.23t-10.18-25.21Q337.33-360 322.28-360t-25.2 10.18q-10.16 10.18-10.16 25.23t10.18 25.2q10.19 10.16 25.23 10.16m0-155.39q15.05 0 25.21-10.18 10.15-10.18 10.15-25.23t-10.18-25.2-25.23-10.15-25.2 10.18q-10.16 10.18-10.16 25.23t10.18 25.2q10.19 10.15 25.23 10.15m0-155.38q15.05 0 25.21-10.18 10.15-10.18 10.15-25.23t-10.18-25.2q-10.18-10.16-25.23-10.16t-25.2 10.18q-10.16 10.18-10.16 25.23t10.18 25.21Q307.29-600 322.33-600m121.52 305.38h227.69v-59.99H443.85zm0-155.38h227.69v-60H443.85zm0-155.39h227.69v-59.99H443.85zM212.31-140Q182-140 161-161t-21-51.31v-535.38Q140-778 161-799t51.31-21h535.38Q778-820 799-799t21 51.31v535.38Q820-182 799-161t-51.31 21zm0-60h535.38q4.62 0 8.46-3.85 3.85-3.84 3.85-8.46v-535.38q0-4.62-3.85-8.46-3.84-3.85-8.46-3.85H212.31q-4.62 0-8.46 3.85-3.85 3.84-3.85 8.46v535.38q0 4.62 3.85 8.46 3.84 3.85 8.46 3.85M200-760v560z"></path></svg><svg viewBox="0 -960 960 960" fill="#e3e3e3" id="lock"><path d="M252.31-100q-29.92 0-51.12-21.19Q180-142.39 180-172.31v-375.38q0-29.92 21.19-51.12Q222.39-620 252.31-620H300v-80q0-74.92 52.54-127.46Q405.08-880 480-880q74.92 0 127.46 52.54Q660-774.92 660-700v80h47.69q29.92 0 51.12 21.19Q780-577.61 780-547.69v375.38q0 29.92-21.19 51.12Q737.61-100 707.69-100H252.31Zm0-60h455.38q5.39 0 8.85-3.46t3.46-8.85v-375.38q0-5.39-3.46-8.85t-8.85-3.46H252.31q-5.39 0-8.85 3.46t-3.46 8.85v375.38q0 5.39 3.46 8.85t8.85 3.46ZM480-290q29.15 0 49.58-20.42Q550-330.85 550-360t-20.42-49.58Q509.15-430 480-430t-49.58 20.42Q410-389.15 410-360t20.42 49.58Q450.85-290 480-290ZM360-620h240v-80q0-50-35-85t-85-35q-50 0-85 35t-35 85v80ZM240-160v-400 400Z"></path></svg><svg viewBox="0 -960 960 960" fill="#e3e3e3" id="lock_open_right"><path d="M252.31-160h455.38q5.39 0 8.85-3.46t3.46-8.85v-375.38q0-5.39-3.46-8.85t-8.85-3.46H252.31q-5.39 0-8.85 3.46t-3.46 8.85v375.38q0 5.39 3.46 8.85t8.85 3.46ZM480-290q29.15 0 49.58-20.42Q550-330.85 550-360t-20.42-49.58Q509.15-430 480-430t-49.58 20.42Q410-389.15 410-360t20.42 49.58Q450.85-290 480-290ZM240-160v-400 400Zm12.31 60q-29.92 0-51.12-21.19Q180-142.39 180-172.31v-375.38q0-29.92 21.19-51.12Q222.39-620 252.31-620H540v-80q0-74.92 52.54-127.46Q645.08-880 720-880q74.92 0 127.46 52.54Q900-774.92 900-700h-60q0-50-35-85t-85-35q-50 0-85 35t-35 85v80h107.69q29.92 0 51.12 21.19Q780-577.61 780-547.69v375.38q0 29.92-21.19 51.12Q737.61-100 707.69-100H252.31Z"></path></svg><svg fill="#e8eaed" viewBox="0 -960 960 960" id="logout"><path d="M212.31-140Q182-140 161-161t-21-51.31v-535.38Q140-778 161-799t51.31-21h268.07v60H212.31q-4.62 0-8.46 3.85-3.85 3.84-3.85 8.46v535.38q0 4.62 3.85 8.46 3.84 3.85 8.46 3.85h268.07v60zm436.92-169.23-41.54-43.39L705.08-450H363.85v-60h341.23l-97.39-97.38 41.54-43.39L820-480z"></path></svg><svg fill="#e8eaed" viewBox="0 -960 960 960" id="match_case"><path d="m146.77-262.77 157.69-424.61h61.31l158.84 424.61h-60.23l-40.15-115.08H246.62l-40.39 115.08zM265-428h140.62l-69-195.46h-3.24zm390.38 174.85q-48.69 0-77.73-26.54t-29.04-68.46q0-43.24 33.93-70.39 33.92-27.15 87.15-27.15 22.23 0 44.23 4.19t38.39 11.58v-17.77q0-34-20.12-53.16Q712.08-520 676.15-520q-21.84 0-40.27 8.34-18.42 8.35-34.34 24.81l-36.23-28.84q23.23-24.77 50.46-36.46 27.23-11.7 61-11.7 63.23 0 94.15 30.96 30.92 30.97 30.92 92.89v177.23h-49.53v-38.92h-4q-14.77 24.15-38.58 36.34-23.81 12.2-54.35 12.2m7.39-43.23q40.38 0 65.27-26.7 24.88-26.69 24.88-64.84-14-8-34.46-12.5t-40.23-4.5q-35.85 0-56.54 15.15T601-348.15q0 22.3 17.34 37.03 17.35 14.74 44.43 14.74"></path></svg><svg fill="#e8eaed" viewBox="0 -960 960 960" id="menu"><path d="M140-254.62v-59.99h680v59.99zM140-450v-60h680v60zm0-195.39v-59.99h680v59.99z"></path></svg><svg fill="#e8eaed" viewBox="0 -960 960 960" id="monitoring"><path d="M130-130v-65.77l60-60V-130zm160 0v-225.77l60-60V-130zm160 0v-285.77l60 61V-130zm160 0v-224.77l60-60V-130zm160 0v-385.77l60-60V-130zM130-351.23v-84.54l270-270 160 160 270-270v84.54l-270 270-160-160z"></path></svg><svg fill="#e8eaed" viewBox="0 -960 960 960" id="more_h"><path d="M249.23-420q-24.75 0-42.37-17.63-17.63-17.62-17.63-42.37t17.63-42.37Q224.48-540 249.23-540t42.38 17.63q17.62 17.62 17.62 42.37t-17.62 42.37Q273.98-420 249.23-420M480-420q-24.75 0-42.37-17.63Q420-455.25 420-480t17.63-42.37Q455.25-540 480-540t42.37 17.63Q540-504.75 540-480t-17.63 42.37Q504.75-420 480-420m230.77 0q-24.75 0-42.38-17.63-17.62-17.62-17.62-42.37t17.62-42.37Q686.02-540 710.77-540t42.37 17.63q17.63 17.62 17.63 42.37t-17.63 42.37Q735.52-420 710.77-420"></path></svg><svg fill="#e8eaed" viewBox="0 -960 960 960" id="move-group"><path d="M322.31-260Q292-260 271-281t-21-51.31v-70h60v70q0 4.62 3.85 8.46 3.84 3.85 8.46 3.85h455.38q4.62 0 8.46-3.85 3.85-3.84 3.85-8.46V-720H310v82.31h-60v-150Q250-818 271-839t51.31-21h455.38Q808-860 829-839t21 51.31v455.38Q850-302 829-281t-51.31 21zm-140 140Q152-120 131-141t-21-51.31v-515.38h60v515.38q0 4.62 3.85 8.46 3.84 3.85 8.46 3.85h515.38v60zm326.15-246.54-41.77-41.77L547-490H250v-60h297l-80.31-81.69 41.77-41.77L661.92-520z"></path></svg><svg fill="#e8eaed" viewBox="0 -960 960 960" id="move-item"><path d="M814.85-450H343.08v-60h471.77l-72.77-72.77 42.15-43.38L930.38-480 784.23-333.85l-42.15-43.38zM608.08-605.39v-142.3q0-5.39-3.46-8.85-3.47-3.46-8.85-3.46H212.31q-5.39 0-8.85 3.46t-3.46 8.85v535.38q0 5.39 3.46 8.85t8.85 3.46h383.46q5.38 0 8.85-3.46 3.46-3.46 3.46-8.85v-142.3h60v142.3q0 29.92-21.2 51.12Q625.69-140 595.77-140H212.31q-29.92 0-51.12-21.19Q140-182.39 140-212.31v-535.38q0-29.92 21.19-51.12Q182.39-820 212.31-820h383.46q29.92 0 51.11 21.19 21.2 21.2 21.2 51.12v142.3z"></path></svg><svg fill="#e8eaed" viewBox="0 -960 960 960" id="newsstand"><path d="M90-172.31v-60h780v60zm86.92-155.38v-300h60v300zm155.39 0v-460h60v460zm155.38 0v-460h60v460zm266.16 0L603.85-590l52.3-30 150 262.31z"></path></svg><svg fill="none" id="ok" viewBox="0 0 24 24"><path fill="#fff" d="M12 4.917a3.19 3.19 0 0 0-3.187 3.187A3.19 3.19 0 0 0 12 11.292a3.174 3.174 0 0 0 3.188-3.188A3.19 3.19 0 0 0 12 4.917m0 4.25c-.59 0-1.062-.473-1.062-1.063S11.41 7.042 12 7.042s1.063.472 1.063 1.062S12.59 9.167 12 9.167M15.92 13.44a7.8 7.8 0 0 1-2.55.897l2.479 3.046c.283.354.354.85.094 1.228a1.03 1.03 0 0 1-1.676.094l-2.29-2.81-2.267 2.81a1.03 1.03 0 0 1-1.63-.047c-.26-.354-.236-.945.048-1.299l2.455-3.07c-.873-.165-1.747-.448-2.526-.896-.496-.284-.661-.898-.378-1.417.284-.496.921-.661 1.417-.378 1.794 1.015 4.037 1.015 5.855.024a1.013 1.013 0 0 1 1.393.401c.26.52.071 1.133-.425 1.417"></path></svg><svg fill="#e8eaed" viewBox="0 -960 960 960" id="pdf"><path d="M353.08-462.31h35.38v-80h44.62q15.07 0 25.23-10.15 10.15-10.16 10.15-25.23v-44.62q0-15.07-10.15-25.23-10.16-10.15-25.23-10.15h-80zm35.38-115.38v-44.62h44.62v44.62zm120.77 115.38h78.46q15.08 0 25.23-10.15 10.16-10.16 10.16-25.23v-124.62q0-15.07-10.16-25.23-10.15-10.15-25.23-10.15h-78.46zm35.38-35.38v-124.62h43.08v124.62zm123.08 35.38h35.39v-80h47.69v-35.38h-47.69v-44.62h47.69v-35.38h-83.08zM322.31-260Q292-260 271-281t-21-51.31v-455.38Q250-818 271-839t51.31-21h455.38Q808-860 829-839t21 51.31v455.38Q850-302 829-281t-51.31 21zm0-60h455.38q4.62 0 8.46-3.85 3.85-3.84 3.85-8.46v-455.38q0-4.62-3.85-8.46-3.84-3.85-8.46-3.85H322.31q-4.62 0-8.46 3.85-3.85 3.84-3.85 8.46v455.38q0 4.62 3.85 8.46 3.84 3.85 8.46 3.85m-140 200Q152-120 131-141t-21-51.31v-515.38h60v515.38q0 4.62 3.85 8.46 3.84 3.85 8.46 3.85h515.38v60zM310-800v480z"></path></svg><svg fill="#e8eaed" viewBox="0 -960 960 960" id="person"><path d="M480-492.31q-57.75 0-98.87-41.12Q340-574.56 340-632.31t41.13-98.87q41.12-41.13 98.87-41.13t98.87 41.13Q620-690.06 620-632.31t-41.13 98.88q-41.12 41.12-98.87 41.12M180-187.69v-88.93q0-29.38 15.96-54.42t42.66-38.5q59.3-29.07 119.65-43.61T480-427.69t121.73 14.54 119.65 43.61q26.7 13.46 42.66 38.5T780-276.62v88.93zm60-60h480v-28.93q0-12.15-7.04-22.5-7.04-10.34-19.11-16.88-51.7-25.46-105.42-38.58Q534.7-367.69 480-367.69t-108.43 13.11Q317.85-341.46 266.15-316q-12.07 6.54-19.11 16.88-7.04 10.35-7.04 22.5zm240-304.62q33 0 56.5-23.5t23.5-56.5-23.5-56.5-56.5-23.5-56.5 23.5-23.5 56.5 23.5 56.5 56.5 23.5m0 304.62"></path></svg><svg fill="#e8eaed" viewBox="0 -960 960 960" id="play"><path d="M340-236.16v-487.68L723.07-480zM400-346l210.77-134L400-614z"></path></svg><svg fill="#e8eaed" viewBox="0 -960 960 960" id="play_filled"><path d="M340-236.16v-487.68L723.07-480z"></path></svg><svg fill="#e8eaed" viewBox="0 -960 960 960" id="print"><path d="M640-627.69v-120H320v120h-60v-180h440v180zm-468.46 60h616.92zm540.77 100q17 0 28.5-11.5t11.5-28.5-11.5-28.5-28.5-11.5-28.5 11.5-11.5 28.5 11.5 28.5 28.5 11.5M640-200v-170.77H320V-200zm60 60H260v-160H111.54v-227.69q0-42.5 29.04-71.25t70.96-28.75h536.92q42.5 0 71.25 28.75t28.75 71.25V-300H700zm88.46-220v-167.69q0-17-11.5-28.5t-28.5-11.5H211.54q-17 0-28.5 11.5t-11.5 28.5V-360H260v-70.77h440V-360z"></path></svg><svg fill="#e8eaed" viewBox="0 -960 960 960" id="progress_activity"><path d="M479.88-100q-78.03 0-147.33-29.9-69.29-29.9-121.02-81.63T129.9-332.55Q100-401.85 100-479.88q0-78.98 29.96-147.97 29.96-69 81.58-120.61 51.61-51.62 121.04-81.58T480-860q12.75 0 21.37 8.63 8.63 8.63 8.63 21.38 0 12.76-8.63 21.37Q492.75-800 480-800q-133 0-226.5 93.5T160-480t93.5 226.5T480-160t226.5-93.5T800-480q0-12.77 8.63-21.38 8.63-8.62 21.38-8.62 12.76 0 21.37 8.63Q860-492.75 860-480q0 77.99-29.96 147.42t-81.58 121.04q-51.61 51.62-120.61 81.58Q558.86-100 479.88-100"></path></svg><svg fill="none" id="quote" viewBox="0 0 800 800"><path fill="#4B4B4B" d="M359.075 212.25 338.75 181C198.125 275.525 120 390.375 120 484.9c0 91.4 67.2 134.375 124.225 134.375 71.875 0 122.65-60.95 122.65-125 0-53.9-34.375-100-80.475-117.2-13.275-4.7-25.775-8.6-25.775-31.25 0-28.9 21.1-71.85 98.45-133.575m310.15 0L648.9 181c-139.075 94.525-218.75 209.375-218.75 303.9 0 91.4 68.75 134.375 125.775 134.375 72.65 0 124.225-60.95 124.225-125 0-53.9-35.15-100-82.825-117.2-13.275-4.7-25-8.6-25-31.25 0-28.9 21.875-71.875 96.875-133.6z"></path></svg><svg fill="#e8eaed" viewBox="0 -960 960 960" id="read"><path d="M260-319.23q49.69 0 96.69 11.27T450-272.61v-393.24q-42.15-27.46-91.23-41.19T260-720.77q-36 0-67.27 5.65-31.27 5.66-64.27 18.5-4.61 1.54-6.54 4.43-1.92 2.88-1.92 6.34v378.31q0 5.39 3.85 7.89 3.84 2.5 8.46.57 28.46-9.69 60.07-14.92 31.62-5.23 67.62-5.23m250 46.62q46.31-24.08 93.31-35.35T700-319.23q36 0 67.62 5.23 31.61 5.23 60.07 14.92 4.62 1.93 8.46-.57 3.85-2.5 3.85-7.89v-378.31q0-3.46-1.92-6.15-1.93-2.69-6.54-4.62-33-12.84-64.27-18.5-31.27-5.65-67.27-5.65-49.69 0-98.77 13.73T510-665.85zm-30 87.99q-48.38-35.69-104.38-55.15T260-259.23q-36.61 0-71.92 8.11Q152.77-243 120-227.23q-21.38 9.84-40.69-3.12T60-267.08v-434.3q0-12.93 6.66-24.27Q73.31-737 85.85-742q40.61-19.77 84.65-29.27t89.5-9.5q58.38 0 114.08 15.96 55.69 15.97 105.92 47.12 50.23-31.15 105.92-47.12 55.7-15.96 114.08-15.96 45.46 0 89.5 9.5T874.15-742q12.54 5 19.19 16.35 6.66 11.34 6.66 24.27v434.3q0 23.77-20.08 36.35-20.08 12.57-42.23 2.73-32.38-15.39-67.11-23.31T700-259.23q-59.62 0-115.62 19.46T480-184.62M285-496.69"></path></svg><svg fill="#e8eaed" viewBox="0 -960 960 960" id="remove"><path d="M220-450v-60h520v60z"></path></svg><svg fill="#e8eaed" viewBox="0 -960 960 960" id="rss"><path d="M200-120q-33 0-56.5-23.5T120-200t23.5-56.5T200-280t56.5 23.5T280-200t-23.5 56.5T200-120m480 0q0-117-44-218.5T516-516 338.5-636 120-680v-120q142 0 265 53t216 146 146 216 53 265zm-240 0q0-67-25-124.5T346-346t-101.5-69T120-440v-120q92 0 171.5 34.5T431-431t94.5 139.5T560-120z"></path></svg><svg fill="#e8eaed" viewBox="0 -960 960 960" id="send"><path d="M140-190v-580l688.46 290zm60-90 474-200-474-200v147.69L416.92-480 200-427.69zm0 0v-400z"></path></svg><svg fill="#e8eaed" viewBox="0 -960 960 960" id="share"><path d="M672.22-100q-44.91 0-76.26-31.41-31.34-31.41-31.34-76.28 0-6 4.15-29.16L284.31-404.31q-14.46 15-34.36 23.5t-42.64 8.5q-44.71 0-76.01-31.54T100-480t31.3-76.15 76.01-31.54q22.74 0 42.64 8.5t34.36 23.5l284.46-167.08q-2.38-7.38-3.27-14.46-.88-7.08-.88-15.08 0-44.87 31.43-76.28Q627.49-860 672.4-860t76.25 31.44Q780-797.13 780-752.22t-31.41 76.26q-31.41 31.34-76.28 31.34-22.85 0-42.5-8.69Q610.15-662 595.69-677L311.23-509.54q2.38 7.39 3.27 14.46.88 7.08.88 15.08t-.88 15.08q-.89 7.07-3.27 14.46L595.69-283q14.46-15 34.12-23.69 19.65-8.69 42.5-8.69 44.87 0 76.28 31.43Q780-252.51 780-207.6t-31.44 76.25Q717.13-100 672.22-100m.09-60q20.27 0 33.98-13.71T720-207.69t-13.71-33.98q-13.71-13.72-33.98-13.72t-33.98 13.72q-13.72 13.71-13.72 33.98t13.72 33.98Q652.04-160 672.31-160m-465-272.31q20.43 0 34.25-13.71 13.83-13.71 13.83-33.98t-13.83-33.98q-13.82-13.71-34.25-13.71-20.11 0-33.71 13.71T160-480t13.6 33.98 33.71 13.71m465-272.3q20.27 0 33.98-13.72Q720-732.04 720-752.31t-13.71-33.98T672.31-800t-33.98 13.71q-13.72 13.71-13.72 33.98t13.72 33.98q13.71 13.72 33.98 13.72m0-47.7"></path></svg><svg fill="#e8eaed" viewBox="0 -960 960 960" id="share_off"><path d="M672.31-160q20.27 0 33.98-13.71T720-207.69t-13.71-33.98q-13.71-13.72-33.98-13.72t-33.98 13.72q-13.72 13.71-13.72 33.98t13.72 33.98Q652.04-160 672.31-160m0-544.61q20.27 0 33.98-13.72Q720-732.04 720-752.31t-13.71-33.98T672.31-800t-33.98 13.71q-13.72 13.71-13.72 33.98t13.72 33.98q13.71 13.72 33.98 13.72M100-471.15V-480q0-44.61 31.3-76.15t76.01-31.54q22.74 0 42.64 8.5t34.36 23.5l284.46-167.08q-2.38-7.38-3.27-14.46-.88-7.08-.88-15.08 0-44.87 31.43-76.28Q627.49-860 672.4-860t76.25 31.44Q780-797.13 780-752.22t-31.41 76.26q-31.41 31.34-76.28 31.34-22.85 0-42.5-8.69Q610.15-662 595.69-677L308-507.85q-14.69-3.42-29.77-5.48-15.07-2.05-30.54-2.05-41.15 0-78.57 11.46-37.43 11.46-69.12 32.77M672.22-100q-44.91 0-76.26-31.41-31.34-31.41-31.34-76.28 0-6 4.15-29.16l-54.16-32.54q-2-18.61-5.68-35.94-3.68-17.34-10.31-34.28L595.69-283q14.46-15 34.12-23.69 19.65-8.69 42.5-8.69 44.87 0 76.28 31.43Q780-252.51 780-207.6t-31.44 76.25Q717.13-100 672.22-100M247.69-67.69q-74.92 0-127.46-52.54T67.69-247.69q0-74.93 52.54-127.46 52.54-52.54 127.46-52.54 74.93 0 127.46 52.54 52.54 52.53 52.54 127.46 0 74.92-52.54 127.46-52.53 52.54-127.46 52.54m0-155.08 70 70.62 25.54-24.93-70.61-70.61 70.61-70.62-24.92-24.92-70.62 70.61-70.61-70.61-24.93 24.92 70.62 70.62-70.62 70.61 24.93 24.93zm424.62-529.54"></path></svg><svg fill="#e8eaed" viewBox="0 -960 960 960" id="shopping_basket"><path d="M220.62-140q-19.62 0-35.35-11.42-15.73-11.43-20.73-30.66L63.77-543.54q-4-13.61 4.44-25.04Q76.65-580 91.62-580h197.85l166.07-245q5-6.38 10.81-9.5 5.8-3.11 13.42-3.11 7.61 0 13.42 3.31Q499-831 504-824.61L668.77-580H869q14.96 0 23.6 11.42 8.63 11.43 4.63 25.04L794.69-182.08q-5 19.23-20.73 30.66Q758.23-140 739-140zm-1.54-45.39h521.84q4.23 0 7.31-2.5t4.23-6.73l95.23-339.99H112.92l94.62 339.99q1.15 4.23 4.23 6.73t7.31 2.5m261.16-129.23q18.61 0 31.87-13.5 13.27-13.51 13.27-32.12t-13.5-31.87q-13.51-13.27-32.12-13.27t-31.87 13.5q-13.27 13.51-13.27 32.12t13.5 31.87q13.51 13.27 32.12 13.27M344.69-580h268.77L479.38-780zm135.93 220"></path></svg><svg fill="#e8eaed" viewBox="0 -960 960 960" id="sort"><path d="M140-260v-60h215v60zm0-190v-60h447.31v60zm0-190v-60h680v60z"></path></svg><svg fill="#e8eaed" viewBox="0 -960 960 960" id="sort_by_alpha"><path d="m92.31-288.46 149.23-383.08h63.69l148.46 383.08h-63.54l-34.76-95.23H190.61l-35.07 95.23zm116.92-147.08h125.54l-59.54-166.92H270zm347.23 147.08v-56.77l205.08-272H564.46v-54.31h265.08v56.77l-203.85 272h205.85v54.31zM369.23-763.85 480-874.61l110.77 110.76zM480-85.39 369.23-196.15h221.54z"></path></svg><svg preserveAspectRatio="xMidYMid meet" viewBox="0 0 100 100" style="background: none;" id="spinner"><g transform="rotate(0 50 50)"><rect x="48" y="13.5" rx="0" ry="0" width="4" height="23" fill="currentColor" style="opacity: 1;"></rect></g><g transform="rotate(30 50 50)"><rect x="48" y="13.5" rx="0" ry="0" width="4" height="23" fill="currentColor" style="opacity: 0.85%;"></rect></g><g transform="rotate(60 50 50)"><rect x="48" y="13.5" rx="0" ry="0" width="4" height="23" fill="currentColor" style="opacity: 0.17;"></rect></g><g transform="rotate(90 50 50)"><rect x="48" y="13.5" rx="0" ry="0" width="4" height="23" fill="currentColor" style="opacity: 0.255;"></rect></g><g transform="rotate(120 50 50)"><rect x="48" y="13.5" rx="0" ry="0" width="4" height="23" fill="currentColor" style="opacity: 0.34;"></rect></g><g transform="rotate(150 50 50)"><rect x="48" y="13.5" rx="0" ry="0" width="4" height="23" fill="currentColor" style="opacity: 0.425;"></rect></g><g transform="rotate(180 50 50)"><rect x="48" y="13.5" rx="0" ry="0" width="4" height="23" fill="currentColor" style="opacity: 0.5;"></rect></g><g transform="rotate(210 50 50)"><rect x="48" y="13.5" rx="0" ry="0" width="4" height="23" fill="currentColor" style="opacity: 0.585;"></rect></g><g transform="rotate(240 50 50)"><rect x="48" y="13.5" rx="0" ry="0" width="4" height="23" fill="currentColor" style="opacity: 0.67;"></rect></g><g transform="rotate(270 50 50)"><rect x="48" y="13.5" rx="0" ry="0" width="4" height="23" fill="currentColor" style="opacity: 0.755;"></rect></g><g transform="rotate(300 50 50)"><rect x="48" y="13.5" rx="0" ry="0" width="4" height="23" fill="currentColor" style="opacity: 0.84;"></rect></g><g transform="rotate(330 50 50)"><rect x="48" y="13.5" rx="0" ry="0" width="4" height="23" fill="currentColor" style="opacity: 0.925;"></rect></g></svg><svg fill="none" id="tg" viewBox="0 0 24 24"><path fill="#fff" d="M17.197 6.704 5.712 11.093c-.467.186-.524.748-.048.909l2.909 1.016 6.822-4.266a.13.13 0 0 1 .165.033.13.13 0 0 1-.011.167l-5.368 4.775-.362 2.824a.21.21 0 0 0 .116.215.21.21 0 0 0 .243-.04l1.712-1.677 2.874 2.21a.675.675 0 0 0 .95-.4l2.053-9.7a.4.4 0 0 0-.142-.403.41.41 0 0 0-.428-.052"></path></svg><svg fill="#e8eaed" viewBox="0 -960 960 960" id="thumb_up"><path d="M709.23-140H288.46v-480l265.39-263.84L587.69-850q6.23 6.23 10.35 16.5 4.11 10.27 4.11 19.35V-804l-42.46 184h268q28.54 0 50.42 21.89Q900-576.23 900-547.69v64.61q0 6.23-1.62 13.46-1.61 7.23-3.61 13.47L780.15-185.69q-8.61 19.23-28.84 32.46T709.23-140m-360.77-60h360.77q4.23 0 8.65-2.31 4.43-2.31 6.74-7.69L840-480v-67.69q0-5.39-3.46-8.85t-8.85-3.46H483.85L534-779.23 348.46-594.46zm0-394.46V-200zm-60-25.54v60H160v360h128.46v60H100v-480z"></path></svg><svg fill="#e8eaed" viewBox="0 -960 960 960" id="tune"><path d="M450-130v-220h60v80h320v60H510v80zm-320-80v-60h220v60zm160-160v-80H130v-60h160v-80h60v220zm160-80v-60h380v60zm160-160v-220h60v80h160v60H670v80zm-480-80v-60h380v60z"></path></svg><svg fill="#e3e3e3" viewBox="0 -960 960 960" id="upload"><path d="M450-328.46v-336l-98.61 98.61-42.16-43.38L480-780l170.77 170.77-42.16 43.38L510-664.46v336zM252.31-180Q222-180 201-201t-21-51.31v-108.46h60v108.46q0 4.62 3.85 8.46 3.84 3.85 8.46 3.85h455.38q4.62 0 8.46-3.85 3.85-3.84 3.85-8.46v-108.46h60v108.46Q780-222 759-201t-51.31 21z"></path></svg><svg fill="#e8eaed" viewBox="0 -960 960 960" id="view_grid"><path d="M140-520v-300h300v300zm0 380v-300h300v300zm380-380v-300h300v300zm0 380v-300h300v300zM200-580h180v-180H200zm380 0h180v-180H580zm0 380h180v-180H580zm-380 0h180v-180H200zm180-380"></path></svg><svg fill="#e8eaed" viewBox="0 -960 960 960" id="view_list"><path d="M350-240h437.69q4.62 0 8.46-3.85 3.85-3.84 3.85-8.46V-357H350zM160-603h130v-117H172.31q-4.62 0-8.46 3.85-3.85 3.84-3.85 8.46zm0 187h130v-127H160zm12.31 176H290v-117H160v104.69q0 4.62 3.85 8.46 3.84 3.85 8.46 3.85M350-416h450v-127H350zm0-187h450v-104.69q0-4.62-3.85-8.46-3.84-3.85-8.46-3.85H350zM172.31-180Q142-180 121-201t-21-51.31v-455.38Q100-738 121-759t51.31-21h615.38Q818-780 839-759t21 51.31v455.38Q860-222 839-201t-51.31 21z"></path></svg><svg fill="none" id="vk" viewBox="0 0 24 24"><path fill="#fff" d="M5.563 8.435H7.77a.225.225 0 0 1 .213.149c.244.639 1.259 3.138 2.187 3.342.69 0 .446-3.325-.43-3.325-.23 0 .407-.414.45-.431a4.64 4.64 0 0 1 2.49 0c.44.187.514.709.526 1.152.011.443-.489 2.333.17 2.537.862.268 1.971-2.476 2.23-3.15a.23.23 0 0 1 .212-.145h2.458a.23.23 0 0 1 .192.103.24.24 0 0 1 .02.22 22 22 0 0 1-1.813 3.36.47.47 0 0 0 .046.583c.736.799 2.748 3.062 1.598 3.062h-2.48a.45.45 0 0 1-.34-.155c-.385-.431-1.506-1.633-2.012-1.537-.42.08-.46.802-.44 1.275a.47.47 0 0 1-.114.333.46.46 0 0 1-.31.156c-.44.027-1.041.039-1.096.036-1.753-.114-2.79-1.301-3.783-2.625a16.5 16.5 0 0 1-2.4-4.63.24.24 0 0 1 .114-.283.23.23 0 0 1 .105-.027"></path></svg><svg fill="#e8eaed" viewBox="0 -960 960 960" id="warning"><path d="M74.62-140 480-840l405.38 700zM178-200h604L480-720zm302-47.69q13.73 0 23.02-9.29t9.29-23.02-9.29-23.02-23.02-9.29-23.02 9.29-9.29 23.02 9.29 23.02 23.02 9.29m-30-104.62h60v-200h-60zM480-460"></path></svg></svg>