<svg xmlns="http://www.w3.org/2000/svg"><style>:root svg:not(:target){display:none}</style><svg fill="#e8eaed" viewBox="0 -960 960 960" id="123"><path d="M227.69-366.15v-180h-60v-47.7h107.69v227.7zm137.7 0v-96.16q0-15.04 10.17-25.21t25.21-10.17h85.38v-48.46H365.39v-47.7h133.07q15.04 0 25.21 10.18 10.18 10.17 10.18 25.21v60.77q0 15.04-10.18 25.21-10.17 10.17-25.21 10.17h-85.38v48.46h120.77v47.7zm238.46 0v-47.7h120.77v-48.46h-80.77v-35.38h80.77v-48.46H603.85v-47.7h133.07q15.04 0 25.21 10.18 10.18 10.17 10.18 25.21v156.92q0 15.04-10.18 25.21-10.17 10.18-25.21 10.18z"></path></svg><svg fill="#e8eaed" viewBox="0 -960 960 960" id="abc"><path d="M680.77-366.15q-15.04 0-25.21-10.18-10.17-10.17-10.17-25.21v-156.92q0-15.04 10.17-25.21 10.17-10.18 25.21-10.18h116.92q15.04 0 25.21 10.18 10.18 10.17 10.18 25.21V-520h-47.69v-26.15h-92.31v132.3h92.31V-440h47.69v38.46q0 15.04-10.18 25.21-10.17 10.18-25.21 10.18zm-294.62 0v-227.7h152.31q15.04 0 25.21 10.18 10.18 10.17 10.18 25.21v44.61q0 14.31-8.43 23.5-8.42 9.2-23.11 10.35 14.69 1.15 23.11 10.35 8.43 9.19 8.43 23.5v44.61q0 15.04-10.18 25.21-10.17 10.18-25.21 10.18zm47.7-137.7h92.3v-42.3h-92.3zm0 90h92.3v-42.3h-92.3zm-306.93 47.7v-192.31q0-15.04 10.18-25.21 10.17-10.18 25.21-10.18h116.92q15.04 0 25.21 10.18 10.17 10.17 10.17 25.21v192.31h-47.69V-430h-92.31v63.85zm47.69-111.54h92.31v-68.46h-92.31z"></path></svg><svg fill="#e8eaed" viewBox="0 -960 960 960" id="add"><path d="M450-450H220v-60h230v-230h60v230h230v60H510v230h-60z"></path></svg><svg fill="#e8eaed" viewBox="0 -960 960 960" id="add_box"><path d="M450-290h60v-160h160v-60H510v-160h-60v160H290v60h160zM212.31-140Q182-140 161-161t-21-51.31v-535.38Q140-778 161-799t51.31-21h535.38Q778-820 799-799t21 51.31v535.38Q820-182 799-161t-51.31 21zm0-60h535.38q4.62 0 8.46-3.85 3.85-3.84 3.85-8.46v-535.38q0-4.62-3.85-8.46-3.84-3.85-8.46-3.85H212.31q-4.62 0-8.46 3.85-3.85 3.84-3.85 8.46v535.38q0 4.62 3.85 8.46 3.84 3.85 8.46 3.85M200-760v560z"></path></svg><svg fill="#e8eaed" viewBox="0 -960 960 960" id="add_circle"><path d="M450-290h60v-160h160v-60H510v-160h-60v160H290v60h160zm30.07 190q-78.84 0-148.21-29.92t-120.68-81.21-81.25-120.63Q100-401.1 100-479.93q0-78.84 29.92-148.21t81.21-120.68 120.63-81.25Q401.1-860 479.93-860q78.84 0 148.21 29.92t120.68 81.21 81.25 120.63Q860-558.9 860-480.07q0 78.84-29.92 148.21t-81.21 120.68-120.63 81.25Q558.9-100 480.07-100m-.07-60q134 0 227-93t93-227-93-227-227-93-227 93-93 227 93 227 227 93m0-320"></path></svg><svg fill="#e8eaed" viewBox="0 -960 960 960" id="arrow_backward"><path d="M398.08-253.85 171.92-480l226.16-226.15 42.15 43.38L287.46-510h500.62v60H287.46l152.77 152.77z"></path></svg><svg fill="#e3e3e3" viewBox="0 -960 960 960" id="arrow_downward"><path d="M440-800v487L216-537l-56 57 320 320 320-320-56-57-224 224v-487z"></path></svg><svg fill="#e8eaed" viewBox="0 -960 960 960" id="arrow_forward"><path d="m553.85-253.85-42.16-43.38L664.46-450H180v-60h484.46L511.69-662.77l42.16-43.38L780-480z"></path></svg><svg fill="#e3e3e3" viewBox="0 -960 960 960" id="arrow_upward"><path d="M440-160v-487L216-423l-56-57 320-320 320 320-56 57-224-224v487z"></path></svg><svg fill="#e8eaed" viewBox="0 -960 960 960" id="block"><path d="M480.07-100q-78.84 0-148.21-29.92t-120.68-81.21-81.25-120.63Q100-401.1 100-479.93q0-78.84 29.92-148.21t81.21-120.68 120.63-81.25Q401.1-860 479.93-860q78.84 0 148.21 29.92t120.68 81.21 81.25 120.63Q860-558.9 860-480.07q0 78.84-29.92 148.21t-81.21 120.68-120.63 81.25Q558.9-100 480.07-100m-.07-60q56.29 0 108.42-19.04 52.12-19.04 95.27-55.11L234.15-683.69q-35.69 43.15-54.92 95.27Q160-536.29 160-480q0 134 93 227t227 93m245.85-116.31q36.07-43.15 55.11-95.27Q800-423.71 800-480q0-134-93-227t-227-93q-56.43 0-108.68 18.85-52.24 18.84-95.01 55.3z"></path></svg><svg viewBox="0 -960 960 960" fill="#e3e3e3" id="book"><path d="M302.31-100q-50.69 0-86.5-35.81T180-222.31V-730q0-54.15 37.92-92.08Q255.85-860 310-860h470v575.38q-25.77 0-44.04 18.27t-18.27 44.04q0 25.77 18.27 44.04T780-160v60H302.31ZM240-326.23q13.62-9.31 29.19-13.85 15.58-4.53 33.12-4.53h25.38V-800H310q-28.85 0-49.42 20.58Q240-758.85 240-730v403.77Zm147.69-18.38H720V-800H387.69v455.39ZM240-326.23v-466.08 466.08ZM302.31-160h373.77q-8.7-13.62-13.54-28.88-4.85-15.27-4.85-33.43 0-17.15 4.54-32.92 4.54-15.77 13.85-29.39H302.31q-26.77 0-44.54 18.27T240-222.31q0 26.77 17.77 44.54T302.31-160Z"></path></svg><svg fill="#e8eaed" viewBox="0 -960 960 960" id="bookmark-thin"><path d="M220-150v-616.15q0-23.23 17.08-40.46t40.61-17.23h404.62q23.53 0 40.61 17.23T740-766.15V-150L480-261.54zm45.39-69.46L480-310.54l214.61 91.08v-546.69q0-4.62-3.84-8.46-3.85-3.85-8.46-3.85H277.69q-4.61 0-8.46 3.85-3.84 3.84-3.84 8.46zm0-559h429.22z"></path></svg><svg fill="#e8eaed" viewBox="0 -960 960 960" id="bookmark"><path d="M220-150v-597.69Q220-778 241-799t51.31-21h375.38Q698-820 719-799t21 51.31V-150L480-261.54zm60-92 200-86 200 86v-505.69q0-4.62-3.85-8.46-3.84-3.85-8.46-3.85H292.31q-4.62 0-8.46 3.85-3.85 3.84-3.85 8.46zm0-518h400z"></path></svg><svg viewBox="0 0 24 24" fill="none" id="books"><path d="M9.52293 6.38818H20.6626V21.229H10.6288H9.69906C9.18838 21.229 8.77441 20.8258 8.77441 20.3283V7.11734C8.77441 6.71465 9.10954 6.38818 9.52293 6.38818Z" stroke="#E8EAED" stroke-width="1.5"></path><path d="M8.84473 20.0212C8.84473 19.6224 8.90563 19.0239 10.4594 19.0239C11.2986 19.0239 17.5309 19.0577 20.7946 19.0577" stroke="#E8EAED" stroke-width="1.5"></path><path d="M10.8594 6.375V18.9778" stroke="#E8EAED" stroke-width="1.5"></path><path d="M14.708 6.21875V2.625H4.49291C4.00657 2.625 3.6123 3.00907 3.6123 3.48284V15.8358C3.6123 16.4044 4.08542 16.8652 4.66903 16.8652H5.29821H8.3583" stroke="#E8EAED" stroke-width="1.5"></path><path d="M3.6123 16.0073C3.6123 15.4583 3.6123 14.6348 5.23792 14.6348C6.03592 14.6348 5.41634 14.6348 8.51959 14.6348" stroke="#E8EAED" stroke-width="1.5"></path><path d="M5.72656 2.79639V14.8062" stroke="#E8EAED" stroke-width="1.5"></path></svg><svg fill="#e8eaed" viewBox="0 -960 960 960" id="cached"><path d="M482-170q-129.77 0-220.88-90.31Q170-350.62 170-480v-31.23l-74 74-42.15-42.15L200-625.54l146.15 146.16L304-437.23l-74-74V-480q0 104.23 73.38 177.12Q376.77-230 482-230q24.85 0 49.65-5.42 24.81-5.43 48.43-16.27l45 45q-33.77 18.15-69.73 27.42Q519.38-170 482-170m278-164.46L613.85-480.62 656-522.77l74 74V-480q0-104.23-73.38-177.12Q583.23-730 478-730q-24.85 0-49.65 5.42-24.81 5.43-48.43 16.27l-45-45q33.77-18.15 69.73-27.42Q440.62-790 478-790q129.77 0 220.88 90.31Q790-609.38 790-480v31.23l74-74 42.15 42.15z"></path></svg><svg fill="#e8eaed" viewBox="0 -960 960 960" id="calendar"><path d="M212.31-100Q182-100 161-121t-21-51.31v-535.38Q140-738 161-759t51.31-21h55.38v-84.61h61.54V-780h303.08v-84.61h60V-780h55.38Q778-780 799-759t21 51.31v535.38Q820-142 799-121t-51.31 21zm0-60h535.38q4.62 0 8.46-3.85 3.85-3.84 3.85-8.46v-375.38H200v375.38q0 4.62 3.85 8.46 3.84 3.85 8.46 3.85M200-607.69h560v-100q0-4.62-3.85-8.46-3.84-3.85-8.46-3.85H212.31q-4.62 0-8.46 3.85-3.85 3.84-3.85 8.46zm0 0V-720zm280 210.77q-14.69 0-25.04-10.35-10.34-10.34-10.34-25.04 0-14.69 10.34-25.04 10.35-10.34 25.04-10.34t25.04 10.34q10.34 10.35 10.34 25.04 0 14.7-10.34 25.04-10.35 10.35-25.04 10.35m-160 0q-14.69 0-25.04-10.35-10.34-10.34-10.34-25.04 0-14.69 10.34-25.04 10.35-10.34 25.04-10.34t25.04 10.34q10.34 10.35 10.34 25.04 0 14.7-10.34 25.04-10.35 10.35-25.04 10.35m320 0q-14.69 0-25.04-10.35-10.34-10.34-10.34-25.04 0-14.69 10.34-25.04 10.35-10.34 25.04-10.34t25.04 10.34q10.34 10.35 10.34 25.04 0 14.7-10.34 25.04-10.35 10.35-25.04 10.35M480-240q-14.69 0-25.04-10.35-10.34-10.34-10.34-25.03 0-14.7 10.34-25.04 10.35-10.35 25.04-10.35t25.04 10.35q10.34 10.34 10.34 25.04 0 14.69-10.34 25.03Q494.69-240 480-240m-160 0q-14.69 0-25.04-10.35-10.34-10.34-10.34-25.03 0-14.7 10.34-25.04 10.35-10.35 25.04-10.35t25.04 10.35q10.34 10.34 10.34 25.04 0 14.69-10.34 25.03Q334.69-240 320-240m320 0q-14.69 0-25.04-10.35-10.34-10.34-10.34-25.03 0-14.7 10.34-25.04 10.35-10.35 25.04-10.35t25.04 10.35q10.34 10.34 10.34 25.04 0 14.69-10.34 25.03Q654.69-240 640-240"></path></svg><svg fill="#e8eaed" viewBox="0 -960 960 960" id="cancel"><path d="m336-293.85 144-144 144 144L666.15-336l-144-144 144-144L624-666.15l-144 144-144-144L293.85-624l144 144-144 144zM480.07-100q-78.84 0-148.21-29.92t-120.68-81.21-81.25-120.63Q100-401.1 100-479.93q0-78.84 29.92-148.21t81.21-120.68 120.63-81.25Q401.1-860 479.93-860q78.84 0 148.21 29.92t120.68 81.21 81.25 120.63Q860-558.9 860-480.07q0 78.84-29.92 148.21t-81.21 120.68-120.63 81.25Q558.9-100 480.07-100m-.07-60q134 0 227-93t93-227-93-227-227-93-227 93-93 227 93 227 227 93m0-320"></path></svg><svg fill="none" id="cart" viewBox="0 0 24 24"><mask id="cart_0" fill="#fff"><path d="M1.5 5.046a.51.51 0 0 1-.5-.523c0-.29.224-.523.5-.523h3.093c.232 0 .428.165.484.39l.551 1.64H21.5c.276 0 .5.235.5.524a.6.6 0 0 1-.033.188l-1.192 3.962-.018.062-.77 2.554a.5.5 0 0 1-.417.363l-6.098.76-.05.006-5.347.666-1.05.334v1.686h12.063c.276 0 .5.234.5.523s-.224.523-.5.523h-1.482c.131.265.206.567.206.886 0 .534-.207 1.018-.542 1.367-.334.35-.796.566-1.306.566a1.8 1.8 0 0 1-1.306-.566 1.97 1.97 0 0 1-.54-1.367c0-.32.073-.62.205-.886H11a2 2 0 0 1-.336 2.253c-.334.35-.796.566-1.306.566a1.8 1.8 0 0 1-1.306-.566 1.97 1.97 0 0 1-.541-1.367c0-.32.074-.62.205-.886h-1.19a.51.51 0 0 1-.5-.523v-2.595h.002a.52.52 0 0 1 .354-.499l.957-.303-1.167-3.47a1 1 0 0 1-.027-.08L4.806 6.726v-.003L4.24 5.046zM16.564 18.44a.825.825 0 0 0-1.199 0 .9.9 0 0 0-.248.627c0 .245.095.467.249.627.153.16.365.26.599.26s.446-.1.6-.26a.9.9 0 0 0 .248-.627.9.9 0 0 0-.249-.627m-6.607 0a.825.825 0 0 0-1.199 0 .9.9 0 0 0-.247.627c0 .245.094.467.248.627.153.16.365.26.6.26.233 0 .446-.1.598-.26a.9.9 0 0 0 .249-.627.9.9 0 0 0-.249-.627m-2.976-8.387h2.317l-.29-2.977H5.98zm3.319 0h2.588V7.077h-2.879zm3.587 0h2.589l.29-2.977h-2.878zm3.59 0h2.447l.895-2.977h-3.05zM19.61 11.1h-2.233l-.178 1.827 1.934-.241zm-3.236 0h-2.486v2.239l2.296-.286zm-3.485 0h-2.486l.258 2.64 2.228-.277zm-3.488 0H7.333l.985 2.932 1.352-.168z"></path></mask><path fill="#5F6368" stroke="#5F6368" stroke-width="2" d="M1.5 5.046a.51.51 0 0 1-.5-.523c0-.29.224-.523.5-.523h3.093c.232 0 .428.165.484.39l.551 1.64H21.5c.276 0 .5.235.5.524a.6.6 0 0 1-.033.188l-1.192 3.962-.018.062-.77 2.554a.5.5 0 0 1-.417.363l-6.098.76-.05.006-5.347.666-1.05.334v1.686h12.063c.276 0 .5.234.5.523s-.224.523-.5.523h-1.482c.131.265.206.567.206.886 0 .534-.207 1.018-.542 1.367-.334.35-.796.566-1.306.566a1.8 1.8 0 0 1-1.306-.566 1.97 1.97 0 0 1-.54-1.367c0-.32.073-.62.205-.886H11a2 2 0 0 1-.336 2.253c-.334.35-.796.566-1.306.566a1.8 1.8 0 0 1-1.306-.566 1.97 1.97 0 0 1-.541-1.367c0-.32.074-.62.205-.886h-1.19a.51.51 0 0 1-.5-.523v-2.595h.002a.52.52 0 0 1 .354-.499l.957-.303-1.167-3.47a1 1 0 0 1-.027-.08L4.806 6.726v-.003L4.24 5.046H1.5ZM16.564 18.44a.825.825 0 0 0-1.199 0 .9.9 0 0 0-.248.627c0 .245.095.467.249.627.153.16.365.26.599.26s.446-.1.6-.26a.9.9 0 0 0 .248-.627.9.9 0 0 0-.249-.627Zm-6.607 0a.825.825 0 0 0-1.199 0 .9.9 0 0 0-.247.627c0 .245.094.467.248.627.153.16.365.26.6.26.233 0 .446-.1.598-.26a.9.9 0 0 0 .249-.627.9.9 0 0 0-.249-.627Zm-2.976-8.387h2.317l-.29-2.977H5.98zm3.319 0h2.588V7.077h-2.879zm3.587 0h2.589l.29-2.977h-2.878zm3.59 0h2.447l.895-2.977h-3.05zM19.61 11.1h-2.233l-.178 1.827 1.934-.241.477-1.586Zm-3.236 0h-2.486v2.239l2.296-.286.19-1.953Zm-3.485 0h-2.486l.258 2.64 2.228-.277zm-3.488 0H7.333l.985 2.932 1.352-.168z" mask="url(#cart_0)"></path></svg><svg fill="#e8eaed" viewBox="0 -960 960 960" id="check"><path d="M382-253.85 168.62-467.23 211.38-510 382-339.38 748.62-706l42.76 42.77z"></path></svg><svg viewBox="0 -960 960 960" fill="#e3e3e3" id="checkbook"><path d="M250-370h305.77l60-60H250v60Zm0-160h220v-60H250v60Zm-90-150v400h305.77l-60 60H100v-520h760v125.77h-60V-680H160Zm729.07 205.08q4.62 4.61 4.62 10.23 0 5.61-4.62 10.23l-33.69 33.69-50.77-50.77 33.7-33.69q4.61-4.62 10.23-4.62 5.61 0 10.23 4.62l30.3 30.31ZM526.15-141.54v-50.77l255.23-255.23 50.77 50.77-255.23 255.23h-50.77ZM160-680v400-400Z"></path></svg><svg fill="#e8eaed" viewBox="0 -960 960 960" id="check_circle"><path d="m423.23-309.85 268.92-268.92L650-620.92 423.23-394.15l-114-114L267.08-466zM480.07-100q-78.84 0-148.21-29.92t-120.68-81.21-81.25-120.63Q100-401.1 100-479.93q0-78.84 29.92-148.21t81.21-120.68 120.63-81.25Q401.1-860 479.93-860q78.84 0 148.21 29.92t120.68 81.21 81.25 120.63Q860-558.9 860-480.07q0 78.84-29.92 148.21t-81.21 120.68-120.63 81.25Q558.9-100 480.07-100m-.07-60q134 0 227-93t93-227-93-227-227-93-227 93-93 227 93 227 227 93m0-320"></path></svg><svg fill="#e8eaed" viewBox="0 -960 960 960" id="chevron_down"><path d="M480-357.85 253.85-584 296-626.15l184 184 184-184L706.15-584z"></path></svg><svg fill="#e8eaed" viewBox="0 -960 960 960" id="chevron_left"><path d="M560-253.85 333.85-480 560-706.15 602.15-664l-184 184 184 184z"></path></svg><svg fill="#e8eaed" viewBox="0 -960 960 960" id="chevron_left_big"><path d="M640-93.85 253.85-480 640-866.15l56.77 56.77L367.38-480l329.39 329.38z"></path></svg><svg fill="#e8eaed" viewBox="0 -960 960 960" id="chevron_right"><path d="m517.85-480-184-184L376-706.15 602.15-480 376-253.85 333.85-296z"></path></svg><svg fill="#e8eaed" viewBox="0 -960 960 960" id="clock"><path d="m618.92-298.92 42.16-42.16L510-492.16V-680h-60v212.15zM480.07-100q-78.84 0-148.21-29.92t-120.68-81.21-81.25-120.63Q100-401.1 100-479.93q0-78.84 29.92-148.21t81.21-120.68 120.63-81.25Q401.1-860 479.93-860q78.84 0 148.21 29.92t120.68 81.21 81.25 120.63Q860-558.9 860-480.07q0 78.84-29.92 148.21t-81.21 120.68-120.63 81.25Q558.9-100 480.07-100m-.07-60q133 0 226.5-93.5T800-480t-93.5-226.5T480-800t-226.5 93.5T160-480t93.5 226.5T480-160"></path></svg><svg fill="#e8eaed" viewBox="0 -960 960 960" id="close"><path d="M256-213.85 213.85-256l224-224-224-224L256-746.15l224 224 224-224L746.15-704l-224 224 224 224L704-213.85l-224-224z"></path></svg><svg fill="#e8eaed" viewBox="0 -960 960 960" id="collapse"><path d="M440-440v220h-60v-160H220v-60zm140-300v160h160v60H520v-220z"></path></svg><svg fill="#e8eaed" viewBox="0 -960 960 960" id="collapse_all"><path d="M296-93.85 253.85-136 480-362.15 706.15-136 664-93.85l-184-184zm184-504L253.85-824 296-866.15l184 184 184-184L706.15-824z"></path></svg><svg fill="#e3e3e3" viewBox="0 -960 960 960" id="comment"><path d="M250-410h460v-60H250zm0-120h460v-60H250zm0-120h460v-60H250zm610 531.54L718.46-260H172.31Q142-260 121-281t-21-51.31v-455.38Q100-818 121-839t51.31-21h615.38Q818-860 839-839t21 51.31zM172.31-320H744l56 55.39v-523.08q0-4.62-3.85-8.46-3.84-3.85-8.46-3.85H172.31q-4.62 0-8.46 3.85-3.85 3.84-3.85 8.46v455.38q0 4.62 3.85 8.46 3.84 3.85 8.46 3.85M160-320v-480z"></path></svg><svg fill="#e8eaed" viewBox="0 -960 960 960" id="copy"><path d="M362.31-260Q332-260 311-281t-21-51.31v-455.38Q290-818 311-839t51.31-21h335.38Q728-860 749-839t21 51.31v455.38Q770-302 749-281t-51.31 21zm0-60h335.38q4.62 0 8.46-3.85 3.85-3.84 3.85-8.46v-455.38q0-4.62-3.85-8.46-3.84-3.85-8.46-3.85H362.31q-4.62 0-8.46 3.85-3.85 3.84-3.85 8.46v455.38q0 4.62 3.85 8.46 3.84 3.85 8.46 3.85m-140 200Q192-120 171-141t-21-51.31v-515.38h60v515.38q0 4.62 3.85 8.46 3.84 3.85 8.46 3.85h395.38v60zM350-320v-480z"></path></svg><svg fill="#e8eaed" viewBox="0 -960 960 960" id="delete"><path d="M292.31-140q-29.92 0-51.12-21.19Q220-182.39 220-212.31V-720h-40v-60h180v-35.38h240V-780h180v60h-40v507.69Q740-182 719-161t-51.31 21zM680-720H280v507.69q0 5.39 3.46 8.85t8.85 3.46h375.38q4.62 0 8.46-3.85 3.85-3.84 3.85-8.46zM376.16-280h59.99v-360h-59.99zm147.69 0h59.99v-360h-59.99zM280-720v520z"></path></svg><svg fill="#e8eaed" viewBox="0 -960 960 960" id="description"><path d="M330-250h300v-60H330zm0-160h300v-60H330zm-77.69 310Q222-100 201-121t-21-51.31v-615.38Q180-818 201-839t51.31-21H570l210 210v477.69Q780-142 759-121t-51.31 21zM540-620v-180H252.31q-4.62 0-8.46 3.85-3.85 3.84-3.85 8.46v615.38q0 4.62 3.85 8.46 3.84 3.85 8.46 3.85h455.38q4.62 0 8.46-3.85 3.85-3.84 3.85-8.46V-620zM240-800v180zv640z"></path></svg><svg fill="none" id="double_arrow" viewBox="0 0 24 24"><path fill="#E8EAED" d="M12.875 6.346 18.529 12l-5.654 5.654-1.054-1.054 4.585-4.6-4.585-4.6zm-6.35 0L12.179 12l-5.654 5.654L5.471 16.6l4.585-4.6L5.47 7.4z"></path></svg><svg fill="#e8eaed" viewBox="0 -960 960 960" id="double_arrow_backward"><path d="M445-253.85 218.85-480 445-706.15 487.15-664 303.77-480l183.38 184zm254 0L472.85-480 699-706.15 741.15-664 557.77-480l183.38 184z"></path></svg><svg fill="#e8eaed" viewBox="0 -960 960 960" id="download"><path d="M480-328.46 309.23-499.23l42.16-43.38L450-444v-336h60v336l98.61-98.61 42.16 43.38zM252.31-180Q222-180 201-201t-21-51.31v-108.46h60v108.46q0 4.62 3.85 8.46 3.84 3.85 8.46 3.85h455.38q4.62 0 8.46-3.85 3.85-3.84 3.85-8.46v-108.46h60v108.46Q780-222 759-201t-51.31 21z"></path></svg><svg viewBox="0 0 24 24" fill="none" id="download_check"><path d="M12 15.7885L7.73075 11.5192L8.78475 10.4348L11.25 12.9V4.5H12.75V12.9L15.2152 10.4348L16.2693 11.5192L12 15.7885ZM6.30775 19.5C5.80258 19.5 5.375 19.325 5.025 18.975C4.675 18.625 4.5 18.1974 4.5 17.6923V14.9808H6V17.6923C6 17.7693 6.03208 17.8398 6.09625 17.9038C6.16025 17.9679 6.23075 18 6.30775 18H17.6923C17.7693 18 17.8398 17.9679 17.9038 17.9038C17.9679 17.8398 18 17.7693 18 17.6923V14.9808H19.5V17.6923C19.5 18.1974 19.325 18.625 18.975 18.975C18.625 19.325 18.1974 19.5 17.6923 19.5H6.30775Z" fill="#E3E3E3"></path><g clip-path="url(#download_check_0)"><path d="M18.0864 6.74076L20.0473 4.77988L19.7399 4.47254L18.0864 6.12607L17.2551 5.29482L16.9478 5.60216L18.0864 6.74076ZM18.5008 8.27091C18.1176 8.27091 17.7574 8.19819 17.4201 8.05275C17.0829 7.9073 16.7896 7.70992 16.5402 7.46059C16.2908 7.21127 16.0933 6.91807 15.9477 6.581C15.8022 6.24393 15.7295 5.88379 15.7295 5.50059C15.7295 5.11734 15.8022 4.75711 15.9477 4.41989C16.0931 4.08268 16.2905 3.78936 16.5398 3.53994C16.7891 3.29051 17.0823 3.09303 17.4194 2.94749C17.7565 2.80199 18.1166 2.72925 18.4998 2.72925C18.8831 2.72925 19.2433 2.80197 19.5805 2.94741C19.9177 3.09286 20.211 3.29024 20.4605 3.53957C20.7099 3.7889 20.9074 4.0821 21.0529 4.41916C21.1984 4.75623 21.2712 5.11637 21.2712 5.49957C21.2712 5.88282 21.1984 6.24305 21.053 6.58027C20.9075 6.91748 20.7102 7.2108 20.4608 7.46023C20.2115 7.70965 19.9183 7.90713 19.5812 8.05267C19.2442 8.19817 18.884 8.27091 18.5008 8.27091Z" fill="#E3E3E3"></path></g><defs><clipPath id="download_check_0"><rect width="7" height="7" fill="white" transform="translate(15 2)"></rect></clipPath></defs></svg><svg viewBox="0 -960 960 960" fill="#e3e3e3" id="download_for_offline"><path d="M290-290h380v-60H290v60Zm190-123.85L626.15-560 584-602.15l-74 72.77V-710h-60v180.62l-74-72.77L333.85-560 480-413.85Zm.07 313.85q-78.84 0-148.21-29.92t-120.68-81.21q-51.31-51.29-81.25-120.63Q100-401.1 100-479.93q0-78.84 29.92-148.21t81.21-120.68q51.29-51.31 120.63-81.25Q401.1-860 479.93-860q78.84 0 148.21 29.92t120.68 81.21q51.31 51.29 81.25 120.63Q860-558.9 860-480.07q0 78.84-29.92 148.21t-81.21 120.68q-51.29 51.31-120.63 81.25Q558.9-100 480.07-100Zm-.07-60q134 0 227-93t93-227q0-134-93-227t-227-93q-134 0-227 93t-93 227q0 134 93 227t227 93Zm0-320Z"></path></svg><svg fill="#e8eaed" viewBox="0 -960 960 960" id="drag_handle"><path d="M180-370v-60h600v60zm0-160v-60h600v60z"></path></svg><svg fill="#e8eaed" viewBox="0 -960 960 960" id="edit"><path d="M200-200h50.46l409.46-409.46-50.46-50.46L200-250.46zm-60 60v-135.38l527.62-527.39q9.07-8.24 20.03-12.73 10.97-4.5 23-4.5t23.3 4.27q11.28 4.27 19.97 13.58l48.85 49.46q9.31 8.69 13.27 20t3.96 22.62q0 12.07-4.12 23.03-4.12 10.97-13.11 20.04L275.38-140zm620.38-570.15-50.23-50.23zm-126.13 75.9-24.79-25.67 50.46 50.46z"></path></svg><svg fill="#e8eaed" viewBox="0 -960 960 960" id="error"><path d="M480-290.77q13.73 0 23.02-9.29t9.29-23.02-9.29-23.02q-9.29-9.28-23.02-9.28t-23.02 9.28q-9.29 9.29-9.29 23.02t9.29 23.02 23.02 9.29m-30-146.15h60v-240h-60zM480.07-100q-78.84 0-148.21-29.92t-120.68-81.21-81.25-120.63Q100-401.1 100-479.93q0-78.84 29.92-148.21t81.21-120.68 120.63-81.25Q401.1-860 479.93-860q78.84 0 148.21 29.92t120.68 81.21 81.25 120.63Q860-558.9 860-480.07q0 78.84-29.92 148.21t-81.21 120.68-120.63 81.25Q558.9-100 480.07-100m-.07-60q134 0 227-93t93-227-93-227-227-93-227 93-93 227 93 227 227 93m0-320"></path></svg><svg fill="#e8eaed" viewBox="0 -960 960 960" id="expand"><path d="M220-220v-220h60v160h160v60zm460-300v-160H520v-60h220v220z"></path></svg><svg fill="#e8eaed" viewBox="0 -960 960 960" id="expand_all"><path d="M480-93.85 253.85-320l42.77-42.77L480-180.15l183.38-182.62L706.15-320zm-182.77-504L253.85-640 480-866.15 706.15-640l-43.38 42.15-182.77-182z"></path></svg><svg viewBox="0 -960 960 960" fill="#e3e3e3" id="explore"><path d="m313.08-313.08 256.15-77.69 77.69-256.15-256.15 77.69-77.69 256.15Zm166.83-114.61q-21.83 0-37.02-15.29-15.2-15.28-15.2-37.11t15.29-37.02q15.28-15.2 37.11-15.2t37.02 15.29q15.2 15.28 15.2 37.11t-15.29 37.02q-15.28 15.2-37.11 15.2Zm.16 327.69q-78.84 0-148.21-29.92t-120.68-81.21q-51.31-51.29-81.25-120.63Q100-401.1 100-479.93q0-78.84 29.92-148.21t81.21-120.68q51.29-51.31 120.63-81.25Q401.1-860 479.93-860q78.84 0 148.21 29.92t120.68 81.21q51.31 51.29 81.25 120.63Q860-558.9 860-480.07q0 78.84-29.92 148.21t-81.21 120.68q-51.29 51.31-120.63 81.25Q558.9-100 480.07-100Zm-.07-60q133.38 0 226.69-93.31T800-480q0-133.38-93.31-226.69T480-800q-133.38 0-226.69 93.31T160-480q0 133.38 93.31 226.69T480-160Zm0-320Z"></path></svg><svg fill="none" id="eye" viewBox="0 0 24 24"><path stroke="#e8eaed" d="M12 6.035c-5.115 0-9.107 3.921-10.463 5.882 1.453 2.058 5.522 5.882 10.754 5.882 4.883 0 8.913-3.922 10.172-5.882C21.107 9.957 17.116 6.035 12 6.035Z"></path><path fill="#e8eaed" fill-rule="evenodd" d="m9.168 9.736-.685-.427a4.43 4.43 0 0 0-.842 2.608c0 2.436 1.952 4.411 4.36 4.411 2.407 0 4.36-1.975 4.36-4.411 0-2.437-1.953-4.412-4.36-4.412a4.3 4.3 0 0 0-1.93.455l.36.718a3.5 3.5 0 0 1 1.57-.37c1.951 0 3.554 1.604 3.554 3.609s-1.603 3.61-3.555 3.61c-1.951 0-3.555-1.605-3.555-3.61 0-.822.27-1.577.723-2.181" clip-rule="evenodd"></path><path stroke="#e8eaed" d="M13.05 11.917a1.06 1.06 0 0 1-1.05 1.07 1.06 1.06 0 0 1-1.051-1.07c0-.597.476-1.07 1.05-1.07s1.051.473 1.051 1.07Z"></path></svg><svg fill="none" id="eye_off" viewBox="0 0 24 24"><path fill="#e8eaed" d="M7.286 11.5H1v.975h6.286z"></path><path fill="#e8eaed" d="M7.286 11.5H1v1h6.286zM23 11.5h-6.286v1H23z"></path><path fill="#e8eaed" fill-rule="evenodd" d="m10.405 10.81-.817-.594a3 3 0 1 0 1.618-1.11l.402.933q.19-.038.392-.039c1.082 0 1.985.881 1.985 2s-.903 2-1.985 2a1.99 1.99 0 0 1-1.985-2c0-.449.146-.86.39-1.19" clip-rule="evenodd"></path></svg><svg viewBox="0 -960 960 960" fill="#e3e3e3" id="favorite"><path d="m480-146.93-44.15-39.69q-99.46-90.23-164.5-155.07-65.04-64.85-103.08-115.43-38.04-50.57-53.15-92.27Q100-591.08 100-634q0-85.15 57.42-142.58Q214.85-834 300-834q52.38 0 99 24.5t81 70.27q34.38-45.77 81-70.27 46.62-24.5 99-24.5 85.15 0 142.58 57.42Q860-719.15 860-634q0 42.92-15.12 84.61-15.11 41.7-53.15 92.27-38.04 50.58-102.89 115.43Q624-276.85 524.15-186.62L480-146.93Zm0-81.07q96-86.38 158-148.08 62-61.69 98-107.19t50-80.81q14-35.3 14-69.92 0-60-40-100t-100-40q-47.38 0-87.58 26.88-40.19 26.89-63.65 74.81h-57.54q-23.85-48.31-63.85-75Q347.38-774 300-774q-59.62 0-99.81 40Q160-694 160-634q0 34.62 14 69.92 14 35.31 50 80.81t98 107q62 61.5 158 148.27Zm0-273Z"></path></svg><svg viewBox="0 -960 960 960" fill="#e3e3e3" id="favorite_fill"><path d="m480-146.93-44.15-39.69q-99.46-90.23-164.5-155.07-65.04-64.85-103.08-115.43-38.04-50.57-53.15-92.27Q100-591.08 100-634q0-85.15 57.42-142.58Q214.85-834 300-834q52.38 0 99 24.5t81 70.27q34.38-45.77 81-70.27 46.62-24.5 99-24.5 85.15 0 142.58 57.42Q860-719.15 860-634q0 42.92-15.12 84.61-15.11 41.7-53.15 92.27-38.04 50.58-102.89 115.43Q624-276.85 524.15-186.62L480-146.93Z"></path></svg><svg fill="#e8eaed" viewBox="0 -960 960 960" id="filter"><path d="M411.15-260v-60h137.31v60zM256.16-450v-60h447.3v60zM140-640v-60h680v60z"></path></svg><svg fill="#e8eaed" viewBox="0 -960 960 960" id="filter_alt_off"><path d="M577.77-495.23 535-538l143-182H353l-60-60h446.61q18.85 0 27.35 16.62 8.5 16.61-3.04 32zm214.38 412.3L540-335.08v119.69q0 15.08-10.16 25.23Q519.69-180 504.61-180h-49.22q-15.08 0-25.23-10.16Q420-200.31 420-215.39v-239.69L82.93-792.15l42.15-42.77 709.84 709.84zM535-538"></path></svg><svg fill="#e8eaed" viewBox="0 -960 960 960" id="folder-create"><path d="M570-330h60v-80h80v-60h-80v-80h-60v80h-80v60h80zM172.31-180Q142-180 121-201t-21-51.31v-455.38Q100-738 121-759t51.31-21h219.61l80 80h315.77Q818-700 839-679t21 51.31v375.38Q860-222 839-201t-51.31 21zm0-60h615.38q5.39 0 8.85-3.46t3.46-8.85v-375.38q0-5.39-3.46-8.85t-8.85-3.46H447.38l-80-80H172.31q-5.39 0-8.85 3.46t-3.46 8.85v455.38q0 5.39 3.46 8.85t8.85 3.46M160-240v-480z"></path></svg><svg fill="#e8eaed" viewBox="0 -960 960 960" id="folder-delete"><path d="M574.61-287.69h87.7q22.31 0 38.07-15.77 15.77-15.77 15.77-38.08v-170.77h36.16V-560h-96.16v-32.31h-75.38V-560h-96.15v47.69h36.15v170.77q0 22.31 15.77 38.08t38.07 15.77m-6.15-224.62h100v170.77q0 2.69-1.73 4.42-1.73 1.74-4.42 1.74h-87.7q-2.69 0-4.42-1.74-1.73-1.73-1.73-4.42zM172.31-180Q142-180 121-201t-21-51.31v-455.38Q100-738 121-759t51.31-21h219.61l80 80h315.77Q818-700 839-679t21 51.31v375.38Q860-222 839-201t-51.31 21zm0-60h615.38q5.39 0 8.85-3.46t3.46-8.85v-375.38q0-5.39-3.46-8.85t-8.85-3.46H447.38l-80-80H172.31q-5.39 0-8.85 3.46t-3.46 8.85v455.38q0 5.39 3.46 8.85t8.85 3.46M160-240v-480z"></path></svg><svg fill="#e8eaed" viewBox="0 -960 960 960" id="folder-move"><path d="m511.85-410-70.77 70.77 42.15 42.15L626.15-440 483.23-582.92l-42.15 42.15L511.85-470h-178v60zM172.31-180Q142-180 121-201t-21-51.31v-455.38Q100-738 121-759t51.31-21h219.61l80 80h315.77Q818-700 839-679t21 51.31v375.38Q860-222 839-201t-51.31 21zm0-60h615.38q5.39 0 8.85-3.46t3.46-8.85v-375.38q0-5.39-3.46-8.85t-8.85-3.46H447.38l-80-80H172.31q-5.39 0-8.85 3.46t-3.46 8.85v455.38q0 5.39 3.46 8.85t8.85 3.46M160-240v-480z"></path></svg><svg fill="#e8eaed" viewBox="0 -960 960 960" id="folder"><path d="M172.31-180Q142-180 121-201t-21-51.31v-455.38Q100-738 121-759t51.31-21h219.61l80 80h315.77Q818-700 839-679t21 51.31v375.38Q860-222 839-201t-51.31 21zm0-60h615.38q5.39 0 8.85-3.46t3.46-8.85v-375.38q0-5.39-3.46-8.85t-8.85-3.46H447.38l-80-80H172.31q-5.39 0-8.85 3.46t-3.46 8.85v455.38q0 5.39 3.46 8.85t8.85 3.46M160-240v-480z"></path></svg><svg viewBox="0 -960 960 960" fill="#e3e3e3" id="follow_the_signs"><path d="M380-746.15q-30.31 0-52.08-21.77T306.15-820q0-30.31 21.77-52.08T380-893.85q30.31 0 52.08 21.77T453.85-820q0 30.31-21.77 52.08T380-746.15ZM133.08-50l110.77-570.92L150-581.31V-450H90v-171.85l197.31-81q27-11 52.5-4.03 25.5 6.96 39.73 31.03l38.38 63.62q26.62 43.23 71.73 71.19 45.12 27.96 100.35 30.27v60q-68.31-2.31-123.27-35.5-54.96-33.19-90.5-83.5l-29.77 150.39L430-336.61V-50h-60v-233.46l-101.39-95.77L195.54-50h-62.46Zm543.07 3.85v-560h-150v-267.7h347.7v267.7h-150v560h-47.7ZM721-649.85 811.15-740 721-830.15 686.85-796 719-763.85H586.15v47.7H719L686.85-684 721-649.85Z"></path></svg><svg fill="#e8eaed" viewBox="0 -960 960 960" id="gear"><path d="m387.69-100-15.23-121.85q-16.07-5.38-32.96-15.07-16.88-9.7-30.19-20.77L196.46-210l-92.3-160 97.61-73.77q-1.38-8.92-1.96-17.92t-.58-17.93q0-8.53.58-17.34t1.96-19.27L104.16-590l92.3-159.23 112.46 47.31q14.47-11.46 30.89-20.96t32.27-15.27L387.69-860h184.62l15.23 122.23q18 6.54 32.57 15.27 14.58 8.73 29.43 20.58l114-47.31L855.84-590l-99.15 74.92q2.15 9.69 2.35 18.12.19 8.42.19 16.96 0 8.15-.39 16.58-.38 8.42-2.76 19.27L854.46-370l-92.31 160-112.61-48.08q-14.85 11.85-30.31 20.96-15.46 9.12-31.69 14.89L572.31-100zM440-160h78.62L533-267.15q30.62-8 55.96-22.73 25.35-14.74 48.89-37.89L737.23-286l39.39-68-86.77-65.38q5-15.54 6.8-30.47 1.81-14.92 1.81-30.15 0-15.62-1.81-30.15-1.8-14.54-6.8-29.7L777.38-606 738-674l-100.54 42.38q-20.08-21.46-48.11-37.92-28.04-16.46-56.73-23.31L520-800h-79.38l-13.24 106.77q-30.61 7.23-56.53 22.15-25.93 14.93-49.47 38.46L222-674l-39.38 68L269-541.62q-5 14.24-7 29.62t-2 32.38q0 15.62 2 30.62t6.62 29.62l-86 65.38L222-286l99-42q22.77 23.38 48.69 38.31 25.93 14.92 57.31 22.92zm40.46-200q49.92 0 84.96-35.04T600.46-480t-35.04-84.96T480.46-600q-50.54 0-85.27 35.04T360.46-480t34.73 84.96T480.46-360M480-480"></path></svg><svg fill="#e8eaed" viewBox="0 -960 960 960" id="gift"><path d="M164.62-100v-435.39H100v-208.45h206.85q-8.46-9.77-11.5-22.01-3.04-12.23-3.04-25.69 0-44.87 31.41-76.28T400-899.23q23 0 42.62 9.65 19.61 9.66 35.07 25.81 15.46-16.77 35.08-26.11 19.61-9.35 42.61-9.35 44.88 0 76.29 31.41t31.41 76.28q0 13.31-3.35 25.31t-11.19 22.39H860v208.45h-64.62V-100zm390.76-739.23q-20.27 0-33.98 13.71t-13.71 33.98 13.71 33.98q13.71 13.72 33.98 13.72t33.99-13.72q13.71-13.71 13.71-33.98t-13.71-33.98q-13.72-13.71-33.99-13.71m-203.07 47.69q0 20.27 13.71 33.98 13.71 13.72 33.98 13.72t33.98-13.72q13.71-13.71 13.71-33.98t-13.71-33.98T400-839.23t-33.98 13.71-13.71 33.98M160-683.85v88.47h290v-88.47zM450-160v-375.39H224.61V-160zm60 0h225.39v-375.39H510zm290-435.38v-88.47H510v88.47z"></path></svg><svg viewBox="0 0 24 24" fill="none" id="graph"><g clip-path="url(#graph_0)"><path d="M8.09384 2.10938C6.90633 2.4375 6.06258 3.35156 5.82821 4.54688C5.76571 4.85938 5.74227 5.57812 5.76571 6.65625C5.79696 8.125 5.8204 8.33594 5.97665 8.74219C6.22665 9.38281 6.92196 10.1094 7.56259 10.4062C8.04696 10.6328 8.0704 10.6328 9.71884 10.6562L11.3751 10.6797V12.0078V13.3281H7.99227C4.64852 13.3281 4.60165 13.3281 4.45321 13.4922C4.3204 13.6406 4.30477 13.8125 4.28133 15.3672L4.2579 17.0781H3.28915C1.91415 17.0781 2.00008 16.9141 2.00008 19.5547V21.6172L2.1954 21.8047L2.3829 22H4.89071H7.39852L7.58602 21.8047L7.78134 21.6172V19.5547C7.78134 16.9219 7.87509 17.0938 6.46883 17.0625L5.47665 17.0391L5.45321 15.7656L5.43758 14.5H8.40634H11.3751V15.7891V17.0781H10.4063C9.02352 17.0781 9.10946 16.9141 9.10946 19.5547V21.6172L9.30477 21.8047L9.49227 22H12.0001H14.5079L14.6954 21.8047L14.8907 21.6172V19.5547C14.8907 16.9141 14.9766 17.0781 13.5938 17.0781H12.6251V15.7891V14.5H15.5938H18.5626L18.547 15.7656L18.5235 17.0391L17.5313 17.0625C16.1251 17.0938 16.2188 16.9219 16.2188 19.5547V21.6172L16.4141 21.8047L16.6016 22H19.1095H21.6173L21.8048 21.8047L22.0001 21.6172V19.5547C22.0001 16.9141 22.086 17.0781 20.711 17.0781H19.7423L19.7188 15.3672C19.6954 13.8125 19.6798 13.6406 19.547 13.4922C19.3985 13.3281 19.3516 13.3281 16.0079 13.3281H12.6251V12.0078V10.6797L14.2891 10.6562L15.9532 10.6328L16.4688 10.375C17.1329 10.0547 17.7735 9.375 18.0235 8.74219C18.1798 8.33594 18.2032 8.125 18.2345 6.65625C18.2735 4.80469 18.2032 4.30469 17.8438 3.61719C17.5391 3.04688 17.047 2.60156 16.3907 2.28906L15.8673 2.03906L12.1563 2.02344C9.36727 2.00781 8.35946 2.03125 8.09384 2.10938ZM15.6876 3.25C16.1251 3.375 16.6173 3.78906 16.836 4.22656C17.0391 4.60938 17.0391 4.64062 17.0391 6.375C17.0391 8.03125 17.0313 8.14844 16.8673 8.45312C16.672 8.82812 16.2188 9.24219 15.8595 9.39062C15.4766 9.54688 8.52352 9.54688 8.14071 9.39062C7.78134 9.24219 7.32821 8.82812 7.1329 8.45312C6.96883 8.14844 6.96102 8.03125 6.96102 6.375C6.96102 4.64844 6.96883 4.60938 7.15634 4.23438C7.3829 3.79688 7.78134 3.44531 8.21884 3.28906C8.60165 3.14844 15.2188 3.125 15.6876 3.25ZM6.60946 19.5391V20.8281H4.89071H3.17196V19.5391V18.25H4.89071H6.60946V19.5391ZM13.7188 19.5391V20.8281H12.0001H10.2813V19.5391V18.25H12.0001H13.7188V19.5391ZM20.8282 19.5391V20.8281H19.1095H17.3907V19.5391V18.25H19.1095H20.8282V19.5391Z" fill="#e8eaed"></path><path d="M8.58583 4.59375C8.21083 4.77344 8.18739 5.39844 8.55458 5.58594C8.65614 5.64062 9.82801 5.67188 11.9999 5.67188C14.1718 5.67188 15.3436 5.64062 15.4452 5.58594C15.8202 5.39062 15.789 4.76562 15.3905 4.58594C15.1327 4.46875 8.83583 4.47656 8.58583 4.59375Z" fill="#e8eaed"></path><path d="M8.46878 7.23438C8.28128 7.42969 8.24222 7.51562 8.28128 7.6875C8.31253 7.80469 8.40628 7.96094 8.50003 8.03125C8.64066 8.15625 8.89847 8.17188 11.375 8.17188C13.8516 8.17188 14.1094 8.15625 14.2578 8.03125C14.5157 7.82812 14.5 7.41406 14.2344 7.17969L14.0235 7H11.3672H8.70316L8.46878 7.23438Z" fill="#e8eaed"></path></g><defs><clipPath id="graph_0"><rect width="20" height="20" fill="white" transform="translate(2 2)"></rect></clipPath></defs></svg><svg viewBox="0 -960 960 960" fill="#e3e3e3" id="history"><path d="M479.23-140q-129.92 0-226.46-85.54Q156.23-311.08 141.62-440h61.23Q218-336.38 296.12-268.19 374.23-200 479.23-200q117 0 198.5-81.5t81.5-198.5q0-117-81.5-198.5T479.23-760q-65.54 0-122.84 29.12-57.31 29.11-98.7 80.11h104.62v60H159.23v-203.08h60v94.77q48.69-57.46 116.62-89.19Q403.77-820 479.23-820q70.77 0 132.62 26.77 61.84 26.77 107.84 72.77t72.77 107.85q26.77 61.84 26.77 132.61 0 70.77-26.77 132.61-26.77 61.85-72.77 107.85-46 46-107.84 72.77Q550-140 479.23-140Zm120.08-178.92L450.39-467.85V-680h59.99v187.85l131.08 131.07-42.15 42.16Z"></path></svg><svg viewBox="0 -960 960 960" fill="#e3e3e3" id="horizontal_split"><path d="M140-220v-240h680v240H140Zm0-320v-60h680v60H140Zm0-140v-60h680v60H140Z"></path></svg><svg fill="#e8eaed" viewBox="0 -960 960 960" id="hourglass_empty"><path d="M316.15-160h327.7v-120q0-68.31-47.77-116.85T480-445.39t-116.08 48.54T316.15-280zM480-514.61q68.31 0 116.08-48.54T643.85-680v-120h-327.7v120q0 68.31 47.77 116.85T480-514.61M180-100v-60h76.16v-120q0-67.54 36.96-122.96 36.96-55.43 97.96-77.04-61-22-97.96-77.23T256.16-680v-120H180v-60h600v60h-76.16v120q0 67.54-36.96 122.77T568.92-480q61 21.61 97.96 77.04 36.96 55.42 36.96 122.96v120H780v60z"></path></svg><svg fill="#e8eaed" viewBox="0 -960 960 960" id="hourglass_top"><path d="M316.15-160h327.7v-120q0-68.31-47.77-116.85T480-445.39t-116.08 48.54T316.15-280zM180-100v-60h76.16v-120q0-67.54 36.96-122.96 36.96-55.43 97.96-77.04-61-22-97.96-77.23T256.16-680v-120H180v-60h600v60h-76.16v120q0 67.54-36.96 122.77T568.92-480q61 21.61 97.96 77.04 36.96 55.42 36.96 122.96v120H780v60z"></path></svg><svg fill="#e8eaed" viewBox="0 -960 960 960" id="info"><path d="M478-240q21 0 35.5-14.5T528-290t-14.5-35.5T478-340t-35.5 14.5T428-290t14.5 35.5T478-240m-36-154h74q0-33 7.5-52t42.5-52q26-26 41-49.5t15-56.5q0-56-41-86t-97-30q-57 0-92.5 30T342-618l66 26q5-18 22.5-39t53.5-21q32 0 48 17.5t16 38.5q0 20-12 37.5T506-526q-44 39-54 59t-10 73m38 314q-83 0-156-31.5T197-197t-85.5-127T80-480t31.5-156T197-763t127-85.5T480-880t156 31.5T763-763t85.5 127T880-480t-31.5 156T763-197t-127 85.5T480-80"></path></svg><svg fill="#e8eaed" viewBox="0 -960 960 960" id="list"><path d="M293.08-597.69v-60H820v60zm0 147.69v-60H820v60zm0 147.69v-60H820v60zM172.31-595.38q-13.73 0-23.02-9.4t-9.29-23.3q0-13.56 9.29-22.74t23.02-9.18 23.02 9.18 9.29 22.74q0 13.9-9.29 23.3t-23.02 9.4m0 147.3q-13.73 0-23.02-9.18Q140-466.43 140-480q0-14.31 9.29-23.5t23.02-9.19 23.02 9.19 9.29 23.5q0 13.57-9.29 22.74-9.29 9.18-23.02 9.18m0 148.08q-13.73 0-23.02-9.4T140-332.69q0-13.57 9.29-22.75t23.02-9.18 23.02 9.18 9.29 22.75q0 13.89-9.29 23.29t-23.02 9.4"></path></svg><svg fill="#e8eaed" viewBox="0 -960 960 960" id="list_alt"><path d="M322.33-289.23q15.05 0 25.21-10.18 10.15-10.18 10.15-25.23t-10.18-25.21Q337.33-360 322.28-360t-25.2 10.18q-10.16 10.18-10.16 25.23t10.18 25.2q10.19 10.16 25.23 10.16m0-155.39q15.05 0 25.21-10.18 10.15-10.18 10.15-25.23t-10.18-25.2-25.23-10.15-25.2 10.18q-10.16 10.18-10.16 25.23t10.18 25.2q10.19 10.15 25.23 10.15m0-155.38q15.05 0 25.21-10.18 10.15-10.18 10.15-25.23t-10.18-25.2q-10.18-10.16-25.23-10.16t-25.2 10.18q-10.16 10.18-10.16 25.23t10.18 25.21Q307.29-600 322.33-600m121.52 305.38h227.69v-59.99H443.85zm0-155.38h227.69v-60H443.85zm0-155.39h227.69v-59.99H443.85zM212.31-140Q182-140 161-161t-21-51.31v-535.38Q140-778 161-799t51.31-21h535.38Q778-820 799-799t21 51.31v535.38Q820-182 799-161t-51.31 21zm0-60h535.38q4.62 0 8.46-3.85 3.85-3.84 3.85-8.46v-535.38q0-4.62-3.85-8.46-3.84-3.85-8.46-3.85H212.31q-4.62 0-8.46 3.85-3.85 3.84-3.85 8.46v535.38q0 4.62 3.85 8.46 3.84 3.85 8.46 3.85M200-760v560z"></path></svg><svg viewBox="0 -960 960 960" fill="#e3e3e3" id="lock"><path d="M252.31-100q-29.92 0-51.12-21.19Q180-142.39 180-172.31v-375.38q0-29.92 21.19-51.12Q222.39-620 252.31-620H300v-80q0-74.92 52.54-127.46Q405.08-880 480-880q74.92 0 127.46 52.54Q660-774.92 660-700v80h47.69q29.92 0 51.12 21.19Q780-577.61 780-547.69v375.38q0 29.92-21.19 51.12Q737.61-100 707.69-100H252.31Zm0-60h455.38q5.39 0 8.85-3.46t3.46-8.85v-375.38q0-5.39-3.46-8.85t-8.85-3.46H252.31q-5.39 0-8.85 3.46t-3.46 8.85v375.38q0 5.39 3.46 8.85t8.85 3.46ZM480-290q29.15 0 49.58-20.42Q550-330.85 550-360t-20.42-49.58Q509.15-430 480-430t-49.58 20.42Q410-389.15 410-360t20.42 49.58Q450.85-290 480-290ZM360-620h240v-80q0-50-35-85t-85-35q-50 0-85 35t-35 85v80ZM240-160v-400 400Z"></path></svg><svg viewBox="0 -960 960 960" fill="#e3e3e3" id="lock_open_right"><path d="M252.31-160h455.38q5.39 0 8.85-3.46t3.46-8.85v-375.38q0-5.39-3.46-8.85t-8.85-3.46H252.31q-5.39 0-8.85 3.46t-3.46 8.85v375.38q0 5.39 3.46 8.85t8.85 3.46ZM480-290q29.15 0 49.58-20.42Q550-330.85 550-360t-20.42-49.58Q509.15-430 480-430t-49.58 20.42Q410-389.15 410-360t20.42 49.58Q450.85-290 480-290ZM240-160v-400 400Zm12.31 60q-29.92 0-51.12-21.19Q180-142.39 180-172.31v-375.38q0-29.92 21.19-51.12Q222.39-620 252.31-620H540v-80q0-74.92 52.54-127.46Q645.08-880 720-880q74.92 0 127.46 52.54Q900-774.92 900-700h-60q0-50-35-85t-85-35q-50 0-85 35t-35 85v80h107.69q29.92 0 51.12 21.19Q780-577.61 780-547.69v375.38q0 29.92-21.19 51.12Q737.61-100 707.69-100H252.31Z"></path></svg><svg viewBox="0 -960 960 960" fill="#e3e3e3" id="login"><path d="M479.62-140v-60h268.07q4.62 0 8.46-3.85 3.85-3.84 3.85-8.46v-535.38q0-4.62-3.85-8.46-3.84-3.85-8.46-3.85H479.62v-60h268.07Q778-820 799-799q21 21 21 51.31v535.38Q820-182 799-161q-21 21-51.31 21H479.62Zm-54.23-169.23-41.54-43.39L481.23-450H140v-60h341.23l-97.38-97.38 41.54-43.39L596.15-480 425.39-309.23Z"></path></svg><svg fill="#e8eaed" viewBox="0 -960 960 960" id="logout"><path d="M212.31-140Q182-140 161-161t-21-51.31v-535.38Q140-778 161-799t51.31-21h268.07v60H212.31q-4.62 0-8.46 3.85-3.85 3.84-3.85 8.46v535.38q0 4.62 3.85 8.46 3.84 3.85 8.46 3.85h268.07v60zm436.92-169.23-41.54-43.39L705.08-450H363.85v-60h341.23l-97.39-97.38 41.54-43.39L820-480z"></path></svg><svg fill="#e8eaed" viewBox="0 -960 960 960" id="match_case"><path d="m146.77-262.77 157.69-424.61h61.31l158.84 424.61h-60.23l-40.15-115.08H246.62l-40.39 115.08zM265-428h140.62l-69-195.46h-3.24zm390.38 174.85q-48.69 0-77.73-26.54t-29.04-68.46q0-43.24 33.93-70.39 33.92-27.15 87.15-27.15 22.23 0 44.23 4.19t38.39 11.58v-17.77q0-34-20.12-53.16Q712.08-520 676.15-520q-21.84 0-40.27 8.34-18.42 8.35-34.34 24.81l-36.23-28.84q23.23-24.77 50.46-36.46 27.23-11.7 61-11.7 63.23 0 94.15 30.96 30.92 30.97 30.92 92.89v177.23h-49.53v-38.92h-4q-14.77 24.15-38.58 36.34-23.81 12.2-54.35 12.2m7.39-43.23q40.38 0 65.27-26.7 24.88-26.69 24.88-64.84-14-8-34.46-12.5t-40.23-4.5q-35.85 0-56.54 15.15T601-348.15q0 22.3 17.34 37.03 17.35 14.74 44.43 14.74"></path></svg><svg fill="#e8eaed" viewBox="0 -960 960 960" id="menu"><path d="M140-254.62v-59.99h680v59.99zM140-450v-60h680v60zm0-195.39v-59.99h680v59.99z"></path></svg><svg viewBox="0 -960 960 960" fill="#e3e3e3" id="mobile_arrow_down"><path d="M292.31-60q-29.92 0-51.12-21.19Q220-102.39 220-132.31v-695.38Q220-858 241-879q21-21 51.31-21h376.92q29.92 0 51.11 21.19 21.2 21.2 21.2 51.12v126.31q16.46 4.3 27.46 17.19 11 12.88 11 29.96v75.38q0 17.08-11 29.97-11 12.88-27.46 17.19v399.38q0 29.92-21.2 51.12Q699.15-60 669.23-60H292.31Zm0-60h376.92q5.38 0 8.85-3.46 3.46-3.46 3.46-8.85v-695.38q0-5.39-3.46-8.85-3.47-3.46-8.85-3.46H292.31q-5.39 0-8.85 3.46t-3.46 8.85v695.38q0 5.39 3.46 8.85t8.85 3.46ZM280-120v-720 720Zm200-213.85L626.15-480 584-522.15l-74 72.77v-176.77h-60v176.77l-74-72.77L333.85-480 480-333.85Z"></path></svg><svg fill="#e8eaed" viewBox="0 -960 960 960" id="monitoring"><path d="M130-130v-65.77l60-60V-130zm160 0v-225.77l60-60V-130zm160 0v-285.77l60 61V-130zm160 0v-224.77l60-60V-130zm160 0v-385.77l60-60V-130zM130-351.23v-84.54l270-270 160 160 270-270v84.54l-270 270-160-160z"></path></svg><svg fill="#e8eaed" viewBox="0 -960 960 960" id="more_h"><path d="M249.23-420q-24.75 0-42.37-17.63-17.63-17.62-17.63-42.37t17.63-42.37Q224.48-540 249.23-540t42.38 17.63q17.62 17.62 17.62 42.37t-17.62 42.37Q273.98-420 249.23-420M480-420q-24.75 0-42.37-17.63Q420-455.25 420-480t17.63-42.37Q455.25-540 480-540t42.37 17.63Q540-504.75 540-480t-17.63 42.37Q504.75-420 480-420m230.77 0q-24.75 0-42.38-17.63-17.62-17.62-17.62-42.37t17.62-42.37Q686.02-540 710.77-540t42.37 17.63q17.63 17.62 17.63 42.37t-17.63 42.37Q735.52-420 710.77-420"></path></svg><svg fill="#e8eaed" viewBox="0 -960 960 960" id="move-group"><path d="M322.31-260Q292-260 271-281t-21-51.31v-70h60v70q0 4.62 3.85 8.46 3.84 3.85 8.46 3.85h455.38q4.62 0 8.46-3.85 3.85-3.84 3.85-8.46V-720H310v82.31h-60v-150Q250-818 271-839t51.31-21h455.38Q808-860 829-839t21 51.31v455.38Q850-302 829-281t-51.31 21zm-140 140Q152-120 131-141t-21-51.31v-515.38h60v515.38q0 4.62 3.85 8.46 3.84 3.85 8.46 3.85h515.38v60zm326.15-246.54-41.77-41.77L547-490H250v-60h297l-80.31-81.69 41.77-41.77L661.92-520z"></path></svg><svg fill="#e8eaed" viewBox="0 -960 960 960" id="move-item"><path d="M814.85-450H343.08v-60h471.77l-72.77-72.77 42.15-43.38L930.38-480 784.23-333.85l-42.15-43.38zM608.08-605.39v-142.3q0-5.39-3.46-8.85-3.47-3.46-8.85-3.46H212.31q-5.39 0-8.85 3.46t-3.46 8.85v535.38q0 5.39 3.46 8.85t8.85 3.46h383.46q5.38 0 8.85-3.46 3.46-3.46 3.46-8.85v-142.3h60v142.3q0 29.92-21.2 51.12Q625.69-140 595.77-140H212.31q-29.92 0-51.12-21.19Q140-182.39 140-212.31v-535.38q0-29.92 21.19-51.12Q182.39-820 212.31-820h383.46q29.92 0 51.11 21.19 21.2 21.2 21.2 51.12v142.3z"></path></svg><svg fill="#e8eaed" viewBox="0 -960 960 960" id="newsstand"><path d="M90-172.31v-60h780v60zm86.92-155.38v-300h60v300zm155.39 0v-460h60v460zm155.38 0v-460h60v460zm266.16 0L603.85-590l52.3-30 150 262.31z"></path></svg><svg viewBox="0 -960 960 960" fill="#e3e3e3" id="offline_pin"><path d="M330-290h300v-60H330v60Zm108-123.85L650.15-626l-42.77-41.54-169.25 169.39-86.13-86L309.85-542 438-413.85ZM480.07-100q-78.84 0-148.21-29.92t-120.68-81.21q-51.31-51.29-81.25-120.63Q100-401.1 100-479.93q0-78.84 29.92-148.21t81.21-120.68q51.29-51.31 120.63-81.25Q401.1-860 479.93-860q78.84 0 148.21 29.92t120.68 81.21q51.31 51.29 81.25 120.63Q860-558.9 860-480.07q0 78.84-29.92 148.21t-81.21 120.68q-51.29 51.31-120.63 81.25Q558.9-100 480.07-100Zm-.07-60q134 0 227-93t93-227q0-134-93-227t-227-93q-134 0-227 93t-93 227q0 134 93 227t227 93Zm0-320Z"></path></svg><svg fill="none" id="ok" viewBox="0 0 24 24"><path fill="#fff" d="M12 4.917a3.19 3.19 0 0 0-3.187 3.187A3.19 3.19 0 0 0 12 11.292a3.174 3.174 0 0 0 3.188-3.188A3.19 3.19 0 0 0 12 4.917m0 4.25c-.59 0-1.062-.473-1.062-1.063S11.41 7.042 12 7.042s1.063.472 1.063 1.062S12.59 9.167 12 9.167M15.92 13.44a7.8 7.8 0 0 1-2.55.897l2.479 3.046c.283.354.354.85.094 1.228a1.03 1.03 0 0 1-1.676.094l-2.29-2.81-2.267 2.81a1.03 1.03 0 0 1-1.63-.047c-.26-.354-.236-.945.048-1.299l2.455-3.07c-.873-.165-1.747-.448-2.526-.896-.496-.284-.661-.898-.378-1.417.284-.496.921-.661 1.417-.378 1.794 1.015 4.037 1.015 5.855.024a1.013 1.013 0 0 1 1.393.401c.26.52.071 1.133-.425 1.417"></path></svg><svg fill="#e8eaed" viewBox="0 -960 960 960" id="pdf"><path d="M353.08-462.31h35.38v-80h44.62q15.07 0 25.23-10.15 10.15-10.16 10.15-25.23v-44.62q0-15.07-10.15-25.23-10.16-10.15-25.23-10.15h-80zm35.38-115.38v-44.62h44.62v44.62zm120.77 115.38h78.46q15.08 0 25.23-10.15 10.16-10.16 10.16-25.23v-124.62q0-15.07-10.16-25.23-10.15-10.15-25.23-10.15h-78.46zm35.38-35.38v-124.62h43.08v124.62zm123.08 35.38h35.39v-80h47.69v-35.38h-47.69v-44.62h47.69v-35.38h-83.08zM322.31-260Q292-260 271-281t-21-51.31v-455.38Q250-818 271-839t51.31-21h455.38Q808-860 829-839t21 51.31v455.38Q850-302 829-281t-51.31 21zm0-60h455.38q4.62 0 8.46-3.85 3.85-3.84 3.85-8.46v-455.38q0-4.62-3.85-8.46-3.84-3.85-8.46-3.85H322.31q-4.62 0-8.46 3.85-3.85 3.84-3.85 8.46v455.38q0 4.62 3.85 8.46 3.84 3.85 8.46 3.85m-140 200Q152-120 131-141t-21-51.31v-515.38h60v515.38q0 4.62 3.85 8.46 3.84 3.85 8.46 3.85h515.38v60zM310-800v480z"></path></svg><svg fill="#e8eaed" viewBox="0 -960 960 960" id="person"><path d="M480-492.31q-57.75 0-98.87-41.12Q340-574.56 340-632.31t41.13-98.87q41.12-41.13 98.87-41.13t98.87 41.13Q620-690.06 620-632.31t-41.13 98.88q-41.12 41.12-98.87 41.12M180-187.69v-88.93q0-29.38 15.96-54.42t42.66-38.5q59.3-29.07 119.65-43.61T480-427.69t121.73 14.54 119.65 43.61q26.7 13.46 42.66 38.5T780-276.62v88.93zm60-60h480v-28.93q0-12.15-7.04-22.5-7.04-10.34-19.11-16.88-51.7-25.46-105.42-38.58Q534.7-367.69 480-367.69t-108.43 13.11Q317.85-341.46 266.15-316q-12.07 6.54-19.11 16.88-7.04 10.35-7.04 22.5zm240-304.62q33 0 56.5-23.5t23.5-56.5-23.5-56.5-56.5-23.5-56.5 23.5-23.5 56.5 23.5 56.5 56.5 23.5m0 304.62"></path></svg><svg fill="#e8eaed" viewBox="0 -960 960 960" id="play"><path d="M340-236.16v-487.68L723.07-480zM400-346l210.77-134L400-614z"></path></svg><svg fill="#e8eaed" viewBox="0 -960 960 960" id="play_filled"><path d="M340-236.16v-487.68L723.07-480z"></path></svg><svg fill="#e8eaed" viewBox="0 -960 960 960" id="print"><path d="M640-627.69v-120H320v120h-60v-180h440v180zm-468.46 60h616.92zm540.77 100q17 0 28.5-11.5t11.5-28.5-11.5-28.5-28.5-11.5-28.5 11.5-11.5 28.5 11.5 28.5 28.5 11.5M640-200v-170.77H320V-200zm60 60H260v-160H111.54v-227.69q0-42.5 29.04-71.25t70.96-28.75h536.92q42.5 0 71.25 28.75t28.75 71.25V-300H700zm88.46-220v-167.69q0-17-11.5-28.5t-28.5-11.5H211.54q-17 0-28.5 11.5t-11.5 28.5V-360H260v-70.77h440V-360z"></path></svg><svg fill="#e8eaed" viewBox="0 -960 960 960" id="progress_activity"><path d="M479.88-100q-78.03 0-147.33-29.9-69.29-29.9-121.02-81.63T129.9-332.55Q100-401.85 100-479.88q0-78.98 29.96-147.97 29.96-69 81.58-120.61 51.61-51.62 121.04-81.58T480-860q12.75 0 21.37 8.63 8.63 8.63 8.63 21.38 0 12.76-8.63 21.37Q492.75-800 480-800q-133 0-226.5 93.5T160-480t93.5 226.5T480-160t226.5-93.5T800-480q0-12.77 8.63-21.38 8.63-8.62 21.38-8.62 12.76 0 21.37 8.63Q860-492.75 860-480q0 77.99-29.96 147.42t-81.58 121.04q-51.61 51.62-120.61 81.58Q558.86-100 479.88-100"></path></svg><svg viewBox="0 0 24 24" fill="none" id="publisher"><g clip-path="url(#publisher_0)"><path d="M7.09746 4.08594C4.38652 5.27344 2.27715 6.21484 2.20684 6.27734C1.97246 6.46875 1.94121 6.83984 2.13652 7.07031C2.26543 7.22656 2.4334 7.28906 2.65605 7.26172C2.78496 7.25 4.19512 6.64844 7.40215 5.24609C9.90996 4.14844 11.9803 3.25 12.0037 3.25C12.0271 3.25 14.117 4.15625 16.6521 5.26563C20.2068 6.82031 21.2967 7.28125 21.4139 7.28125C21.9373 7.27344 22.1912 6.64453 21.8162 6.28906C21.66 6.14453 12.1717 2 11.9959 2C11.91 2.00391 10.2342 2.71484 7.09746 4.08594Z" fill="#e8eaed"></path><path d="M6.88281 8.16055C6.46484 8.20352 5.625 8.38321 5.18359 8.52774C4.53516 8.73477 4.25781 8.87149 4.15234 9.04336C4.07031 9.17618 4.07031 9.18008 4.07031 13.1801V17.184L4.16016 17.3168C4.26172 17.4691 4.46875 17.5863 4.63672 17.5863C4.70313 17.5863 4.95703 17.5082 5.20313 17.4145C6.04297 17.0981 6.81641 16.9574 7.76172 16.9535C8.70703 16.9496 9.5625 17.1059 10.2734 17.4066C10.6875 17.5785 10.875 17.7035 11.3359 18.0902C11.9219 18.5902 12.082 18.5941 12.6328 18.1176C13.0898 17.727 13.2891 17.5941 13.6953 17.4184C14.418 17.1098 15.2773 16.9496 16.2383 16.9535C17.1836 16.9574 17.957 17.0981 18.7969 17.4145C19.043 17.5082 19.3008 17.5863 19.3633 17.5863C19.5313 17.5863 19.7383 17.4691 19.8398 17.3168L19.9297 17.184V13.1957C19.9297 8.65665 19.957 9.02774 19.5938 8.82852C19.2266 8.6254 18.457 8.39102 17.7031 8.24649C17.0781 8.1293 15.8047 8.10196 15.1406 8.1879C14.0234 8.33633 13.0508 8.68399 12.2813 9.21524C12.1445 9.30508 12.0195 9.38321 12 9.38321C11.9805 9.38321 11.8555 9.30508 11.7188 9.21133C10.9609 8.6879 9.97656 8.33633 8.88672 8.1918C8.48047 8.13711 7.26953 8.11758 6.88281 8.16055ZM9.04297 9.39883C9.85547 9.55118 10.6719 9.88321 11.1719 10.266L11.4141 10.4535V13.5512V16.6488L11.1328 16.5082C9.55469 15.7152 7.42188 15.5473 5.53516 16.0668C5.38672 16.1059 5.25781 16.141 5.25391 16.141C5.24609 16.141 5.24219 14.6996 5.24219 12.9418V9.74258L5.48828 9.66055C5.83984 9.54727 6.3125 9.43399 6.64844 9.38711C6.80859 9.36368 6.98438 9.33633 7.03906 9.32852C7.27734 9.28555 8.71484 9.34024 9.04297 9.39883ZM17.4492 9.39493C17.8359 9.46915 18.1953 9.55899 18.5156 9.66055L18.7578 9.74258V12.9418C18.7578 14.6996 18.7539 16.141 18.7461 16.141C18.7422 16.141 18.6133 16.1059 18.4648 16.0668C16.5742 15.5434 14.4414 15.7152 12.8594 16.5121L12.5859 16.6488V13.5512V10.4496L12.832 10.266C13.3789 9.85196 14.3086 9.49258 15.1055 9.38321C15.3008 9.35977 15.4844 9.33243 15.5156 9.32461C15.6719 9.28555 17.1641 9.34024 17.4492 9.39493Z" fill="#e8eaed"></path><path d="M6.20662 18.7775C5.24959 18.9338 4.28865 19.3439 4.13631 19.6681C3.9449 20.0705 4.21443 20.5158 4.64803 20.5158C4.76912 20.5158 4.89412 20.4728 5.09725 20.3635C5.65584 20.0588 6.17537 19.9338 7.01912 19.9064C8.12068 19.8674 8.86287 20.0158 9.7535 20.4572C10.316 20.7345 10.7262 21.0314 11.3277 21.5861C11.7535 21.9806 11.8629 22.0353 12.1363 21.9845C12.234 21.965 12.359 21.8791 12.5387 21.7111C13.3199 20.9845 13.6988 20.7111 14.3551 20.3986C15.0894 20.051 15.8394 19.8908 16.7652 19.8908C17.609 19.8908 18.2027 20.0158 18.816 20.3205C19.2535 20.5392 19.4371 20.5666 19.648 20.4377C19.9097 20.2775 19.9996 19.9533 19.8629 19.6681C19.7496 19.4299 19.2105 19.1408 18.484 18.9338C17.5074 18.6525 16.066 18.6447 15.0074 18.9142C14.0699 19.1525 13.1168 19.6486 12.2847 20.3244L11.9957 20.5627L11.7066 20.3244C10.7887 19.5666 9.63631 19.0119 8.56209 18.8166C8.05428 18.7228 6.68318 18.6994 6.20662 18.7775Z" fill="#e8eaed"></path></g><defs><clipPath id="publisher_0"><rect width="20" height="20" fill="white" transform="translate(2 2)"></rect></clipPath></defs></svg><svg viewBox="0 0 24 24" fill="none" id="pushkin"><g clip-path="url(#pushkin_0)"><path d="M12.5469 2.04297C11.6641 2.15625 10.7695 2.59766 10.1523 3.22266L9.85157 3.53125L9.63672 3.4336C9.25001 3.2461 8.97266 3.19141 8.44532 3.19531C8.01563 3.19531 7.91797 3.21094 7.64454 3.30469C7.09766 3.49219 6.69532 3.77344 6.33985 4.21875C5.85547 4.82031 5.65235 5.65235 5.80469 6.40625C5.83985 6.58203 5.87891 6.75 5.89063 6.78125C5.90235 6.81641 5.83204 6.87891 5.68751 6.96094C5.23829 7.21485 4.85938 7.66797 4.69141 8.16016C4.56251 8.53516 4.56251 9.13672 4.68751 9.50391C4.90235 10.1328 5.38672 10.6289 5.99219 10.8477L6.23047 10.9336L6.3711 11.3438C6.44922 11.5664 6.57422 11.8555 6.64844 11.9805C6.92579 12.4414 7.35938 12.8359 7.84376 13.0625L8.09376 13.1797V13.7578C8.09376 14.3789 8.15626 14.8125 8.28516 15.1055L8.36329 15.2852L7.68751 15.7344C7.31641 15.9844 6.99219 16.2227 6.97266 16.2695C6.88282 16.4688 5.74219 21.6094 5.76563 21.707C5.79688 21.8359 5.91407 21.9531 6.05079 21.9844C6.13282 22.0078 6.57813 21.875 7.90626 21.4297L9.65626 20.8477L11.4141 21.4336L13.1719 22.0195L14.9219 21.4375L16.668 20.8555L17.8086 21.4297C18.4375 21.7422 18.9883 22 19.0313 22C19.1719 22 19.332 21.8906 19.3828 21.7617C19.4297 21.6523 19.4219 21.5742 19.3047 21.0469C19.2344 20.7227 19.1523 20.4023 19.1289 20.3359C19.0273 20.0898 18.7461 20.0117 18.5469 20.168C18.3945 20.2891 18.3594 20.4023 18.4102 20.6367C18.4336 20.7461 18.4453 20.8438 18.4336 20.8516C18.4219 20.8633 18.043 20.6875 17.5898 20.4609C17.1367 20.2344 16.7344 20.0469 16.6953 20.0469C16.6602 20.0469 16.1797 20.1953 15.6328 20.3789C15.0859 20.5625 14.6328 20.7109 14.625 20.7109C14.6172 20.7109 14.6797 20.6289 14.7656 20.5273C15.1563 20.0547 15.5156 19.3789 15.6914 18.7773C15.8477 18.2305 15.9063 17.7578 15.9063 16.9727V16.2578L16.0352 16.0273L16.1641 15.793L16.8359 16.2383C17.5547 16.7188 17.5078 16.6641 17.6055 17.0938C17.6172 17.1563 17.6836 17.2578 17.7461 17.3242C17.8477 17.4258 17.8828 17.4375 18.0273 17.418C18.3477 17.375 18.4258 17.1641 18.3086 16.6484C18.2031 16.2031 18.2305 16.2305 17.3242 15.625C16.8594 15.3203 16.4648 15.0547 16.4453 15.043C16.418 15.0273 16.5391 14.6172 16.7422 14.0078L17.0781 12.9961V12.4688L17.082 11.9414L17.2852 11.8438C17.7461 11.6211 18.25 11.1016 18.4844 10.6094C18.5508 10.4688 18.6836 10.0586 18.7773 9.69531C18.9023 9.19922 18.9766 8.98438 19.0859 8.8086C19.3242 8.41797 19.3945 8.17188 19.3984 7.6836C19.4023 7.32813 19.3867 7.20703 19.3125 6.99219C19.1484 6.52344 18.7773 6.05469 18.3828 5.82813L18.2305 5.73828V5.32422C18.2305 4.9961 18.2109 4.85547 18.1406 4.64844C17.8711 3.86328 17.1914 3.30469 16.3711 3.19141C16.1953 3.16797 16.1211 3.12891 15.918 2.96094C15.0195 2.21485 13.7969 1.88281 12.5469 2.04297ZM14.0273 2.87891C14.6094 3.01953 15.0938 3.27344 15.5117 3.66016C15.8047 3.92969 15.8281 3.9375 16.2148 3.96875C16.5273 3.99219 16.8984 4.16797 17.0977 4.38672C17.4141 4.73828 17.5391 5.25 17.4141 5.67969C17.3789 5.80078 17.3516 5.94141 17.3516 5.9961C17.3516 6.10547 17.5234 6.33594 17.6016 6.33594C17.7188 6.33594 18.1367 6.58594 18.2695 6.73438C18.707 7.21875 18.7539 7.90625 18.3828 8.44922C18.2656 8.625 18.207 8.78906 18.0508 9.39063C17.9453 9.80469 17.8164 10.2148 17.7539 10.3281C17.6953 10.4414 17.5234 10.6563 17.3711 10.8086L17.0977 11.082L17.0742 9.42188C17.0508 7.5625 17.0508 7.55469 16.7539 6.98047C16.5273 6.53906 16.0469 6.0625 15.5977 5.83203C15.3945 5.72656 15.2109 5.66016 15.1211 5.65625C14.9844 5.65235 14.9492 5.67969 14.6289 6.00781C14.3672 6.28125 14.2266 6.39453 14.0313 6.48438C13.3906 6.78516 12.7422 6.7461 12.1133 6.3711C11.7539 6.15625 11.6602 6.16797 11.375 6.45313C10.918 6.91016 10.1445 6.64453 10.0625 6C10.0273 5.74219 9.95704 5.61328 9.81251 5.55469C9.51172 5.42969 8.83985 5.66406 8.52735 6.00781C8.4336 6.10547 8.30469 6.30078 8.23829 6.44531L8.11329 6.70703L8.10157 7.86328L8.08985 9.02344L7.75001 9.03906C7.53126 9.05078 7.32813 9.08985 7.1836 9.14453C6.88672 9.26172 6.53907 9.58203 6.39063 9.87891C6.32813 10.0039 6.27344 10.1133 6.26954 10.1172C6.26563 10.125 6.17188 10.082 6.06251 10.0234C5.81251 9.88672 5.61329 9.67188 5.48047 9.38672C5.39454 9.20313 5.37891 9.11328 5.37891 8.83594C5.37891 8.44922 5.48047 8.17969 5.73047 7.90625C5.89063 7.72656 6.25001 7.52735 6.49219 7.48828C6.67579 7.45703 6.84376 7.28125 6.84376 7.11719C6.84376 7.0586 6.80079 6.91406 6.7461 6.80078C6.53126 6.32813 6.48438 5.90235 6.58985 5.44531C6.67188 5.09766 6.82032 4.83203 7.08594 4.55469C7.48829 4.13281 8.02344 3.92578 8.60157 3.96485C8.98829 3.99219 9.26954 4.08985 9.57813 4.30078C9.98829 4.58203 10.1406 4.54688 10.4258 4.1211C10.8398 3.4961 11.6445 3.00391 12.5195 2.83594C12.8711 2.76953 13.6758 2.79297 14.0273 2.87891ZM9.45313 6.62891C9.61329 6.9375 9.85547 7.16406 10.1953 7.32422C10.4336 7.4375 10.4922 7.44922 10.832 7.44922C11.1992 7.44922 11.2188 7.44531 11.5273 7.28516L11.8438 7.125L12.043 7.21875C12.9766 7.67188 14.2227 7.47656 14.9922 6.75781C15.2383 6.52735 15.25 6.51953 15.3516 6.57422C15.5664 6.6836 15.9688 7.12891 16.0898 7.39063C16.2539 7.73828 16.2969 7.97656 16.2969 8.53906V9.02344L15.7188 9.03516C15.1406 9.05078 15.1406 9.05078 14.8438 9.19531C14.4883 9.3711 14.2695 9.59766 14.0977 9.96094L13.9727 10.2227L13.9609 11.3828L13.9492 12.5469H13.5234C13.0508 12.5469 12.9219 12.5859 12.8359 12.7461C12.7656 12.8828 12.7656 12.9922 12.8359 13.1289C12.9297 13.3047 13.0391 13.3281 13.7617 13.3281C14.457 13.3281 14.6055 13.2969 14.6797 13.1445C14.6992 13.1055 14.7227 12.457 14.7344 11.707C14.7539 10.3516 14.7539 10.3398 14.8477 10.1914C14.8984 10.1094 15.0117 9.9961 15.0977 9.9375C15.2461 9.83985 15.2891 9.83203 15.7773 9.82031L16.2969 9.80469V11.3438V12.8789L15.8555 14.207C15.3867 15.6133 15.3438 15.7188 15.1953 15.8555C14.9805 16.0586 14.9336 16.0625 13.2109 16.0625C11.4453 16.0625 11.4414 16.0625 11.1914 15.8203C11.1211 15.7539 11.0391 15.6172 11.0078 15.5195C10.9727 15.4219 10.7539 14.5586 10.5156 13.6016C10.2773 12.6445 10.0625 11.793 10.043 11.707C10.0078 11.582 9.89454 11.4414 9.50001 11.043C9.20704 10.7461 8.97266 10.4727 8.93751 10.3906C8.88282 10.2656 8.87501 10 8.87501 8.61719C8.87501 7.44531 8.88672 6.94531 8.92188 6.82813C8.96485 6.6875 9.22266 6.375 9.29688 6.375C9.31251 6.375 9.38282 6.48828 9.45313 6.62891ZM8.09376 10.0586C8.09376 10.3477 8.17579 10.6602 8.32032 10.9063C8.37501 11.0039 8.6211 11.2852 8.86719 11.5391C9.30079 11.9805 9.31251 12 9.38282 12.2695L9.45313 12.5469H9.11329C8.54688 12.5469 8.0586 12.3672 7.66797 12.0156C7.33594 11.7148 7.00001 11 7.00001 10.5898C7.00001 10.125 7.33594 9.81641 7.85157 9.8125H8.09376V10.0586ZM9.94922 14.5469C10.1172 15.2188 10.2773 15.8164 10.3086 15.875C10.3555 15.9727 10.3555 15.9844 10.2969 15.9844C10.2617 15.9844 10.1172 15.9297 9.97266 15.8594C9.62501 15.6953 9.24219 15.3125 9.08204 14.9688C8.91797 14.6211 8.87501 14.3828 8.87501 13.8164V13.3281H9.26172H9.64844L9.94922 14.5469ZM9.03907 16.1602C9.30469 16.4063 9.85547 16.6914 10.2148 16.7695L10.4375 16.8164V17.25C10.4375 18.4648 10.8359 19.6172 11.5625 20.5117C11.6602 20.6289 11.7148 20.7148 11.6836 20.7031C11.6523 20.6914 11.1836 20.5352 10.6406 20.3555L9.65626 20.0273L8.17188 20.5234C7.35547 20.793 6.68751 21.0039 6.68751 20.9922C6.68751 20.9609 7.6211 16.8477 7.64844 16.7539C7.66407 16.6992 8.73047 15.9453 8.79297 15.9453C8.80079 15.9453 8.91016 16.043 9.03907 16.1602ZM15.0664 17.9922C14.9922 18.4648 14.8594 18.8711 14.6328 19.3047C14.4023 19.7539 14.1602 20.0625 13.625 20.5938L13.1719 21.043L12.7188 20.5938C12.1836 20.0625 11.9414 19.7539 11.7109 19.3047C11.3789 18.6641 11.2188 18 11.2188 17.2422V16.8438L13.0664 16.8398C14.0781 16.8359 14.9531 16.8242 15.0078 16.8086L15.1055 16.7813L15.1172 17.1953C15.125 17.4336 15.1016 17.7656 15.0664 17.9922Z" fill="#e8eaed"></path><path d="M10.6369 9.08594C10.4533 9.1875 10.3908 9.41406 10.4924 9.61328C10.5861 9.78906 10.6955 9.8125 11.4142 9.8125C12.133 9.8125 12.2424 9.78906 12.3361 9.61328C12.4416 9.41016 12.3674 9.16406 12.176 9.07812C12.0275 9.01172 10.7619 9.01562 10.6369 9.08594Z" fill="#e8eaed"></path><path d="M18.1758 18.4219C17.836 18.6094 17.9805 19.1484 18.3672 19.1484C18.5665 19.1484 18.7579 18.957 18.7579 18.7617C18.7579 18.4687 18.4336 18.2773 18.1758 18.4219Z" fill="#e8eaed"></path></g><defs><clipPath id="pushkin_0"><rect width="20" height="20" fill="white" transform="translate(2 2)"></rect></clipPath></defs></svg><svg viewBox="0 -960 960 960" fill="#e3e3e3" id="question_mark"><path d="M438.62-329.23q0-67.92 15.65-104t65.35-80q38.69-34.46 58.65-62.5t19.96-63.58q0-47.15-32.11-78.38-32.12-31.23-88.43-31.23-51.38 0-80 27.53-28.61 27.54-43.46 61.47l-73-32.08q23.31-57.46 72.77-95.81 49.46-38.34 123.69-38.34 96.92 0 149.19 54.65 52.27 54.65 52.27 129.73 0 46.92-20.34 82.81-20.35 35.88-61.73 74.73-52.08 47.77-64.5 75.34-12.43 27.58-12.43 79.66h-81.53ZM477.69-100q-24.54 0-42.27-17.73-17.73-17.73-17.73-42.27 0-24.54 17.73-42.27Q453.15-220 477.69-220q24.54 0 42.27 17.73 17.73 17.73 17.73 42.27 0 24.54-17.73 42.27Q502.23-100 477.69-100Z"></path></svg><svg fill="none" id="quote" viewBox="0 0 800 800"><path fill="#4B4B4B" d="M359.075 212.25 338.75 181C198.125 275.525 120 390.375 120 484.9c0 91.4 67.2 134.375 124.225 134.375 71.875 0 122.65-60.95 122.65-125 0-53.9-34.375-100-80.475-117.2-13.275-4.7-25.775-8.6-25.775-31.25 0-28.9 21.1-71.85 98.45-133.575m310.15 0L648.9 181c-139.075 94.525-218.75 209.375-218.75 303.9 0 91.4 68.75 134.375 125.775 134.375 72.65 0 124.225-60.95 124.225-125 0-53.9-35.15-100-82.825-117.2-13.275-4.7-25-8.6-25-31.25 0-28.9 21.875-71.875 96.875-133.6z"></path></svg><svg fill="#e8eaed" viewBox="0 -960 960 960" id="read"><path d="M260-319.23q49.69 0 96.69 11.27T450-272.61v-393.24q-42.15-27.46-91.23-41.19T260-720.77q-36 0-67.27 5.65-31.27 5.66-64.27 18.5-4.61 1.54-6.54 4.43-1.92 2.88-1.92 6.34v378.31q0 5.39 3.85 7.89 3.84 2.5 8.46.57 28.46-9.69 60.07-14.92 31.62-5.23 67.62-5.23m250 46.62q46.31-24.08 93.31-35.35T700-319.23q36 0 67.62 5.23 31.61 5.23 60.07 14.92 4.62 1.93 8.46-.57 3.85-2.5 3.85-7.89v-378.31q0-3.46-1.92-6.15-1.93-2.69-6.54-4.62-33-12.84-64.27-18.5-31.27-5.65-67.27-5.65-49.69 0-98.77 13.73T510-665.85zm-30 87.99q-48.38-35.69-104.38-55.15T260-259.23q-36.61 0-71.92 8.11Q152.77-243 120-227.23q-21.38 9.84-40.69-3.12T60-267.08v-434.3q0-12.93 6.66-24.27Q73.31-737 85.85-742q40.61-19.77 84.65-29.27t89.5-9.5q58.38 0 114.08 15.96 55.69 15.97 105.92 47.12 50.23-31.15 105.92-47.12 55.7-15.96 114.08-15.96 45.46 0 89.5 9.5T874.15-742q12.54 5 19.19 16.35 6.66 11.34 6.66 24.27v434.3q0 23.77-20.08 36.35-20.08 12.57-42.23 2.73-32.38-15.39-67.11-23.31T700-259.23q-59.62 0-115.62 19.46T480-184.62M285-496.69"></path></svg><svg viewBox="0 0 24 24" fill="none" id="relation"><g clip-path="url(#relation_0)"><path d="M11.1328 2.14073C10.3359 2.40635 9.76562 2.89854 9.35938 3.67198C9.16406 4.03135 9.14844 4.14854 9.14844 4.92979C9.14844 5.71885 9.16406 5.82041 9.35938 6.19541C9.64062 6.72666 9.96875 7.08604 10.4219 7.3751C11.8906 8.3126 13.8359 7.78135 14.5938 6.23448C14.8359 5.7501 14.8516 5.65635 14.8516 4.92979C14.8516 4.20323 14.8359 4.10948 14.5938 3.6251C14.2812 2.99229 13.7109 2.46104 13.0938 2.22666C12.4922 1.99229 11.6875 1.96104 11.1328 2.14073ZM12.7891 3.39073C13.0547 3.52354 13.2969 3.73448 13.4453 3.94541C13.6641 4.2501 13.6797 4.33604 13.6797 4.92979C13.6797 5.52354 13.6641 5.60948 13.4453 5.91416C13.1328 6.35166 12.5078 6.6876 12 6.6876C11.4922 6.6876 10.8672 6.35166 10.5547 5.91416C10.3359 5.60948 10.3203 5.52354 10.3203 4.92979C10.3203 4.33604 10.3359 4.2501 10.5547 3.94541C10.8672 3.50791 11.4922 3.17198 12 3.17198C12.2578 3.17198 12.5 3.24229 12.7891 3.39073Z" fill="#e8eaed"></path><path d="M6.80469 6.08594C5.50781 7.10938 4.78906 7.96875 4.14844 9.26562C3.65625 10.2422 3.25 11.6719 3.25 12.4375V12.7031H3.83594H4.42188V12.4453C4.42969 12.0156 4.71094 10.8672 4.97656 10.2344C5.45313 9.09375 6.49219 7.77344 7.54688 6.99219L7.8125 6.78906L7.50781 6.3125C7.33594 6.04688 7.17969 5.82812 7.15625 5.82812C7.13281 5.83594 6.97656 5.94531 6.80469 6.08594Z" fill="#e8eaed"></path><path d="M16.4922 6.3125L16.1875 6.78906L16.4531 6.99219C17.5078 7.77344 18.5469 9.09375 19.0234 10.2344C19.2891 10.8672 19.5703 12.0156 19.5781 12.4453V12.7031H20.1641H20.75V12.4375C20.75 12.2891 20.6953 11.8906 20.6328 11.5547C20.2266 9.42969 19.0547 7.52344 17.3281 6.19531C17.0703 5.99219 16.8438 5.82812 16.8281 5.82812C16.8125 5.82812 16.6641 6.04688 16.4922 6.3125Z" fill="#e8eaed"></path><path d="M4.24219 14.4219C3.42188 14.6328 2.63281 15.2969 2.25781 16.1016C2.07031 16.5078 2.03906 16.6641 2.03906 17.2734C2.04688 17.875 2.07812 18.0469 2.26562 18.4609C2.53906 19.0625 3.14844 19.6563 3.77344 19.9531C4.16406 20.1328 4.32812 20.1641 4.92969 20.1641C5.53125 20.1641 5.70312 20.1328 6.10938 19.9453C6.71094 19.6641 7.3125 19.0625 7.60156 18.4453C7.78906 18.0391 7.82031 17.8828 7.82031 17.2734C7.8125 16.6719 7.78125 16.5 7.59375 16.0938C7.32031 15.4922 6.71875 14.8906 6.11719 14.6172C5.61719 14.3828 4.75 14.2969 4.24219 14.4219ZM5.47656 15.6016C5.88281 15.7109 6.46094 16.3047 6.59375 16.7344C6.79688 17.4297 6.65625 17.9922 6.14844 18.4844C5.40625 19.2109 4.42969 19.2188 3.71094 18.4922C3 17.7891 2.98438 16.8047 3.66406 16.0859C4.15625 15.5703 4.76562 15.4063 5.47656 15.6016Z" fill="#e8eaed"></path><path d="M18.3203 14.4453C17.4922 14.6797 16.8125 15.2656 16.4219 16.0625C16.2109 16.5156 16.1797 16.6484 16.1797 17.2734C16.1797 17.8828 16.2109 18.0391 16.4062 18.4609C16.6797 19.0625 17.2891 19.6563 17.9141 19.9531C18.3047 20.1328 18.4688 20.1641 19.0703 20.1641C19.6719 20.1641 19.8438 20.1328 20.25 19.9453C20.8516 19.6641 21.4531 19.0625 21.7422 18.4453C21.9297 18.0391 21.9609 17.875 21.9609 17.2734C21.9609 16.6484 21.9375 16.5156 21.7188 16.0625C21.2422 15.0625 20.3281 14.4375 19.25 14.375C18.9141 14.3594 18.5312 14.3828 18.3203 14.4453ZM19.6172 15.6016C20.0312 15.7188 20.625 16.3125 20.7422 16.7266C20.9297 17.3984 20.7969 17.9609 20.3516 18.4453C19.6484 19.2031 18.6016 19.2188 17.8516 18.4844C17.1406 17.8047 17.125 16.8438 17.8047 16.1016C18.2891 15.5703 18.8984 15.4063 19.6172 15.6016Z" fill="#e8eaed"></path><path d="M8.33594 20.5078C8.20312 20.7656 8.09375 21.0078 8.09375 21.0469C8.09375 21.1484 9.5 21.6719 10.2031 21.8203C11.1172 22.0078 12.8906 22.0078 13.7891 21.8203C14.5234 21.6641 15.9062 21.1562 15.9062 21.0469C15.9062 21.0078 15.7969 20.7656 15.6641 20.5078C15.4766 20.1328 15.3984 20.0469 15.2969 20.0938C13.0469 21.0625 11.0703 21.0625 8.70312 20.0859C8.60156 20.0469 8.52344 20.1328 8.33594 20.5078Z" fill="#e8eaed"></path></g><defs><clipPath id="relation_0"><rect width="20" height="20" fill="white" transform="translate(2 2)"></rect></clipPath></defs></svg><svg fill="#e8eaed" viewBox="0 -960 960 960" id="remove"><path d="M220-450v-60h520v60z"></path></svg><svg fill="#e8eaed" viewBox="0 -960 960 960" id="rss"><path d="M200-120q-33 0-56.5-23.5T120-200t23.5-56.5T200-280t56.5 23.5T280-200t-23.5 56.5T200-120m480 0q0-117-44-218.5T516-516 338.5-636 120-680v-120q142 0 265 53t216 146 146 216 53 265zm-240 0q0-67-25-124.5T346-346t-101.5-69T120-440v-120q92 0 171.5 34.5T431-431t94.5 139.5T560-120z"></path></svg><svg viewBox="0 -960 960 960" fill="#e3e3e3" id="save"><path d="M820-671.54v459.23Q820-182 799-161q-21 21-51.31 21H212.31Q182-140 161-161q-21-21-21-51.31v-535.38Q140-778 161-799q21-21 51.31-21h459.23L820-671.54ZM760-646 646-760H212.31q-5.39 0-8.85 3.46t-3.46 8.85v535.38q0 5.39 3.46 8.85t8.85 3.46h535.38q5.39 0 8.85-3.46t3.46-8.85V-646ZM480-269.23q41.54 0 70.77-29.23Q580-327.69 580-369.23q0-41.54-29.23-70.77-29.23-29.23-70.77-29.23-41.54 0-70.77 29.23Q380-410.77 380-369.23q0 41.54 29.23 70.77 29.23 29.23 70.77 29.23ZM255.39-564.62h328.45v-139.99H255.39v139.99ZM200-646v446-560 114Z"></path></svg><svg viewBox="0 -960 960 960" fill="#e3e3e3" id="search"><path d="M781.69-136.92 530.46-388.16q-30 24.77-69 38.77-39 14-80.69 14-102.55 0-173.58-71.01-71.03-71.01-71.03-173.54 0-102.52 71.01-173.6 71.01-71.07 173.54-71.07 102.52 0 173.6 71.03 71.07 71.03 71.07 173.58 0 42.85-14.38 81.85-14.39 39-38.39 67.84l251.23 251.23-42.15 42.16ZM380.77-395.38q77.31 0 130.96-53.66 53.66-53.65 53.66-130.96t-53.66-130.96q-53.65-53.66-130.96-53.66t-130.96 53.66Q196.15-657.31 196.15-580t53.66 130.96q53.65 53.66 130.96 53.66Z"></path></svg><svg fill="#e8eaed" viewBox="0 -960 960 960" id="send"><path d="M140-190v-580l688.46 290zm60-90 474-200-474-200v147.69L416.92-480 200-427.69zm0 0v-400z"></path></svg><svg fill="#e8eaed" viewBox="0 -960 960 960" id="share"><path d="M672.22-100q-44.91 0-76.26-31.41-31.34-31.41-31.34-76.28 0-6 4.15-29.16L284.31-404.31q-14.46 15-34.36 23.5t-42.64 8.5q-44.71 0-76.01-31.54T100-480t31.3-76.15 76.01-31.54q22.74 0 42.64 8.5t34.36 23.5l284.46-167.08q-2.38-7.38-3.27-14.46-.88-7.08-.88-15.08 0-44.87 31.43-76.28Q627.49-860 672.4-860t76.25 31.44Q780-797.13 780-752.22t-31.41 76.26q-31.41 31.34-76.28 31.34-22.85 0-42.5-8.69Q610.15-662 595.69-677L311.23-509.54q2.38 7.39 3.27 14.46.88 7.08.88 15.08t-.88 15.08q-.89 7.07-3.27 14.46L595.69-283q14.46-15 34.12-23.69 19.65-8.69 42.5-8.69 44.87 0 76.28 31.43Q780-252.51 780-207.6t-31.44 76.25Q717.13-100 672.22-100m.09-60q20.27 0 33.98-13.71T720-207.69t-13.71-33.98q-13.71-13.72-33.98-13.72t-33.98 13.72q-13.72 13.71-13.72 33.98t13.72 33.98Q652.04-160 672.31-160m-465-272.31q20.43 0 34.25-13.71 13.83-13.71 13.83-33.98t-13.83-33.98q-13.82-13.71-34.25-13.71-20.11 0-33.71 13.71T160-480t13.6 33.98 33.71 13.71m465-272.3q20.27 0 33.98-13.72Q720-732.04 720-752.31t-13.71-33.98T672.31-800t-33.98 13.71q-13.72 13.71-13.72 33.98t13.72 33.98q13.71 13.72 33.98 13.72m0-47.7"></path></svg><svg fill="#e8eaed" viewBox="0 -960 960 960" id="share_off"><path d="M672.31-160q20.27 0 33.98-13.71T720-207.69t-13.71-33.98q-13.71-13.72-33.98-13.72t-33.98 13.72q-13.72 13.71-13.72 33.98t13.72 33.98Q652.04-160 672.31-160m0-544.61q20.27 0 33.98-13.72Q720-732.04 720-752.31t-13.71-33.98T672.31-800t-33.98 13.71q-13.72 13.71-13.72 33.98t13.72 33.98q13.71 13.72 33.98 13.72M100-471.15V-480q0-44.61 31.3-76.15t76.01-31.54q22.74 0 42.64 8.5t34.36 23.5l284.46-167.08q-2.38-7.38-3.27-14.46-.88-7.08-.88-15.08 0-44.87 31.43-76.28Q627.49-860 672.4-860t76.25 31.44Q780-797.13 780-752.22t-31.41 76.26q-31.41 31.34-76.28 31.34-22.85 0-42.5-8.69Q610.15-662 595.69-677L308-507.85q-14.69-3.42-29.77-5.48-15.07-2.05-30.54-2.05-41.15 0-78.57 11.46-37.43 11.46-69.12 32.77M672.22-100q-44.91 0-76.26-31.41-31.34-31.41-31.34-76.28 0-6 4.15-29.16l-54.16-32.54q-2-18.61-5.68-35.94-3.68-17.34-10.31-34.28L595.69-283q14.46-15 34.12-23.69 19.65-8.69 42.5-8.69 44.87 0 76.28 31.43Q780-252.51 780-207.6t-31.44 76.25Q717.13-100 672.22-100M247.69-67.69q-74.92 0-127.46-52.54T67.69-247.69q0-74.93 52.54-127.46 52.54-52.54 127.46-52.54 74.93 0 127.46 52.54 52.54 52.53 52.54 127.46 0 74.92-52.54 127.46-52.53 52.54-127.46 52.54m0-155.08 70 70.62 25.54-24.93-70.61-70.61 70.61-70.62-24.92-24.92-70.62 70.61-70.61-70.61-24.93 24.92 70.62 70.62-70.62 70.61 24.93 24.93zm424.62-529.54"></path></svg><svg viewBox="0 -960 960 960" fill="#e3e3e3" id="shelves"><path d="M140-58.08v-843.46h60v81.93h560v-81.93h60v843.46h-60V-140H200v81.92h-60ZM200-520h92.31v-155.38h215.38V-520H760v-239.62H200V-520Zm0 320h252.31v-155.38h215.38V-200H760v-260H200v260Zm152.31-320h95.38v-95.39h-95.38V-520Zm160 320h95.38v-95.39h-95.38V-200Zm-160-320h95.38-95.38Zm160 320h95.38-95.38Z"></path></svg><svg fill="#e8eaed" viewBox="0 -960 960 960" id="shopping_basket"><path d="M220.62-140q-19.62 0-35.35-11.42-15.73-11.43-20.73-30.66L63.77-543.54q-4-13.61 4.44-25.04Q76.65-580 91.62-580h197.85l166.07-245q5-6.38 10.81-9.5 5.8-3.11 13.42-3.11 7.61 0 13.42 3.31Q499-831 504-824.61L668.77-580H869q14.96 0 23.6 11.42 8.63 11.43 4.63 25.04L794.69-182.08q-5 19.23-20.73 30.66Q758.23-140 739-140zm-1.54-45.39h521.84q4.23 0 7.31-2.5t4.23-6.73l95.23-339.99H112.92l94.62 339.99q1.15 4.23 4.23 6.73t7.31 2.5m261.16-129.23q18.61 0 31.87-13.5 13.27-13.51 13.27-32.12t-13.5-31.87q-13.51-13.27-32.12-13.27t-31.87 13.5q-13.27 13.51-13.27 32.12t13.5 31.87q13.51 13.27 32.12 13.27M344.69-580h268.77L479.38-780zm135.93 220"></path></svg><svg fill="#e8eaed" viewBox="0 -960 960 960" id="sort"><path d="M140-260v-60h215v60zm0-190v-60h447.31v60zm0-190v-60h680v60z"></path></svg><svg fill="#e8eaed" viewBox="0 -960 960 960" id="sort_by_alpha"><path d="m92.31-288.46 149.23-383.08h63.69l148.46 383.08h-63.54l-34.76-95.23H190.61l-35.07 95.23zm116.92-147.08h125.54l-59.54-166.92H270zm347.23 147.08v-56.77l205.08-272H564.46v-54.31h265.08v56.77l-203.85 272h205.85v54.31zM369.23-763.85 480-874.61l110.77 110.76zM480-85.39 369.23-196.15h221.54z"></path></svg><svg preserveAspectRatio="xMidYMid meet" viewBox="0 0 100 100" style="background: none;" id="spinner"><g transform="rotate(0 50 50)"><rect x="48" y="13.5" rx="0" ry="0" width="4" height="23" fill="currentColor" style="opacity: 1;"></rect></g><g transform="rotate(30 50 50)"><rect x="48" y="13.5" rx="0" ry="0" width="4" height="23" fill="currentColor" style="opacity: 0.85%;"></rect></g><g transform="rotate(60 50 50)"><rect x="48" y="13.5" rx="0" ry="0" width="4" height="23" fill="currentColor" style="opacity: 0.17;"></rect></g><g transform="rotate(90 50 50)"><rect x="48" y="13.5" rx="0" ry="0" width="4" height="23" fill="currentColor" style="opacity: 0.255;"></rect></g><g transform="rotate(120 50 50)"><rect x="48" y="13.5" rx="0" ry="0" width="4" height="23" fill="currentColor" style="opacity: 0.34;"></rect></g><g transform="rotate(150 50 50)"><rect x="48" y="13.5" rx="0" ry="0" width="4" height="23" fill="currentColor" style="opacity: 0.425;"></rect></g><g transform="rotate(180 50 50)"><rect x="48" y="13.5" rx="0" ry="0" width="4" height="23" fill="currentColor" style="opacity: 0.5;"></rect></g><g transform="rotate(210 50 50)"><rect x="48" y="13.5" rx="0" ry="0" width="4" height="23" fill="currentColor" style="opacity: 0.585;"></rect></g><g transform="rotate(240 50 50)"><rect x="48" y="13.5" rx="0" ry="0" width="4" height="23" fill="currentColor" style="opacity: 0.67;"></rect></g><g transform="rotate(270 50 50)"><rect x="48" y="13.5" rx="0" ry="0" width="4" height="23" fill="currentColor" style="opacity: 0.755;"></rect></g><g transform="rotate(300 50 50)"><rect x="48" y="13.5" rx="0" ry="0" width="4" height="23" fill="currentColor" style="opacity: 0.84;"></rect></g><g transform="rotate(330 50 50)"><rect x="48" y="13.5" rx="0" ry="0" width="4" height="23" fill="currentColor" style="opacity: 0.925;"></rect></g></svg><svg fill="none" id="tg" viewBox="0 0 24 24"><path fill="#fff" d="M17.197 6.704 5.712 11.093c-.467.186-.524.748-.048.909l2.909 1.016 6.822-4.266a.13.13 0 0 1 .165.033.13.13 0 0 1-.011.167l-5.368 4.775-.362 2.824a.21.21 0 0 0 .116.215.21.21 0 0 0 .243-.04l1.712-1.677 2.874 2.21a.675.675 0 0 0 .95-.4l2.053-9.7a.4.4 0 0 0-.142-.403.41.41 0 0 0-.428-.052"></path></svg><svg viewBox="0 -960 960 960" fill="#e3e3e3" id="thumb_down"><path d="M250.77-803.84h420.77v479.99L406.15-60l-33.84-33.85q-6.23-6.23-10.35-16.5-4.11-10.27-4.11-19.34v-10.16l42.46-184h-268q-28.54 0-50.42-21.88Q60-367.62 60-396.15v-64.62q0-6.23 1.62-13.46 1.61-7.23 3.61-13.46l114.62-270.46q8.61-19.23 28.84-32.46t42.08-13.23Zm360.77 60H250.77q-4.23 0-8.65 2.3-4.43 2.31-6.74 7.7L120-463.84v67.69q0 5.38 3.46 8.84 3.46 3.47 8.85 3.47h343.84L426-164.61l185.54-184.77v-394.46Zm0 394.46v-394.46 394.46Zm60 25.53v-59.99H800v-360H671.54v-60H860v479.99H671.54Z"></path></svg><svg viewBox="0 -960 960 960" fill="#e3e3e3" id="thumb_down_fill"><path d="M250.77-803.84h396.15v479.99L381.54-60 347.7-93.85q-6.24-6.23-10.35-16.5-4.12-10.27-4.12-19.34v-10.16l42.47-184H132.31q-28.54 0-50.42-21.88Q60-367.62 60-396.15v-64.62q0-6.23 1.31-13.46t3.92-13.46l114.62-270.46q8.61-19.23 28.84-32.46t42.08-13.23Zm456.15 479.99v-479.99H860v479.99H706.92Z"></path></svg><svg viewBox="0 -960 960 960" fill="#e3e3e3" id="thumb_up"><path d="M709.23-140H288.46v-480l265.39-263.84L587.69-850q6.23 6.23 10.35 16.5 4.11 10.27 4.11 19.35V-804l-42.46 184h268q28.54 0 50.42 21.89Q900-576.23 900-547.69v64.61q0 6.23-1.62 13.46-1.61 7.23-3.61 13.47L780.15-185.69q-8.61 19.23-28.84 32.46T709.23-140Zm-360.77-60h360.77q4.23 0 8.65-2.31 4.43-2.31 6.74-7.69L840-480v-67.69q0-5.39-3.46-8.85t-8.85-3.46H483.85L534-779.23 348.46-594.46V-200Zm0-394.46V-200v-394.46Zm-60-25.54v60H160v360h128.46v60H100v-480h188.46Z"></path></svg><svg viewBox="0 -960 960 960" fill="#e3e3e3" id="thumb_up_fill"><path d="M709.23-140H313.08v-480l265.38-263.84L612.3-850q6.24 6.23 10.35 16.5 4.12 10.27 4.12 19.35V-804L584.3-620h243.39q28.54 0 50.42 21.89Q900-576.23 900-547.69v64.61q0 6.23-1.31 13.46t-3.92 13.47L780.15-185.69q-8.61 19.23-28.84 32.46T709.23-140ZM253.08-620v480H100v-480h153.08Z"></path></svg><svg viewBox="0 -960 960 960" fill="#e3e3e3" id="travel_explore"><path d="M480-100q-78.77 0-148.11-29.96-69.35-29.96-120.66-81.27-51.31-51.31-81.27-120.66Q100-401.23 100-480q0-78.77 29.96-148.11 29.96-69.35 81.27-120.66 51.31-51.31 120.66-81.27Q401.23-860 480-860q142.92 0 248.38 91.89 105.47 91.88 126.31 228.73h-61.23q-14.77-79.93-65.61-143.2Q677-745.85 600-776.77V-760q0 33-23.5 56.5T520-680h-80v80q0 17-11.5 28.5T400-560h-80v80h76.92v120H360L168-552q-3 18-5.5 36t-2.5 36q0 131 92 225t228 95v60Zm362.46-15.39-133-132.23q-19.46 12.39-41.92 20Q645.08-220 620-220q-66.92 0-113.46-46.54Q460-313.08 460-380q0-66.92 46.54-113.46Q553.08-540 620-540q66.92 0 113.46 46.54Q780-446.92 780-380q0 25.46-7.81 48.12-7.81 22.65-20.58 42.11l133 132.23-42.15 42.15ZM620-280q42 0 71-29t29-71q0-42-29-71t-71-29q-42 0-71 29t-29 71q0 42 29 71t71 29Z"></path></svg><svg fill="#e8eaed" viewBox="0 -960 960 960" id="tune"><path d="M450-130v-220h60v80h320v60H510v80zm-320-80v-60h220v60zm160-160v-80H130v-60h160v-80h60v220zm160-80v-60h380v60zm160-160v-220h60v80h160v60H670v80zm-480-80v-60h380v60z"></path></svg><svg fill="#e3e3e3" viewBox="0 -960 960 960" id="upload"><path d="M450-328.46v-336l-98.61 98.61-42.16-43.38L480-780l170.77 170.77-42.16 43.38L510-664.46v336zM252.31-180Q222-180 201-201t-21-51.31v-108.46h60v108.46q0 4.62 3.85 8.46 3.84 3.85 8.46 3.85h455.38q4.62 0 8.46-3.85 3.85-3.84 3.85-8.46v-108.46h60v108.46Q780-222 759-201t-51.31 21z"></path></svg><svg fill="#e8eaed" viewBox="0 -960 960 960" id="view_grid"><path d="M140-520v-300h300v300zm0 380v-300h300v300zm380-380v-300h300v300zm0 380v-300h300v300zM200-580h180v-180H200zm380 0h180v-180H580zm0 380h180v-180H580zm-380 0h180v-180H200zm180-380"></path></svg><svg fill="#e8eaed" viewBox="0 -960 960 960" id="view_list"><path d="M350-240h437.69q4.62 0 8.46-3.85 3.85-3.84 3.85-8.46V-357H350zM160-603h130v-117H172.31q-4.62 0-8.46 3.85-3.85 3.84-3.85 8.46zm0 187h130v-127H160zm12.31 176H290v-117H160v104.69q0 4.62 3.85 8.46 3.84 3.85 8.46 3.85M350-416h450v-127H350zm0-187h450v-104.69q0-4.62-3.85-8.46-3.84-3.85-8.46-3.85H350zM172.31-180Q142-180 121-201t-21-51.31v-455.38Q100-738 121-759t51.31-21h615.38Q818-780 839-759t21 51.31v455.38Q860-222 839-201t-51.31 21z"></path></svg><svg fill="none" id="vk" viewBox="0 0 24 24"><path fill="#fff" d="M5.563 8.435H7.77a.225.225 0 0 1 .213.149c.244.639 1.259 3.138 2.187 3.342.69 0 .446-3.325-.43-3.325-.23 0 .407-.414.45-.431a4.64 4.64 0 0 1 2.49 0c.44.187.514.709.526 1.152.011.443-.489 2.333.17 2.537.862.268 1.971-2.476 2.23-3.15a.23.23 0 0 1 .212-.145h2.458a.23.23 0 0 1 .192.103.24.24 0 0 1 .02.22 22 22 0 0 1-1.813 3.36.47.47 0 0 0 .046.583c.736.799 2.748 3.062 1.598 3.062h-2.48a.45.45 0 0 1-.34-.155c-.385-.431-1.506-1.633-2.012-1.537-.42.08-.46.802-.44 1.275a.47.47 0 0 1-.114.333.46.46 0 0 1-.31.156c-.44.027-1.041.039-1.096.036-1.753-.114-2.79-1.301-3.783-2.625a16.5 16.5 0 0 1-2.4-4.63.24.24 0 0 1 .114-.283.23.23 0 0 1 .105-.027"></path></svg><svg fill="#e8eaed" viewBox="0 -960 960 960" id="warning"><path d="M74.62-140 480-840l405.38 700zM178-200h604L480-720zm302-47.69q13.73 0 23.02-9.29t9.29-23.02-9.29-23.02-23.02-9.29-23.02 9.29-9.29 23.02 9.29 23.02 23.02 9.29m-30-104.62h60v-200h-60zM480-460"></path></svg><svg viewBox="0 -960 960 960" fill="#e3e3e3" id="waving_hand"><path d="m438.85-495.38 268.38-268.77q9.31-9.31 21.08-9.31 11.77 0 21.07 9.31 9.31 9.31 9.31 21.07 0 11.77-9.31 21.08L481.61-453.62l-42.76-41.76Zm95.92 95.53 239.77-240.38q9.31-9.31 21.38-9.31 12.08 0 21.39 9.31 9.3 9.31 9.3 21.38 0 12.08-9.3 21.39L577.15-357.69l-42.38-42.16ZM219.46-220.23q-85.61-85.62-85.42-205.54.19-119.92 86.19-205.92L337.54-749l49.38 49.77q8.93 8.92 14.31 19.12 5.39 10.19 8.85 21.65l146.46-147.08q9.31-9.3 21.38-9.3 12.08 0 21.39 9.3 9.3 9.31 9.3 21.39 0 12.07-9.3 21.38L425.92-589.38l-73.84 73.61 19.38 19.39q42.15 42.15 40.92 101.15-1.23 59-44 101.77l-3.84 3.84-42.39-42.15 3.47-3.85q24.92-24.92 26.46-59.3 1.54-34.39-23.39-59.31l-36.23-35.62q-10.84-10.84-10.84-25.8 0-14.97 10.84-25.81l50.85-49.85q13.92-13.92 13.92-33.5 0-19.57-13.92-33.5l-5.77-5.77-75.16 74.77Q194-520.92 193.42-425.85q-.57 95.08 67.81 163.47Q329.61-194 425.58-194q95.96 0 164.34-68.38l225.92-226.54q9.31-9.31 21.39-9.31t21.38 9.31q9.31 9.31 9.31 21.38 0 12.08-9.31 21.39L631.69-220.23q-86 86-206.11 86-120.12 0-206.12-86Zm205.92-206.31ZM665.38-64l-.38-60.62q70.61 0 120.5-49.88 49.88-49.89 49.88-120.5l60.62.38q0 95.77-67.42 163.2Q761.15-64 665.38-64ZM64-665.38q0-95.77 67.42-163.2Q198.85-896 294.62-896l.38 60.62q-70.61 0-120.5 49.88-49.88 49.89-49.88 120.5L64-665.38Z"></path></svg></svg>