<svg xmlns="http://www.w3.org/2000/svg" width="24" height="24" fill="#e3e3e3" viewBox="0 -960 960 960"><path d="M480-100q-78.77 0-148.11-29.96-69.35-29.96-120.66-81.27t-81.27-120.66Q100-401.23 100-480t29.96-148.11q29.96-69.35 81.27-120.66t120.66-81.27Q401.23-860 480-860q142.92 0 248.38 91.89 105.47 91.88 126.31 228.73h-61.23q-14.77-79.93-65.61-143.2Q677-745.85 600-776.77V-760q0 33-23.5 56.5T520-680h-80v80q0 17-11.5 28.5T400-560h-80v80h76.92v120H360L168-552q-3 18-5.5 36t-2.5 36q0 131 92 225t228 95zm362.46-15.39-133-132.23q-19.46 12.39-41.92 20Q645.08-220 620-220q-66.92 0-113.46-46.54T460-380t46.54-113.46T620-540t113.46 46.54T780-380q0 25.46-7.81 48.12-7.81 22.65-20.58 42.11l133 132.23zM620-280q42 0 71-29t29-71-29-71-71-29-71 29-29 71 29 71 71 29"/></svg>