<svg xmlns="http://www.w3.org/2000/svg" width="24" height="24" fill="#e3e3e3" viewBox="0 -960 960 960"><path d="M182.15-140 140-182.15 445.23-488l-174.84-43.08L453-644.46 437.16-860l164.76 139.08L801-802l-80.08 199.69L860-438.16 644.46-453l-114 182.61L487-445.23zm23.62-523.85L140-729.62l65.77-65.76 65.77 65.76zM555-422.61l57.23-93.24 109.54 8.16L651-591.77l41.16-101.39L590.77-652l-84.08-70.16 8.16 108.93L422-555.38l106.15 26.23zM729.62-140l-65.77-65.77 65.77-65.77 65.76 65.77zM572.08-572.69"/></svg>