<svg xmlns="http://www.w3.org/2000/svg" width="118" height="110" fill="none">
	<defs />
	<g fill="#fff" clip-path="url(#prefix__clip0_70_2)">
		<path d="M20.74 22.68c-1.06-2.35-1.83-4.81-2.5-7.31.83 2.44 1.67 4.88 2.5 7.31zM21.22 10.38c.76-.54 1.52-1.08 2.27-1.61-.62.74-1.4 1.24-2.27 1.61zM17.61 9.73c-1.03.33-2.03.77-3.14.84 1.03-.33 2.06-.66 3.09-1 .01.05.03.1.04.15l.01.01zM14.84 11.16c.65-.21 1.29-.42 1.94-.62l.03.09c-.31.1-.62.2-.92.3-.33.11-.67.21-1 .32-.02-.03-.03-.05-.05-.08v-.01zM21.5 9.43c.43-.2.86-.4 1.28-.6l.06.12c-.43.2-.86.39-1.29.59-.02-.04-.03-.07-.05-.11zM21.01 30.85c.22-1.56.39-3.02.18-4.54.48.86.39 3.66-.18 4.54z" />
		<path d="M24.32 9.66c.49-.53.5-1.16.15-1.85-.34-.67-.88-.99-1.61-.93-.39.04-.79.11-1.16.24-1.04.35-2.08.74-3.11 1.12-.53.19-1.05.41-1.58.59-1.24.43-2.5.79-3.68 1.37-.28.14-.47.31-.59.6-.26.62-.03 1.42.64 1.83.75.46 1.47 1.05 2.49.88.17.48.38.92.49 1.38.3 1.37.77 2.68 1.28 3.98.86 2.2 1.44 4.48 1.85 6.79.1.58.13 1.21.04 1.8-.26 1.71-.67 3.38-1.39 4.97-.86 1.92-1.69 3.85-2.56 5.76-.99 2.2-1.98 4.41-2.72 6.71-.52 1.64-.8 3.31-.77 5.04.02 1.06.25 2.06.82 2.97.63 1 1.56 1.47 2.7 1.31.93-.13 1.85-.43 2.77-.66.24-.06.47-.16.71-.23 1.81-.49 3.61-.97 5.42-1.45.78-.21 1.57-.39 2.36-.57.57-.13 1.15-.19 1.7-.37 3-.99 6-1.99 9-3.01 1.22-.41 2.44-.83 3.64-1.31 1.2-.48 2.35-1.06 3.32-1.94.69-.63 1.07-1.42 1.29-2.31.17-.67-.11-1.22-.35-1.84-.54-1.35-1.37-2.48-2.39-3.47-1.86-1.82-3.9-3.43-6.03-4.94a82.091 82.091 0 01-4.23-3.19c-.95-.77-1.78-1.7-2.73-2.47-1.14-.92-1.83-2.09-2.23-3.45-.64-2.14-1.54-4.17-2.36-6.25-.74-1.88-1.43-3.77-2.14-5.66-.06-.17-.11-.35-.16-.51.43-.35.81-.6 1.12-.93zm-4.98 4.28h.03c-.12-.38-.25-.76-.38-1.18l1.07-.35c.1.24.21.49.35.83-.08-.35-.13-.59-.2-.9.58-.22 1.16-.43 1.77-.66.08.16.17.28.21.4.58 1.76 1.14 3.53 1.75 5.27.6 1.73 1.24 3.44 2.13 5.05.03.05.07.09.09.12-.67-1.79-1.38-3.59-2.02-5.41-.64-1.82-1.22-3.66-1.84-5.55.19-.08.42-.17.69-.27.06.19.11.34.16.5.8 2.59 1.74 5.12 2.77 7.62.49 1.19.92 2.41 1.31 3.64.48 1.49 1.16 2.83 2.42 3.84.97.78 1.81 1.73 2.78 2.51 1.39 1.12 2.82 2.2 4.28 3.23 2.09 1.49 4.09 3.08 5.93 4.87 1.07 1.04 1.92 2.23 2.52 3.61.18.41.12.82.02 1.22-.26 1.09-.89 1.9-1.82 2.51-1.34.87-2.82 1.42-4.31 1.94-2.57.9-5.14 1.81-7.72 2.69-1.28.43-2.58.81-3.89 1.16-1.1.3-2.23.49-3.34.78-1.47.39-2.92.83-4.38 1.27-.68.2-1.34.45-2.01.67-.29.1-.65.32-.87.23-.34-.14-.56.09-.83.07-.31-.03-.62-.03-.93-.06-.89-.09-1.47-.62-1.86-1.39-.36-.72-.52-1.49-.54-2.29-.03-1.73.27-3.4.81-5.03.74-2.24 1.71-4.38 2.67-6.53.85-1.9 1.67-3.81 2.53-5.71.72-1.61 1.12-3.31 1.42-5.03.2-1.18-.07-2.32-.33-3.46-.52-2.32-1.23-4.58-2.13-6.78-.48-1.19-.8-2.44-1.22-3.72.55-.18 1.09-.35 1.71-.55.19.49.38.98.56 1.48.03 0 .05-.02.08-.03-.16-.51-.33-1.01-.5-1.55.15-.07.26-.12.46-.21.21.41.39.78.58 1.14l.02.01zm2.06-6.2c.43-.15.88-.24 1.33-.32.6-.11.95.08 1.22.61.31.6.29.98-.2 1.4-.56.48-1.11.97-1.85 1.21-.73.24-1.39.64-2.09.96-.62.28-1.23.52-1.95.54-.67.01-1.35.25-2.01.4-.65.15-1.21.06-1.75-.36-.47-.37-.56-.85-.55-1.38 0-.25.19-.34.4-.41.96-.34 1.91-.69 2.87-1.03 0 .01.01.03.02.04 1.52-.55 3.04-1.12 4.57-1.65l-.01-.01z" />
		<path d="M33.58 34.57c-.64-.19-1.06.14-1.05.81 0 .12.03.25.03.37 0 .36-.05.42-.42.47-.53.06-.97-.13-1.38-.44-.31-.23-.65-.47-1.01-.57-.76-.21-1.38.23-1.47 1.01-.03.31-.01.62.02.93.04.41.14.82.18 1.23.06.68-.23 1.12-.87 1.34-.58.2-1.17.18-1.67-.2-.4-.3-.76-.64-1.1-1.01-.39-.43-.72-.92-1.12-1.34-.26-.28-.32-.55-.23-.9.09-.38.13-.78.19-1.17-.04 0-.09-.01-.13-.02-.1.5-.19.99-.3 1.56-.22-.16-.36-.27-.5-.37.2-1.08.49-2.11.46-3.18-.21 1.03-.41 2.06-.62 3.09-1.17-.19-1.23-.18-2.38.32.15-.5.31-.97.42-1.45.11-.49.35-.97.26-1.5-.07.01-.1 0-.1.02-.06.13-.12.26-.16.39-.4 1.4-.93 2.76-1.53 4.09-.82 1.8-1.64 3.6-2.4 5.43-.5 1.21-.9 2.46-1.32 3.7-.19.56-.21 1.14-.08 1.73.18.81.77 1.35 1.58 1.47.67.1 1.33.09 1.98-.06 2.01-.46 4.02-.87 5.98-1.54.73-.25 1.47-.47 2.21-.68 1.32-.37 2.66-.68 3.96-1.09 1.91-.6 3.78-1.28 5.68-1.9 1.02-.33 1.95-.82 2.89-1.32.62-.33.87-.87.86-1.54 0-.89-.39-1.64-.88-2.36-.92-1.32-2.06-2.45-3.17-3.6-.72-.75-1.57-1.34-2.53-2 .09.22.13.32.2.52-.22-.09-.35-.16-.48-.2v-.04zm-10.96 2.36c.78.22.36.85.48 1.31.06-.21.12-.41.21-.71.26.33.48.6.7.87.46.59.93 1.18 1.56 1.6.84.56 1.72.57 2.6.12.7-.36 1.01-.97.93-1.75-.03-.29-.11-.57-.14-.86-.04-.39-.1-.79-.09-1.18.02-.49.37-.7.83-.52.24.1.47.27.67.44.56.47 1.18.67 1.91.58.67-.09.92-.37.89-1.03 0-.2-.01-.4-.02-.68.61.1 1.02.75 1.67.45.34.33.68.62.99.96 1.11 1.21 2.3 2.35 3.22 3.72.3.44.56.93.72 1.44.28.88.05 1.28-.76 1.73-1.28.71-2.67 1.16-4.05 1.62-1.98.65-3.95 1.32-5.93 1.96-.49.16-1.01.24-1.51.38-1.68.49-3.34 1.02-5.03 1.48-1.38.37-2.79.68-4.19.96-.42.09-.87.05-1.3 0-.71-.07-1.2-.54-1.24-1.26-.03-.45-.01-.93.12-1.35.41-1.29.85-2.57 1.36-3.82.82-2 1.68-3.99 2.58-5.96.28-.62.92-.87 1.58-.92.33-.03.68.1 1.02.15-.06.47-.1.86-.15 1.24h-.01c.12-.32.24-.64.37-.98l.01.01zM31.2 31.5c-.19-.15-.4-.28-.58-.45-1.71-1.6-3.06-3.48-4.18-5.52-.02-.03 0-.08-.02-.18.09.08.18.12.22.19 1.23 2.13 2.68 4.08 4.49 5.76.04.04.06.11.09.16l-.02.04zM30.19 31.54c-.1-.06-.23-.09-.3-.17-.99-1.01-1.97-2.02-2.95-3.04a1.38 1.38 0 01-.33-.62c.43.47.85.95 1.29 1.41.65.68 1.31 1.34 1.96 2.01.13.13.22.29.33.43v-.02zM40.58 45.29c-1.55.61-3.1 1.23-4.65 1.84-.01-.03-.03-.06-.04-.1 1.55-.64 3.09-1.27 4.64-1.91.02.05.03.11.05.16v.01zM36.73 46.03c.86-.37 1.67-.73 2.49-1.09-.34.37-1.46.86-2.49 1.09zM15.22 43.71c.23-.76.45-1.52.68-2.28.04.01.09.03.13.04-.17.78-.45 1.53-.69 2.3l-.12-.06zM41.17 43.05c.31-.58.62-1.16.5-1.98.32.65.14 1.3-.5 1.98zM14.88 42.66c-.16.66-.32 1.32-.49 1.98-.03-.71.12-1.37.45-2l.04.02zM42.55 41.92c-.08.59-.25.87-.72 1.19.24-.39.46-.76.72-1.19zM14.08 51.71c-.33-.14-.45-.44-.54-.77.19.24.37.49.56.73l-.02.04z" />
		<path d="M31.22 31.46c.22.16.43.32.65.48-.03.04-.07.08-.1.11-.19-.18-.38-.37-.57-.55l.02-.04zM14.84 42.64c.07-.24.14-.48.2-.72.05.02.1.04.14.05-.1.23-.21.46-.31.69l-.04-.02h.01zM15.48 51.51l.71.05c-.25.09-.5.17-.71-.06v.01zM15.35 52.32h.59c-.2.15-.4.17-.61.03l.02-.04v.01zM39.05 35.33c-.13-.11-.26-.22-.39-.34l.06-.06c.13.11.26.23.39.34l-.06.06zM30.18 31.55c.17.12.35.23.52.35-.03.04-.06.07-.1.11l-.41-.47v.01h-.01zM40.69 36.77l-.41-.35c.02-.03.04-.05.07-.07.13.12.27.23.4.35-.02.02-.04.05-.06.07zM15.48 51.5c-.19-.03-.38-.05-.57-.08.23-.13.41-.09.57.09v-.01zM14.1 51.67c.16.09.33.19.49.28-.03.04-.05.08-.08.12-.14-.12-.29-.24-.43-.36l.02-.04z" />
		<path d="M15.34 52.36c-.19-.04-.37-.08-.56-.13.01-.05.03-.09.04-.14.18.08.35.15.53.23l-.02.04h.01zM20.24 43.56c.21-.01.33-.05.43-.02.6.19 1.17.98 1.18 1.62.01.66-.4 1.23-.94 1.28-.6.06-1.23-.44-1.35-1.06-.12-.68.23-1.19 1.07-1.38-.2.15-.3.23-.4.31-.57.46-.44 1.34.23 1.64.36.16.71.02.87-.36.17-.41.07-.79-.18-1.11-.24-.3-.54-.55-.91-.92zM28.18 43.05c.35.31.78.28 1.04-.04.28-.34.26-.85-.09-1.1a2.1 2.1 0 00-.85-.33c-.37-.06-.47.05-.51.44-.02.16 0 .32 0 .51.14.18.26.38.42.53l-.01-.01zm.67-.77c.07.1.06.31 0 .43-.03.07-.28.1-.37.04a.831.831 0 01-.33-.41c-.03-.08.12-.22.21-.37.19.11.38.18.48.31h.01zM31.23 40.44c.11.31.41.45.7.33.34-.14.62-.63.51-.91-.1-.25-.5-.4-.81-.3-.33.11-.52.53-.4.87v.01zm.75-.34c0 .11-.16.22-.25.33-.05-.01-.09-.03-.14-.04-.02-.16-.05-.31-.07-.47.06-.03.11-.07.17-.1.1.09.29.19.29.28zM33.35 38.43c.29.06.53.2.68.47.13.22.13.44-.07.62-.17.16-.38.18-.57.05-.21-.14-.29-.34-.2-.59.06-.17.1-.35.17-.55h-.01zM22.61 42.1c.34.28.4.59.29.92-.04.12-.22.23-.35.26-.05.01-.21-.18-.23-.29-.05-.31 0-.61.3-.88l-.01-.01zM22.09 38.62c.05-.24.11-.47.16-.71h-.01c-.06.24-.11.47-.17.71h.02z" />
		<path d="M22.08 38.61l-.05.64a.54.54 0 01.06-.63h-.02l.01-.01zM22.81 39.16c.04-.17.08-.33.13-.49.03 0 .05 0 .08.01-.04.16-.07.33-.11.49h-.09l-.01-.01zM68.47 10.09c-.05.73-.13 1.46-.16 2.2-.02.48-.17.72-.59.82-.72.18-1.43.43-2.14.68-.23.08-.43.26-.78.47.9 1.07 2.05 1.02 2.98 1.56-.05.59-.12 1.17-.14 1.76-.01.39-.07.88.32 1.07.41.19.6-.26.81-.57.38-.55.74-1.11 1.12-1.68.41.17.75.33 1.1.46.35.13.66.57 1.13.19-.12-.97-.92-1.5-1.12-2.38.54-1.14 1.49-1.87 2.04-2.95l-.09-.18c-.97.32-1.93.64-2.88.95-.5-.88-.73-1.84-1.36-2.47-.09.02-.17.05-.26.07h.02zm1.22 5.62c-.41-.12-.81-.24-1.28-.37.08-.67.15-1.28.23-1.94.38-.1.73-.18 1.15-.29.2.51.38.99.58 1.52-.25.39-.45.71-.69 1.08h.01zm-3.95-1.22c0-.07 0-.14-.01-.21.75-.34 1.53-.52 2.44-.74-.08.59-.15 1.06-.23 1.69-.81-.27-1.5-.51-2.2-.74zm2.45 3.59c-.14-.86-.06-1.47.15-2.13.3.07.59.15 1.04.26l-1.19 1.88v-.01zm2.51-3.98c-.16-.41-.28-.72-.43-1.11.54-.19 1-.34 1.46-.5l.06.12c-.33.46-.67.91-1.08 1.48l-.01.01zm-1.95-1.36v-.86c0-.25.02-.49.04-.86.42.48.62.96.72 1.58-.27.05-.5.08-.76.13v.01zm1.48 3.15c.15-.24.26-.41.4-.64.18.32.33.57.47.82-.03.05-.05.09-.08.14-.23-.09-.47-.19-.79-.32zM6.94 60.69c-.22.1-.47.13-.67.25-1.68 1.03-3.37 2.07-5.03 3.13-.39.25-.72.59-1.04.93-.11.11-.15.32-.17.49-.03.23-.02.47 0 .71.02.28 0 .58.1.84.26.68.55 1.35.88 2.01.32.64.72 1.23 1.04 1.87.51 1 .99 2.01 1.49 3.02.96 1.96 1.95 3.9 2.87 5.88 1.29 2.77 2.5 5.58 3.79 8.35 1.28 2.73 2.62 5.44 3.94 8.15.5 1.02.99 2.05 1.56 3.04.5.87 1.19 1.51 2.27 1.67 1.22.18 2.2.77 2.88 1.85.84 1.35 1.75 2.65 2.62 3.98.34.52.36.54.98.61.07.13.14.28.21.42.28.52.54 1.05.84 1.56.23.39.44.4.7.07.25-.32.48-.66.7-1 .27-.42.33-.88.14-1.34-.11-.28-.27-.54-.41-.82.32-.36.29-.73.16-1.12-.36-1.04-.67-2.1-1.07-3.12-.79-2-.7-3.89.48-5.72.08-.13.15-.31.14-.45-.06-.58-.08-1.17-.37-1.71-.41-.75-.78-1.52-1.16-2.29-1.08-2.19-2.14-4.4-3.25-6.58-1.65-3.25-3.34-6.49-5-9.74-.85-1.67-1.63-3.38-2.47-5.06-.86-1.74-1.73-3.46-2.61-5.19-.56-1.11-1.12-2.22-1.71-3.32-.38-.71-.86-1.28-1.84-.95-.24-.46-.54-.61-.98-.41l-.01-.01zm17.11 46.42c-.17-.24-.32-.42-.44-.62-.61-.99-1.21-1.98-1.83-2.96-.32-.5-.67-.97-1.03-1.44-.69-.9-1.66-1.29-2.75-1.42-.89-.11-1.53-.58-1.92-1.33-.68-1.28-1.29-2.59-1.93-3.89-.36-.75-.71-1.51-1.06-2.27-1.52-3.25-3.03-6.5-4.55-9.75-1.33-2.84-2.64-5.7-3.98-8.53-.71-1.49-1.46-2.96-2.21-4.43-.5-.98-1.05-1.94-1.57-2.9-.08-.14-.16-.29-.19-.45-.14-.67-.14-1.29.59-1.68.45-.24.85-.56 1.29-.81 1.44-.81 2.88-1.61 4.32-2.41.23-.13.46-.26.7-.37.75-.37 1.23-.25 1.73.43.19.26.35.55.5.84.98 1.97 1.95 3.95 2.93 5.92 1.72 3.45 3.44 6.89 5.18 10.33 1.42 2.8 2.89 5.57 4.32 8.37.99 1.94 1.96 3.9 2.94 5.85.13.25.27.51.43.74.5.73.51 1.32.08 2.08-.97 1.7-1.18 3.49-.5 5.35.45 1.24.91 2.49 1.37 3.73.03.09.05.19.11.39-.85.43-1.66.84-2.52 1.28l-.01-.05zM.84 64.97c.13-.33.37-.61.68-.8 1.2-.72 2.41-1.43 3.61-2.15.45-.27.9-.55 1.36-.81.26-.14.54-.3.95 0-2.24 1.27-4.42 2.51-6.61 3.75l.01.01zm23.94 42.35c.147-.073.357.103.63.53-.1-.28-.18-.52-.26-.75.04-.02.09-.05.13-.07.14.2.28.39.48.69-.12-.32-.2-.53-.3-.77.25-.13.48-.24.71-.36.71 1.06.59 1.46-.43 2.62-.33-.64-.64-1.27-.96-1.89z" />
		<path d="M23.97 96.61c-2.03 1.29-4.29 2.09-6.52 2.99.09-.09.17-.19.28-.25.41-.22.83-.45 1.25-.64 1.59-.73 3.19-1.45 4.78-2.17.05-.02.11-.03.17-.05l.04.12zM10.98 85.44a30.323 30.323 0 01-3.45-6.79c1.17 2.31 2.31 4.55 3.45 6.79zM19.79 84.97c1.16 2.28 2.31 4.56 3.47 6.84-.3-.51-.62-1-.89-1.52-.84-1.61-1.65-3.22-2.48-4.84-.07-.14-.15-.29-.22-.43l.12-.06v.01zM17.64 92.47c.47.8.93 1.61 1.4 2.41.46.78.94 1.54 1.49 2.44-.19-.13-.28-.16-.32-.23-.89-1.52-1.77-3.05-2.65-4.57.02-.02.05-.03.07-.05h.01zM24.27 101.88c-.02-.19-.02-.39-.06-.58-.16-.81-.35-1.62-.5-2.43-.05-.25-.01-.52.02-.78.27 1.37.55 2.75.81 4.08-.06-.06-.16-.18-.27-.29zM22.86 104.39c-.78-1.12-1.56-2.24-2.35-3.35 1 .97 1.7 2.14 2.35 3.35zM16.72 98.09c-.67-1.31-1.33-2.63-2-3.94.02 0 .04-.02.06-.03.67 1.31 1.33 2.63 2 3.94-.02 0-.04.02-.06.03zM1.51 66.4c.58 1.22 1.15 2.44 1.73 3.66-.71-1.15-1.36-2.33-1.73-3.66zM19.02 93.12c.72 1.24 1.38 2.36 2.03 3.47-.35-.23-1.35-1.92-2.03-3.47zM4.1 69.99c-.61-1.21-1.23-2.42-1.84-3.63l.06-.03c.61 1.21 1.23 2.42 1.84 3.63-.02.01-.04.02-.06.04v-.01zM22.29 91.76c-.57-1.13-1.15-2.26-1.72-3.39.02 0 .04-.02.05-.03.57 1.13 1.15 2.26 1.72 3.39-.02 0-.04.02-.05.03zM5.24 65.61c.57 1.12 1.13 2.23 1.7 3.35-.02 0-.03.02-.05.03l-1.71-3.36c.02 0 .04-.01.06-.02zM10.15 66.21c-.52-1.02-1.04-2.04-1.56-3.07.01 0 .02-.01.04-.02.52 1.02 1.04 2.04 1.56 3.07-.01 0-.02.01-.04.02zM5.49 65.24c.58.88 1.04 1.82 1.42 2.8-.47-.93-.95-1.86-1.42-2.8zM24.16 93.99c.34.73.66 1.47.37 2.3.1-.81-.18-1.55-.37-2.3zM22.51 103.26c-.44-.62-.87-1.25-1.31-1.87l.1-.07 1.29 1.89-.09.06.01-.01z" />
		<path d="M24.28 101.88c-.5-.75-.71-1.61-.91-2.48.3.83.6 1.65.91 2.48zM15.94 97.67c-.27-.54-.55-1.08-.82-1.62.01 0 .02-.01.04-.02.27.53.54 1.07.81 1.6 0 .01-.02.02-.03.04zM8.64 64.34c-.16-.32-.32-.63-.48-.95.01 0 .03-.01.04-.02l.49.97h-.05zM23.79 95.45l-.18-.8.08-.02.22.79-.12.03zM9.17 65.62c-.09-.18-.18-.35-.27-.53.01 0 .03-.01.04-.02.09.18.18.35.27.53-.01 0-.03.01-.04.02zM102.22 26.66c.24-.51.55-.73 1.11-.82 2.09-.36 3.92-1.29 5.38-2.84.55-.59.97-1.3 1.44-1.96 1-1.4 1.57-2.98 1.91-4.65.09-.45.15-.94.08-1.4-.25-1.63-.45-3.25-1.25-4.77-.57-1.09-1.29-2.05-2.19-2.76-1.39-1.08-2.86-2.1-4.66-2.5-3.64-.81-7.03-.53-9.97 2.02-2.17 1.88-3.45 4.17-3.3 7.13.08 1.75.53 3.39 1.32 4.95.58 1.14 1.22 2.26 1.79 3.4.17.35.3.77.27 1.14-.05.71-.21 1.42-.38 2.12-.06.24-.27.45-.42.66-.09.12-.22.22-.29.35-.52 1.07-.95 2.19-1.07 3.38-.04.41 0 .92.22 1.25.31.47.42.94.52 1.46.44 2.4 3.09 3.43 4.83 2.47.63-.35 1.33-.56 1.69-1.26.05-.1.18-.16.29-.22.84-.45 1.36-1.18 1.77-2.01.61-1.23.53-1.77-.37-2.79.46-.82.93-1.56 1.29-2.35h-.01zm-2.71-10.17c.25-1.06-.16-1.97-.64-2.86-.27-.5-.74-.75-1.26-.92-.46-.15-.92-.2-1.28.25-.35.44-.6.94-.29 1.47.39.67.85 1.3 1.34 1.9.33.4.78.71 1.21 1.09-.63 3.35-2.01 6.43-3.39 9.63-.3-.13-.59-.26-.91-.4.16-.57.28-1.08.44-1.58.35-1.04.24-2.03-.27-2.99-.6-1.13-1.22-2.26-1.78-3.41-.98-1.97-1.46-4.04-1.14-6.26.29-2.01 1.39-3.53 2.84-4.83 2.5-2.25 5.45-2.68 8.67-2.15 2 .33 3.62 1.37 5.14 2.56.8.64 1.44 1.51 1.94 2.48.72 1.38.93 2.84 1.15 4.31.08.51.05 1.07-.05 1.58-.45 2.22-1.5 4.18-2.96 5.89-1.35 1.58-3.15 2.45-5.18 2.79-.77.13-1.22.45-1.55 1.15-.4.87-.92 1.69-1.45 2.63-.75-.19-1.46-.36-2.23-.55 1.07-3.47 2.38-6.69 4.04-9.75.45-.04.86-.05 1.26-.12.9-.14 1.66-.55 2.25-1.24.57-.67.54-1.58-.03-2.23-.48-.54-1.16-.7-1.77-.31-.41.27-.76.64-1.08 1.02-.23.28-.38.64-.54.98-.58 1.22-1 1.37-2.22.73-.11-.06-.2-.14-.32-.23.02-.22.01-.44.06-.65v.02zm1.4 2.01c-1.27 3.15-2.54 6.28-3.82 9.46-.43-.19-.91-.41-1.48-.66 1.51-2.99 2.89-5.97 3.59-9.29.69.2 1.22.35 1.72.49h-.01zm-4.93 9.98c1.14.61 2.35.95 3.63 1.02.33.02.68.07.98.21.32.15.55.43.43.84-.11.37-.44.34-.7.29-.89-.16-1.81-.25-2.63-.58-1.38-.56-2.69-1.29-4.03-1.93-.46-.22-.61-.51-.22-1.04.87.4 1.72.76 2.54 1.2v-.01zm4.74 2.84c0 .07-.01.13-.02.2-.15.06-.29.16-.44.16-1.4.07-2.75-.22-4.03-.72-1.01-.39-1.95-.96-2.91-1.48-.41-.22-.55-.58-.22-1.11 2.38 1.45 4.78 2.73 7.61 2.94l.01.01zm-3.86 2.95c.09.1.16.18.23.26-1.6.31-1.89.31-2.47-.08-.72-.49-1.21-1.14-1.41-2.14 1.67.64 3.11 1.65 4.97 1.59-.41.67-.89.29-1.31.37h-.01zm3.4-2.17c-.04.48-.36.62-.76.57-.83-.11-1.7-.13-2.47-.42-1.33-.5-2.6-1.18-3.88-1.8-.29-.14-.67-.31-.31-.81 2.15 1.41 3.35 1.8 7.42 2.47v-.01zm-3.61-17.7c-.24-.4-.25-.77.09-1.1.32-.3.64-.09.94.06.85.45 1.33 1.86 1.02 3.12a5.669 5.669 0 01-2.05-2.08zm6.86 1.13c.49-.48.94-.53 1.3-.18.42.4.4 1.01-.09 1.48-.63.61-1.38.91-2.38.89.29-.88.58-1.61 1.17-2.19zm-4.3 17.58c-.98.34-1.95.07-2.85-.21-2.17-.69-3.3-1.44-3.69-2.36 2.15 1.26 4.18 2.34 6.54 2.57zM112.91 10.49c1.02-.38 1.79-1.24 3.16-1.21-.62.95-1.51 1.17-2.28 1.54-.27.13-.6.24-.88-.33zM117.19 12.62c-.87.81-1.98.75-3.03.92-.2.03-.42-.1-.62-.28 1.18-.52 2.38-.73 3.65-.65v.01zM89 5.82c.91.79 2.05 1.33 2.73 2.52-.88 0-2.2-1.26-2.73-2.52zM115.64 21.53c-1.22-.11-2.31-.92-2.57-1.84.65.06 1.94.96 2.57 1.84zM92.1 1.69c1.28 1.17 2 2.3 2.11 3.23-.67-.35-1.68-1.85-2.11-3.23zM111.34 1.74c-.59 1.05-1.21 2.07-2.39 2.76.08-.82 1.38-2.3 2.39-2.76zM116.87 17.36c-1.28.39-2.48.1-2.97-.65.62-.19 2.41.18 2.97.65zM110.93 6.71c.62-.77 1.92-1.56 2.82-1.74-.73 1.13-2.12 1.98-2.82 1.74zM96.26 3.75c-.47-1.2-.91-2.4-1.09-3.75.73.88 1.38 2.97 1.09 3.75zM99.23.08c.58 1.05.68 2.3.32 3.05-.44-.45-.31-.99-.34-1.48-.02-.52 0-1.05.01-1.57h.01z" />
		<path d="M107.12 21.73c-1.13 1.18-2.13 1.73-2.92 1.71.88-.52 1.82-1.07 2.92-1.71zM92.61 10.93c-.11.47-.21.94-.32 1.41-.04 0-.08-.02-.12-.03l.3-1.42.14.03v.01zM92.81 12.24l.18-1.26s.07 0 .1.01l-.18 1.24h-.11l.01.01zM105.44 21.89a32 32 0 00.71-.52c.03.03.05.07.08.1-.23.18-.46.37-.68.55-.04-.04-.07-.09-.11-.13zM107.85 11.08c-.12-.14-.23-.28-.35-.42l.07-.07c.13.13.26.27.39.4l-.12.09h.01zM107.72 9.64c.14.16.28.32.43.47l-.09.09c-.16-.15-.32-.31-.48-.46.05-.03.09-.07.14-.1zM61.2 97.11c-.44-.68-.87-1.37-1.32-2.04-.24-.36-.49-.73-.8-1.03-.44-.42-.92-.29-1.05.3-.1.45-.09.93-.09 1.39-.01 1.02 0 2.04 0 3.1-1.09.45-2.2.88-3.28 1.36-.51.23-1 .52-1.43.88-.44.37-.33.79.21 1 .29.11.6.16.91.2 1.14.13 2.29.24 3.53.36 0 .47-.03.91 0 1.34.06.65.11 1.31.29 1.94.19.66.76.76 1.2.24.3-.35.52-.78.74-1.19.37-.68.71-1.38 1.1-2.15 1.1.2 2.17.4 3.24.6.18.03.36.12.54.14.41.03.67-.31.46-.67-.16-.29-.43-.53-.66-.79-.67-.77-1.34-1.55-2.01-2.33.28-.45.47-.81.71-1.13.68-.9 1.38-1.77 2.07-2.67.21-.28.56-.51.43-.99-.72-.1-.93.67-1.49.83-.53.15-1.02.46-1.53.7-.53.25-1.07.5-1.59.75-.14-.1-.18-.11-.19-.13l.01-.01zm-2.52 4.78c0-.83-.03-1.57.02-2.31.01-.19.22-.44.41-.54.58-.31 1.18-.56 1.86-.87.33.5.64.99.98 1.51-.41.78-.81 1.55-1.25 2.39l-2.02-.18zm-4.78-.33c-.01-.08-.03-.15-.04-.23 1.25-.78 2.68-1.15 4.14-1.84-.04.89-.08 1.59-.12 2.39-1.39-.11-2.69-.22-3.98-.32zm6.74-3.96c-.65.29-1.22.54-1.9.84-.06-1.33-.12-2.51-.18-3.7.07-.02.15-.05.22-.07.69.88 1.24 1.86 1.86 2.92v.01zm-2.08 5.03c.64.06 1.14.11 1.79.17-.48.93-.91 1.76-1.34 2.6-.1-.02-.19-.05-.29-.07-.05-.86-.1-1.71-.16-2.69v-.01zm5.46-.19c-.88-.11-1.59-.2-2.45-.31.28-.58.52-1.09.83-1.71.58.73 1.04 1.3 1.62 2.03v-.01zm-1.65-3.49c-.26-.4-.46-.69-.73-1.09.68-.34 1.28-.63 1.89-.93l.12.15c-.4.59-.81 1.18-1.28 1.87zM51.12 64.61c-1.43 1.49-2.61 3.18-3.68 4.93-.49.8-.89 1.69-1.16 2.59-.43 1.45.29 2.58 1.74 2.98.99.27 2 .28 2.98.06 1.34-.3 2.65-.73 3.97-1.11.19-.05.37-.12.61-.19.06.26.11.48.15.69.11.56.19 1.14.34 1.69.3 1.13.78 2.16 1.62 3.01.95.95 1.89 1.19 3.14.69.87-.35 1.68-.79 2.23-1.53 1.32.28 2.24-.03 2.7-.96.17-.34.24-.77.21-1.15-.05-.77-.56-1.31-1.15-1.81.48-1.27.95-2.53 1.44-3.8.24.05.41.09.58.13 1.52.41 3.05.79 4.63.92 1.28.11 2.55.11 3.8-.25.86-.24 1.52-.75 1.99-1.51.22-.36.32-.76.09-1.14-.67-1.11-1.34-2.24-2.36-3.09-.39-.32-.76-.65-1.13-.99-.53-.48-1.05-.96-1.66-1.52.27-.23.49-.39.69-.58a17.2 17.2 0 002.71-3.31c.33-.52.55-1.12.72-1.72.25-.9 0-1.68-.75-2.28-.51-.41-.97-.87-1.49-1.26-.31-.23-.69-.38-1.04-.56-.19-.1-.44-.14-.59-.28-1.11-1.06-2.47-.91-3.35.39-.08.12-.19.25-.31.29-.59.19-1.18.35-1.8.53-.14-.41-.24-.77-.38-1.12-.64-1.58-1.25-3.18-2.71-4.24-.81-.58-1.64-.82-2.61-.5-1.08.36-1.81 1.19-2.41 2.06-.86 1.23-1.52 2.59-1.93 4.05-.06.21-.14.41-.22.64-.92-.18-1.81-.34-2.68-.52-1.38-.29-2.76-.43-4.16-.15-1.43.28-2.85.54-4.01 1.55-.78.68-1.01 1.43-.64 2.38.36.91.79 1.79 1.57 2.42-.28.86-.16 1.59.52 2.16.7.58 1.45.38 2.18.06.6.36 1.18.7 1.81 1.08-.09.15-.12.22-.17.27h-.03zm15.56-.87c-.02.9-.1 1.8-.15 2.7-.02.4-.19.69-.56.9-.74.41-1.46.88-2.2 1.29-.19.11-.49.16-.69.09-2.11-.78-4.21-1.58-6.32-2.38-.18-.07-.35-.18-.59-.31.06-.87.13-1.74.18-2.61.05-.77.1-1.55.12-2.32.01-.33.11-.57.39-.75 1.17-.77 2.33-1.55 3.5-2.32.25-.16.51-.27.84-.13 1.62.73 3.25 1.43 4.87 2.15.23.1.43.24.59.33 0 1.17.02 2.27 0 3.37l.02-.01zm-11.54 2.6c.24.11.34.27.33.52-.02.5-.06 1-.05 1.5.03 1.45.08 2.9.12 4.36 0 .1-.01.19-.03.32-.42.17-.82.38-1.25.51-1.41.43-2.8.96-4.3 1.01-.55.02-1.11 0-1.64-.1-1.28-.28-1.78-1.19-1.35-2.42.2-.59.44-1.18.75-1.72 1.05-1.77 2.24-3.44 3.61-4.98.18-.2.32-.45.44-.62 1.24.6 2.29 1.12 3.35 1.63l.02-.01zm-5.24-3.67c.31-1.65-1.02-2.86-2.47-2.32a3.41 3.41 0 01-1.33-2.09c-.19-.89.08-1.5.89-1.92.76-.4 1.58-.6 2.42-.77 1.52-.32 3.02-.32 4.53.02.85.19 1.71.34 2.64.53-.06.33-.1.6-.15.86-.17.94-.32 1.87-.5 2.81-.05.25-.14.57-.33.71-1.29.96-2.44 2.08-3.55 3.23-.03.03-.09.04-.19.09-.64-.37-1.3-.76-1.94-1.14l-.02-.01zm9.87 16.78c-.5.09-.98-.14-1.36-.51-.53-.51-.96-1.08-1.26-1.76-.48-1.12-.66-2.3-.81-3.56.28-.13.55-.25.82-.36 2.04-.86 3.93-1.99 5.75-3.23.45-.3.83-.35 1.31-.12.4.2.83.33 1.34.53-.48 1.3-.95 2.58-1.43 3.86-.82.19-1.7.26-2.04 1.2-.31.84-.22 1.62.4 2.41-.73.9-1.67 1.34-2.72 1.53v.01zm12.92-14.78c.68.59 1.35 1.2 2.02 1.8.79.71 1.33 1.62 1.88 2.52.17.27.14.51-.04.76-.4.55-.92.9-1.57 1.09-1.16.33-2.33.28-3.51.2-1.61-.12-3.16-.52-4.7-.96-.07-.02-.13-.07-.24-.14.19-.76.38-1.53.58-2.3.03-.11.12-.22.22-.3l4.39-3.48c.33.27.67.53.99.81h-.02zm-4.34-9.6c.51-.13.9-.06 1.35.31.99.81 2.31.43 2.85-.73.03-.07.07-.13.12-.23.32-.03.62.06.88.28.53.45 1.06.92 1.59 1.37.4.34.56.77.43 1.27-.12.46-.23.94-.47 1.33-.95 1.54-2.11 2.91-3.52 4.14-1.36-.93-2.71-1.86-3.97-2.72-.12-1.64-.22-3.18-.34-4.81.33-.06.7-.11 1.06-.21h.02zm-8.62-3.77c.77-1.04 1.91-1.41 3.14-1.51.66-.05 1.16.35 1.5.85.84 1.22 1.41 2.57 1.81 4-.1.07-.15.14-.21.16-1.47.42-2.86 1.07-4.2 1.8-.55.3-1.02.35-1.6.04-.68-.37-1.43-.59-2.15-.88-.18-.07-.36-.15-.6-.24.61-1.55 1.36-2.94 2.3-4.21l.01-.01zm-3.45 21.49c-.2-1.99-.24-3.89-.05-5.83 2.1.79 4.16 1.57 6.33 2.39-2 1.35-3.98 2.57-6.28 3.44zm10.07-17.25c.51 1.27.39 2.57.43 3.96-1.66-.72-3.25-1.4-4.98-2.15 1.5-.88 2.94-1.48 4.55-1.81zm1.17 5.43c1.25.68 2.29 1.55 3.52 2.34-1.14 1.13-2.41 1.98-3.73 3.05.08-1.9.14-3.59.22-5.39h-.01zm-12.06 4.68c-1.07-.35-1.97-.86-2.9-1.45.94-1.06 1.89-2.04 3.02-2.81l.18.06c-.1 1.38-.2 2.76-.3 4.2zm4.62-8.29c-1.19.78-2.25 1.47-3.44 2.25.22-1.19.41-2.23.62-3.36.98.38 1.85.73 2.83 1.11h-.01zm4.26 11.85c.64-.38 1.19-.7 1.89-1.11-.18.65-.31 1.11-.46 1.67-.52-.2-.92-.36-1.43-.56z" />
		<path d="M64.21 63.1c-.08 1.13-.37 2.1-1.4 2.82-1.36.96-3.56-.26-3.73-1.82-.17-1.53 1.12-3.06 2.66-3.13 1.27-.05 2.45.96 2.47 2.12v.01zM86.66 64.77c-.66.87-1.37 1.7-2.01 2.59-.96 1.33-1.65 2.8-1.93 4.43-.17.99-.38 1.97-.47 2.96-.3 3.38.05 6.63 2.06 9.51 1.54 2.21 3.4 3.99 6.1 4.71.9.24 1.81.47 2.7.74 2.11.63 4.25 1.01 6.46 1.04 2.38.03 4.59-.52 6.61-1.75 1.2-.73 2.3-1.6 3.25-2.65 2.08-2.31 3.7-4.86 4.49-7.91.58-2.25.56-4.49.29-6.79-.34-2.84-1.62-5.14-3.51-7.19-1.75-1.89-3.88-3.11-6.34-3.84-1.29-.39-2.58-.75-3.94-.73-1.24.02-2.48 0-3.9 0-2.28-4.97-4.62-10.05-6.9-15.03.18-.58.38-1.05.46-1.53.05-.28-.02-.65-.19-.87-.62-.8-1.4-1.12-2.46-.93-2.5.45-4.65 1.57-6.59 3.17-.75.62-.7 1.41.17 1.88.49.27.72.64.91 1.12.71 1.8 1.43 3.6 2.17 5.39.25.61.6 1.17.83 1.78.8 2.14 1.56 4.28 2.35 6.42.18.49.43.97.73 1.65-.42.57-.86 1.2-1.33 1.82l-.01.01zm1.16-20.89c.253-.607.133-1.133-.36-1.58.85-.31 1.56-.13 2.06.53.21.28.23.9-.14 1.19-.38.3-.31.57-.18.88.97 2.37 1.91 4.75 2.95 7.09 1.05 2.37 2.21 4.69 3.33 7.03.01.03.03.05.04.08.51 1.29 1.5 1.73 2.83 1.63 2.78-.21 5.44.34 7.9 1.57 3.74 1.87 6.34 4.76 7.12 8.98.8 4.37.03 8.47-2.6 12.12-.89 1.24-1.83 2.48-2.96 3.49-1.53 1.37-3.29 2.44-5.38 2.88-2.34.49-4.65.42-6.97-.04-1.16-.23-2.33-.45-3.49-.68-.12-.02-.25-.03-.37-.08-3.26-1.48-6.13-3.43-7.66-6.82-.49-1.09-.83-2.31-.98-3.5-.3-2.5-.12-5.01.56-7.44.29-1.04.77-2.05 1.31-2.99.6-1.02 1.39-1.92 2.07-2.89.42-.58.84-1.17 1.18-1.8.24-.45.23-.91.08-1.49-.6-2.34-1.63-4.52-2.46-6.78-.38-1.05-.9-2.06-1.33-3.1-.73-1.76-1.43-3.53-2.14-5.3-.05-.11-.05-.24-.07-.36-.33-.17-.67-.31-.98-.5-.43-.27-.49-.64-.09-.98.51-.43 1.08-.79 1.62-1.18.05.05.09.1.14.14-.14.21-.33.4-.42.63-.1.24-.24.58-.14.76.09.16.46.23.72.23.3 0 .62-.08.91-.17 1.18-.38 2.35-.78 3.52-1.17l.37-.4.01.02zm-3.77.1c.8-.4 1.65-.71 2.47-1.08.39-.18.63-.02.89.22-.62.86-2.89 1.79-4.65 1.85.53-.41.87-.77 1.3-.99h-.01zm1.98-1.44s.02.05.02.08l-.48.15-.03-.1c.16-.04.32-.09.48-.13h.01z" />
		<path d="M82.15 46.55c.37-.13.73-.32 1.11-.39 1.55-.27 3.04-.68 4.17-1.88l.37-.4c.22.69-.21 1.09-.7 1.42-1.03.69-2.19 1.07-3.4 1.24-.51.07-1.04 0-1.56 0l.01.01zM85.41 79.07c.3.6.53 1.06.77 1.55.09-.1.18-.15.19-.22.25-1.76 2.25-2.64 4.03-2.26.46.1.89.28 1.34.42.62.2 1.25.41 1.88.59 1.22.35 3.21-.5 3.7-1.62.24-.56.62-1.09 1.02-1.57.84-1.01 1.8-1.24 3.02-.74.6.25 1.16.61 1.73.93.49.27.97.58 1.48.81.58.26 1.21.39 1.77-.07.57-.47.52-1.11.37-1.73-.17-.7-.39-1.38-.59-2.07-.27-.98-.41-1.97-.09-2.96.14-.43.36-.87.66-1.22.44-.51 1.01-.66 1.69-.41 1.12.4 1.81 1.2 2.27 2.24.39.9.5 1.85.31 2.86-.09-.31-.18-.63-.26-.94-.25-.91-.54-1.81-1.19-2.52-.29-.32-.63-.62-1-.83-.87-.49-1.39-.29-1.76.64-.36.91-.28 1.85-.07 2.77.16.7.4 1.38.59 2.07.26.95.33 1.89-.53 2.58-.84.67-1.78.48-2.65.04-.69-.35-1.34-.8-2.01-1.19-1.91-1.12-2.76-.9-3.93.99-.46.74-.84 1.5-1.69 1.95-1.18.63-2.36.76-3.61.34-.68-.23-1.35-.49-2.03-.71-1.02-.32-2.03-.32-2.99.24-.46.27-.76.65-.92 1.14-.14.44-.36.9.1 1.3-.07.95.71 1.42 1.2 2.03.85 1.05 1.86 1.94 3.05 2.6.26.15.5.35.81.57-2.66-.6-6.76-5.2-6.63-7.58l-.03-.02zM89.44 67.27c1.15-.32 1.77.07 1.89 1.11.24 2.01-.36 3.7-2.01 4.95-.4.3-.76.67-1.19.91-.51.28-1.06.53-1.63.66-.73.17-1.08-.1-1.14-.84-.13-1.58-.01-3.14.66-4.59.39-.84.92-1.62 1.38-2.43l.19.1c-.12.22-.22.45-.36.66-1.08 1.57-1.55 3.32-1.64 5.2v.28c.04 1.35.48 1.68 1.66 1.06 1.1-.58 2.12-1.34 2.88-2.35.73-.96.98-2.08.87-3.28-.09-.95-.26-1.16-1.22-1.37-.11-.02-.22-.05-.34-.07z" />
		<path d="M92.99 82.84c.37.42.87.52 1.25.28.37-.23.57-.85.44-1.34-.14-.49-.51-.78-1.05-.71-.38.05-.75.23-1.13.35-.07.6.16 1.03.49 1.41v.01zm.72-.07c-.35.07-.69-.35-.68-.73 0-.43.3-.51.63-.52.38 0 .58.27.53.88-.1.08-.27.32-.48.36v.01zM107.01 86.54c-1.06 1-5.72 2.65-6.73 2.38 2.23-.79 4.5-1.59 6.73-2.38zM112.12 73.47c.26 2.73-.64 5.19-1.72 7.61.77-2.49 1.61-4.97 1.72-7.61zM92.63 53.73c-.14-.09-.35-.14-.41-.27-1-2.11-1.97-4.22-2.95-6.34-.03-.08-.04-.17.04-.29.14.26.28.51.41.77.88 1.89 1.75 3.77 2.63 5.66.08.17.18.32.27.48h.01v-.01zM87.18 54.94c-1.12-2.17-2.24-4.34-3.46-6.7.82.84 2.82 4.72 3.46 6.7zM101.67 82.89c.22-.09.46-.35.5-.57.04-.17-.17-.45-.34-.59-.44-.37-.92-.2-1.44 0 0 .96.56 1.46 1.28 1.16zm.09-.73c-.36.313-.67.273-.93-.12.27.03.55.07.93.12zM107.42 65.04c-1.71-.89-3.4-1.79-5.57-1.95 1.35-.37 3.98.59 5.57 1.95zM93.36 56.09c.59 1.28 1.19 2.55 1.78 3.83-.06.03-.11.05-.17.08-.73-1.22-1.28-2.52-1.84-3.82.08-.03.15-.06.23-.09zM109.93 75.83c-.29-1.31-.58-2.6-.86-3.9.68 1.23 1 2.53.86 3.9zM94.18 87.16l3.77.79c-1.37.04-2.63-.22-3.77-.79zM100.31 62.16c-1.17.07-2.3-.03-3.36-.58 1.12.19 2.24.39 3.36.58zM99.42 63.06l-2.87-.48c.01-.08.03-.16.04-.24l2.86.54-.03.18zM91.22 72.2c.2.29.31.45.41.61.53-.23.17-.48.08-.72.3-.13.56-.13.61.27.05.43-.31.85-.68.83-.32-.02-.4-.18-.42-.99zM89.47 64.16c.87-.25 1.74-.49 2.81-.8-.92.6-1.85.88-2.81.8zM90.08 62.13c.74-.5 1.58-.74 2.51-.62-.84.21-1.67.41-2.51.62zM110.49 77.44c.12-.75.25-1.49.37-2.24.08.01.15.03.23.04-.13.75-.27 1.51-.4 2.26l-.2-.06zM103.87 82.01c.44.13.51.4.44.68-.03.13-.23.21-.36.32-.13-.19-.33-.36-.37-.56-.02-.13.19-.31.28-.44h.01zM108.48 73.03c.46.62.58 1.36.48 2.28-.18-.86-.33-1.57-.48-2.28zM94.22 85.81l1.26.39c-.01.05-.03.09-.04.14-.42-.13-.84-.26-1.26-.38.01-.05.03-.1.04-.15zM105.63 65.13c.42.19.84.37 1.25.56-.04.07-.08.14-.12.22-.38-.26-.75-.52-1.13-.78zM89.78 50.76c.52.15.4.67.5 1.06-.16-.36-.33-.72-.49-1.08l-.02.02h.01zM89.33 49.33c-.21-.35-.42-.69-.63-1.04.07-.03.14-.07.21-.1l.4 1.15.02-.02v.01z" />
		<path d="M89.31 49.35c.32.42.6.84.48 1.41l.01-.01c-.16-.47-.32-.94-.47-1.41l-.02.02v-.01zM105.63 65.12c-.3-.13-.61-.25-.91-.38l.12-.21.78.6.01-.01zM93.48 58.37c-.08-.19-.15-.37-.23-.56.04-.02.08-.03.11-.05.09.19.17.37.26.56-.05.02-.1.03-.14.05zM90.72 52.54c.08.15.15.31.23.46-.03.02-.05.03-.08.05-.08-.14-.16-.27-.24-.41l.09-.09v-.01zM98.29 86.89c-.19-.01-.39-.03-.58-.04v-.09h.58v.13zM92.61 53.74c.06.27.13.53.2.82-.3-.23-.4-.49-.19-.82h-.01zM64.958 36.088c-.08-.6-.16-1.19-.25-1.79-.05-.32-.11-.64-.22-.94-.16-.42-.53-.48-.8-.13-.21.27-.35.6-.5.91-.33.68-.64 1.37-.97 2.08-.88-.04-1.75-.1-2.63-.11-.41 0-.84.04-1.23.15-.41.11-.47.43-.17.74.16.16.35.3.55.42.73.44 1.46.87 2.26 1.34-.15.32-.31.6-.41.9-.16.46-.33.92-.4 1.39-.08.5.27.75.73.54.31-.14.59-.36.87-.57.46-.34.91-.71 1.41-1.1.68.48 1.34.94 1.99 1.41.11.08.2.19.32.26.27.15.54 0 .52-.31-.02-.25-.13-.49-.2-.73l-.63-2.19c.33-.22.57-.4.83-.54.73-.39 1.48-.76 2.22-1.15.23-.12.53-.17.6-.53-.46-.29-.84.16-1.26.09-.41-.06-.83 0-1.25 0-.44 0-.87 0-1.3.01-.07-.11-.09-.13-.09-.15h.01zm-3.18 2.43c.26-.56.47-1.07.73-1.55.07-.13.29-.23.44-.24.48-.03.97 0 1.52 0 .06.44.12.87.19 1.32-.52.4-1.03.79-1.58 1.22-.44-.25-.87-.5-1.3-.75zm-3.11-1.71c.01-.06.03-.11.04-.17 1.08-.14 2.16.06 3.36.05-.31.58-.55 1.04-.82 1.57-.9-.51-1.74-.98-2.57-1.45h-.01zm5.77-.57c-.52 0-.99-.02-1.54-.03.37-.91.7-1.73 1.03-2.54.06 0 .11.01.17.02.19.81.25 1.64.34 2.54v.01zm-2.97 2.74c.41.24.73.43 1.15.67-.61.48-1.16.9-1.71 1.33-.06-.05-.12-.09-.17-.14.23-.59.46-1.18.73-1.86zm3.73 1.57c-.56-.35-1.01-.63-1.55-.97.37-.3.69-.57 1.09-.9.17.67.3 1.2.46 1.87zm-.03-2.86c-.05-.35-.09-.61-.15-.96.56-.01 1.06-.03 1.56-.04l.03.14c-.45.27-.91.54-1.44.86zM28.69 69.62c-.05.73-.13 1.46-.16 2.2-.02.48-.17.72-.58.82-.72.18-1.43.43-2.14.68-.23.08-.43.26-.78.47.9 1.07 2.05 1.02 2.98 1.56-.05.59-.12 1.17-.14 1.76-.01.39-.07.89.32 1.07.41.19.6-.26.81-.57.38-.55.74-1.11 1.12-1.68.41.17.75.33 1.1.46.35.13.66.57 1.13.19-.12-.97-.92-1.5-1.12-2.38.54-1.14 1.49-1.87 2.04-2.95l-.09-.18c-.97.32-1.93.64-2.88.95-.5-.88-.73-1.84-1.36-2.47-.09.02-.17.05-.26.07h.01zm1.22 5.62c-.41-.12-.81-.24-1.28-.37.08-.67.15-1.28.23-1.94.38-.1.73-.18 1.15-.29.2.51.38.99.58 1.52-.25.39-.45.71-.69 1.08h.01zm-3.95-1.22c0-.07 0-.14-.01-.21.75-.34 1.53-.52 2.44-.74-.08.6-.15 1.06-.23 1.69-.81-.27-1.5-.51-2.2-.74zm2.45 3.59c-.14-.86-.06-1.47.15-2.13.3.08.59.15 1.04.26l-1.19 1.88v-.01zm2.51-3.98c-.16-.41-.28-.72-.43-1.11.54-.19 1-.34 1.46-.5l.06.12c-.33.46-.67.91-1.08 1.48l-.01.01zm-1.95-1.36v-.86c0-.25.02-.49.04-.86.42.48.62.96.72 1.58-.27.05-.5.08-.76.13v.01zm1.48 3.15c.15-.24.26-.41.4-.64.18.32.33.57.47.82-.03.05-.05.09-.08.14-.24-.09-.47-.19-.79-.32zM37.45 1.21c-.05.73-.13 1.46-.16 2.2-.02.48-.17.72-.59.82-.72.18-1.43.43-2.14.68-.23.08-.43.26-.78.47.9 1.07 2.05 1.02 2.98 1.56-.05.59-.12 1.17-.14 1.76-.01.39-.07.88.32 1.07.41.19.6-.26.81-.57.38-.55.74-1.11 1.12-1.68.41.17.75.33 1.1.46.35.13.66.57 1.13.19-.12-.97-.92-1.5-1.12-2.38.54-1.14 1.49-1.87 2.04-2.95l-.09-.18c-.97.32-1.93.64-2.88.95-.5-.88-.73-1.84-1.36-2.47-.09.02-.17.05-.26.07h.02zm1.22 5.62c-.41-.12-.81-.24-1.28-.37.08-.67.15-1.28.23-1.94.38-.1.73-.18 1.15-.29.2.51.38.99.58 1.52-.25.39-.45.71-.69 1.08h.01zm-3.95-1.22c0-.07 0-.14-.01-.21.75-.34 1.53-.52 2.44-.74-.08.6-.15 1.06-.23 1.69-.81-.27-1.5-.51-2.2-.74zm2.45 3.59c-.14-.86-.06-1.47.15-2.13.3.07.59.15 1.04.26l-1.19 1.88V9.2zm2.51-3.98c-.16-.41-.28-.72-.43-1.11.54-.19 1-.34 1.46-.5l.06.12c-.33.46-.67.91-1.08 1.48l-.01.01zm-1.95-1.36V3c0-.25.02-.49.04-.86.42.48.62.96.72 1.58-.27.05-.5.08-.76.13v.01zm1.48 3.15c.15-.24.26-.41.4-.64.18.32.33.57.47.82-.03.05-.05.09-.08.14-.23-.09-.47-.19-.79-.32zM105.03 100.21c-.04.52-.09 1.05-.11 1.57-.01.35-.12.51-.42.59-.51.13-1.02.31-1.53.49-.16.06-.31.18-.55.34.64.76 1.46.73 2.13 1.12-.03.42-.09.84-.1 1.26 0 .28-.05.63.23.76.29.14.43-.19.58-.4.27-.39.53-.8.8-1.2.29.12.53.24.78.33.25.09.47.4.81.14-.09-.69-.66-1.07-.8-1.7.38-.82 1.06-1.33 1.46-2.11-.02-.04-.04-.09-.07-.13-.69.23-1.38.45-2.06.68-.36-.63-.52-1.31-.97-1.76-.06.02-.12.03-.19.05l.01-.03zm.87 4.02c-.29-.09-.58-.17-.91-.27.06-.48.11-.91.17-1.38.27-.07.52-.13.82-.21.14.37.27.71.42 1.08-.18.28-.32.51-.49.77l-.01.01zm-2.82-.87v-.15c.53-.24 1.09-.37 1.74-.53-.06.43-.1.76-.17 1.2-.58-.19-1.07-.36-1.57-.53v.01zm1.75 2.57c-.1-.61-.04-1.05.11-1.52.22.05.42.1.74.18-.31.48-.55.86-.85 1.34zm1.79-2.85c-.12-.3-.2-.52-.31-.79.39-.13.71-.24 1.04-.36.01.03.03.06.04.09-.24.33-.48.65-.77 1.06zm-1.39-.97v-.61c0-.18.02-.35.03-.61.3.34.45.68.51 1.13-.19.03-.35.06-.54.09zm1.06 2.25c.11-.17.18-.3.28-.46.13.23.23.41.34.59-.02.03-.04.07-.05.1-.17-.07-.34-.13-.56-.23h-.01z" />
	</g>
	<defs>
		<clipPath id="prefix__clip0_70_2">
			<path fill="#fff" d="M0 0h117.39v109.74H0z" />
		</clipPath>
	</defs>
</svg>