<svg xmlns="http://www.w3.org/2000/svg" viewBox="0 0 510 122" id="logo">
	<path fill="currentColor" d="M0 88.9V71.6l29.2-26.3v-1.2h-28V26.9h54.3v17.3L26.3 70.4v1.2h30.4v17.3H0zm65.7 0v-62H86v8.4h1.2c1.1-1.9 2.5-3.6 4.3-5 4.1-3.4 8.8-5.1 14.2-5.1 7.3 0 13 2.2 17.1 6.6 4.1 4.4 6.1 10.8 6.1 19V89h-20.3V53.7c0-3.6-1-6.4-2.9-8.4s-4.5-3-7.9-3c-3.4 0-6.3 1.3-8.5 3.8-2.3 2.5-3.4 5.8-3.4 10v32.8H65.7zm80.2-7.2c-5.3-6-8-13.9-8-23.8s2.7-17.8 8-23.8 11.8-9 19.5-9c4.9 0 9.6 1.7 14 5.1 1.8 1.5 3.3 3.2 4.5 5h1.2v-8.4h20.3v62.1H185v-8.4h-1.2c-1.1 1.9-2.6 3.6-4.5 5.1-4.3 3.3-9 5-14 5-7.6.1-14.1-2.9-19.4-8.9zm16.5-35.3c-2.4 2.7-3.6 6.5-3.6 11.5 0 4.9 1.2 8.8 3.6 11.5 2.4 2.7 5.6 4.1 9.6 4.1s7.2-1.4 9.6-4.1c2.4-2.7 3.6-6.5 3.6-11.5 0-4.9-1.2-8.8-3.6-11.5-2.4-2.7-5.6-4.1-9.6-4.1s-7.2 1.4-9.6 4.1zm54.9 42.5v-62h20.3v8.4h1.2c1.1-1.9 2.5-3.6 4.3-5 4.1-3.4 8.8-5.1 14.2-5.1 7.3 0 13 2.2 17.1 6.6 4.1 4.4 6.1 10.8 6.1 19V89h-20.3V53.7c0-3.6-1-6.4-2.9-8.4s-4.5-3-7.9-3c-3.4 0-6.3 1.3-8.5 3.8-2.3 2.5-3.4 5.8-3.4 10v32.8h-20.2zm74-78.8c0-2.9 1.1-5.3 3.2-7.2 2.1-1.9 4.9-2.9 8.1-2.9 3.3 0 6 1 8.1 2.9 2.1 2 3.2 4.4 3.2 7.2s-1.1 5.2-3.2 7.2-4.9 3-8.1 3c-3.3 0-6-1-8.1-3-2.1-2-3.2-4.4-3.2-7.2zm1.2 78.8v-62h20.3V89l-20.3-.1zm32.8-23.8V26.9h20.3v35.2c0 3.6 1 6.4 2.9 8.4s4.5 3 7.9 3c3.4 0 6.3-1.3 8.5-3.8 2.3-2.5 3.4-5.8 3.4-10V26.9h20.3V89h-20.3v-8.4h-1.2c-1 2-2.5 3.7-4.3 5.1-4 3.3-8.7 5-14.2 5-7.3 0-13-2.2-17.1-6.6-4.1-4.4-6.2-10.8-6.2-19zm75.2 23.8v-62h20.3v8.4h1.2c1.1-2 2.5-3.7 4.1-5 3.9-3.4 8.5-5.1 13.8-5.1 6.4 0 11.7 1.9 15.6 5.7 1.7 1.6 3 3.5 4.1 5.6h1.2c1-2.1 2.3-3.9 3.9-5.6 3.8-3.8 8.9-5.7 15.2-5.7 7.3 0 13 2.2 17.1 6.6 4.1 4.4 6.1 10.8 6.1 19V89h-20.3V53.7c0-7.6-3.2-11.3-9.6-11.3-3.4 0-6.2 1.2-8.2 3.5-2.1 2.3-3.1 5.5-3.1 9.7V89h-20.3V53.7c0-7.6-3.2-11.3-9.6-11.3-3.4 0-6.2 1.2-8.2 3.5-2.1 2.3-3.1 5.5-3.1 9.7V89l-20.2-.1zM0 116.4h2.4c.2.6.6 1.2 1 1.6 1 1.1 2.3 1.6 3.9 1.6 1.3 0 2.4-.4 3.3-1.2.9-.8 1.4-1.9 1.7-3.3H6.1V113h6.1c-.2-1.3-.8-2.3-1.6-3.1-.9-.8-1.9-1.2-3.3-1.2-1.6 0-2.8.5-3.8 1.5-.4.5-.8.9-1 1.5H.1c.3-.9.7-1.8 1.3-2.6 1.4-1.7 3.3-2.6 5.8-2.6 2.1 0 3.8.7 5.3 2.2 1.4 1.5 2.1 3.3 2.1 5.5s-.7 4-2.1 5.5c-1.4 1.5-3.2 2.2-5.3 2.2-2.5 0-4.5-.9-5.9-2.7-.6-.9-1-1.8-1.3-2.8zm16.1 5.2l4.1-14.8h6.2l4.1 14.8H28L24.7 109H22l-3.4 12.6h-2.5zm18.2-1.9c-1.4-1.5-2.2-3.3-2.2-5.5s.7-4 2.2-5.5c1.4-1.5 3.2-2.2 5.4-2.2s3.9.7 5.4 2.2c1.4 1.4 2.2 3.2 2.2 5.4v.9H34.5c.2 1.4.7 2.5 1.7 3.4 1 .9 2.1 1.3 3.5 1.3 1.5 0 2.7-.4 3.8-1.3.5-.4.8-.8 1.1-1.3H47c-.4.9-.9 1.7-1.5 2.5-1.5 1.6-3.5 2.4-5.7 2.4-2.3-.1-4.1-.9-5.5-2.3zm.2-6.9h10.2c-.2-1.2-.7-2.1-1.6-2.9-.9-.8-2-1.2-3.4-1.2s-2.5.4-3.4 1.2c-1 .8-1.6 1.8-1.8 2.9zm16 8.8v-14.8h2.4v5.9h3l4.7-5.9h2.8l-5.5 7 5.9 7.8h-3l-5-6.7h-3v6.7h-2.3zM64.1 109v-2.2h12.7v2.2h-5.2v12.6h-2.4V109h-5.1zM79 127.2v-20.4h2.4v2.4l.3-.4c.3-.5.9-1 1.8-1.5s1.9-.7 3.2-.7c2 0 3.6.7 5 2.2 1.4 1.5 2.1 3.3 2.1 5.5s-.7 4-2.1 5.5c-1.4 1.5-3.1 2.2-5 2.2-1.3 0-2.3-.2-3.2-.7-.9-.5-1.5-1-1.8-1.5l-.3-.4v8H79v-.2zm3.8-17c-1 1-1.4 2.3-1.4 3.9s.5 2.9 1.4 3.9c.9 1 2.2 1.5 3.6 1.5S89 119 90 118s1.4-2.3 1.4-3.9-.5-2.9-1.4-3.9c-1-1-2.2-1.5-3.6-1.5s-2.6.5-3.6 1.5zm15.6 9.5c-1.5-1.5-2.2-3.3-2.2-5.5s.7-4 2.2-5.5c1.5-1.5 3.3-2.2 5.5-2.2s4 .7 5.5 2.2c1.5 1.5 2.2 3.3 2.2 5.5s-.7 4-2.2 5.5c-1.5 1.5-3.3 2.2-5.5 2.2s-4.1-.8-5.5-2.2zm1.6-9.5c-1 1-1.5 2.3-1.5 3.9s.5 2.9 1.5 3.9 2.3 1.5 3.8 1.5 2.8-.5 3.8-1.5 1.5-2.3 1.5-3.9-.5-2.9-1.5-3.9-2.3-1.5-3.8-1.5-2.7.5-3.8 1.5zm14.8 11.4v-14.8h2.4v6.1h8.3v-6.1h2.4v14.8h-2.4v-6.5h-8.3v6.5h-2.4zm17.2 0v-14.8h2.4v6.1h8.3v-6.1h2.4v14.8h-2.4v-6.5h-8.3v6.5H132zm18.4-1.9c-1.5-1.5-2.2-3.3-2.2-5.5s.7-4 2.2-5.5c1.5-1.5 3.3-2.2 5.5-2.2s4 .7 5.5 2.2c1.5 1.5 2.2 3.3 2.2 5.5s-.7 4-2.2 5.5c-1.5 1.5-3.3 2.2-5.5 2.2s-4-.8-5.5-2.2zm1.7-9.5c-1 1-1.5 2.3-1.5 3.9s.5 2.9 1.5 3.9 2.3 1.5 3.8 1.5 2.8-.5 3.8-1.5 1.5-2.3 1.5-3.9-.5-2.9-1.5-3.9-2.3-1.5-3.8-1.5-2.8.5-3.8 1.5zm14.5 4.4v-2.4h10.7v2.4h-10.7zm13.6-1c0-4.5.8-7.7 2.5-9.7 1.6-2 4.1-3 7.3-3h3.5v2.5H190c-2.3 0-4.1.5-5.3 1.6-1.2 1.1-1.9 2.9-2.1 5.3.3-.4.7-.8 1.2-1.2 1.1-.8 2.4-1.2 4-1.2 2 0 3.7.7 5 2 1.3 1.3 2 3 2 5s-.7 3.7-2 5c-1.4 1.3-3.1 2-5.2 2-2.2 0-3.9-.7-5.3-2.2-1.4-1.5-2.1-3.5-2.1-6.1zm3.8-2.1c-.9.9-1.4 2-1.4 3.4 0 1.3.5 2.5 1.4 3.4.9.9 2.1 1.4 3.5 1.4s2.6-.5 3.5-1.4c.9-.9 1.4-2 1.4-3.4 0-1.3-.5-2.5-1.4-3.4-.9-.9-2.1-1.4-3.5-1.4-1.4.1-2.6.5-3.5 1.4zm13.7 10.1v-14.8h2.4v11.4h.1l8-11.4h2.7v14.8h-2.4v-11.4h-.1l-8 11.4h-2.7zm16.3-8c0-4.5.8-7.7 2.5-9.7 1.6-2 4.1-3 7.3-3h3.5v2.5h-3.5c-2.3 0-4.1.5-5.3 1.6-1.2 1.1-1.9 2.9-2.1 5.3.3-.4.7-.8 1.2-1.2 1.1-.8 2.4-1.2 4-1.2 2 0 3.7.7 5 2 1.3 1.3 2 3 2 5s-.7 3.7-2 5c-1.4 1.3-3.1 2-5.2 2-2.2 0-3.9-.7-5.3-2.2-1.5-1.5-2.1-3.5-2.1-6.1zm3.7-2.1c-.9.9-1.4 2-1.4 3.4 0 1.3.5 2.5 1.4 3.4.9.9 2.1 1.4 3.5 1.4s2.6-.5 3.5-1.4c.9-.9 1.4-2 1.4-3.4 0-1.3-.5-2.5-1.4-3.4-.9-.9-2.1-1.4-3.5-1.4-1.4.1-2.6.5-3.5 1.4zm11.9 10.1l4.1-14.8h6.2l4.1 14.8h-2.5l-3.4-12.6h-2.7l-3.4 12.6h-2.4zm16.9 0v-14.8h2.4v11.4h.1l8-11.4h2.7v14.8h-2.4v-11.4h-.1l-8 11.4h-2.7zm18.5-1.9c-1.5-1.5-2.2-3.3-2.2-5.5s.7-4 2.2-5.5c1.5-1.5 3.3-2.2 5.5-2.2s4 .7 5.5 2.2c1.5 1.5 2.2 3.3 2.2 5.5s-.7 4-2.2 5.5c-1.5 1.5-3.3 2.2-5.5 2.2s-4.1-.8-5.5-2.2zm1.7-9.5c-1 1-1.5 2.3-1.5 3.9s.5 2.9 1.5 3.9 2.3 1.5 3.8 1.5 2.8-.5 3.8-1.5 1.5-2.3 1.5-3.9-.5-2.9-1.5-3.9-2.3-1.5-3.8-1.5c-1.6 0-2.8.5-3.8 1.5zm12.8-1.2v-2.2h12.7v2.2H287v12.6h-2.4V109h-5.1zm16.2 10.7c-1.4-1.5-2.2-3.3-2.2-5.5s.7-4 2.2-5.5c1.4-1.5 3.2-2.2 5.4-2.2s3.9.7 5.4 2.2c1.4 1.4 2.2 3.2 2.2 5.4v.9H296c.2 1.4.7 2.5 1.7 3.4 1 .9 2.1 1.3 3.5 1.3 1.5 0 2.7-.4 3.8-1.3.5-.4.8-.8 1.1-1.3h2.4c-.4.9-.9 1.7-1.5 2.5-1.5 1.6-3.5 2.4-5.7 2.4-2.4-.1-4.1-.9-5.6-2.3zm.3-6.9h10.2c-.2-1.2-.7-2.1-1.6-2.9-.9-.8-2-1.2-3.4-1.2s-2.5.4-3.4 1.2c-1.1.8-1.6 1.8-1.8 2.9zm15.5-.7v-5.3h2.4v5.2c0 1 .3 1.8.9 2.3.6.5 1.4.8 2.5.8 1.2 0 2.2-.2 3.1-.5.4-.1.8-.3 1.1-.5v-7.3h2.4v14.8h-2.4v-5.5c-.4.3-.8.5-1.1.6-.9.4-1.9.6-3.2.6-1.8 0-3.2-.5-4.1-1.4-1.1-.9-1.6-2.2-1.6-3.8zm16.4 9.5v-14.8h2.4v6.1h8.3v-6.1h2.4v14.8h-2.4v-6.5h-8.3v6.5h-2.4zm18.3-1.9c-1.4-1.5-2.1-3.3-2.1-5.5s.7-4 2.1-5.5c1.4-1.5 3.1-2.2 5-2.2 1.2 0 2.3.2 3.1.7.9.5 1.5 1 1.9 1.5l.3.4v-2.4h2.4v14.8h-2.4v-2.4l-.3.4c-.4.5-1 1-1.8 1.5-.9.5-1.9.7-3.2.7-1.9.2-3.6-.6-5-2zm1.8-9.5c-1 1-1.4 2.3-1.4 3.9s.5 2.9 1.4 3.9c1 1 2.2 1.5 3.6 1.5s2.6-.5 3.6-1.5 1.4-2.3 1.4-3.9-.5-2.9-1.4-3.9c-1-1-2.2-1.5-3.6-1.5-1.5 0-2.7.5-3.6 1.5zm14.5 11.4l3-5.3c-.5-.2-1-.5-1.5-.9-1-.9-1.5-2.1-1.5-3.5s.5-2.6 1.6-3.6c1-1 2.4-1.4 4.2-1.4h6.7v14.8h-2.4V117h-4.7l-2.6 4.7h-2.8v-.1zm3.2-11.8c-.6.5-.9 1.2-.9 2s.3 1.5.9 2c.6.5 1.4.8 2.5.8h4.3V109h-4.3c-1 0-1.9.3-2.5.8zm22.9 9.9c-1.4-1.5-2.1-3.3-2.1-5.5s.7-4 2.1-5.5c1.4-1.5 3.2-2.2 5.3-2.2 2.4 0 4.3.9 5.8 2.6.6.8 1.1 1.6 1.3 2.6h-2.4c-.2-.5-.5-1-1-1.5-.9-1-2.2-1.5-3.8-1.5-1.4 0-2.6.5-3.6 1.5s-1.4 2.3-1.4 3.9.5 2.9 1.5 3.9 2.2 1.5 3.6 1.5c1.6 0 2.9-.5 3.9-1.6.4-.5.8-1 1-1.6h2.4c-.3 1-.7 1.9-1.4 2.8-1.5 1.8-3.5 2.7-5.9 2.7-2.1.1-3.9-.7-5.3-2.1zm15.5 1.9v-14.8h2.4v11.4h.1l8-11.4h2.7v14.8h-2.4v-11.4h-.1l-8 11.4h-2.7zm18.4-1.9c-1.4-1.5-2.1-3.3-2.1-5.5s.7-4 2.1-5.5c1.4-1.5 3.2-2.2 5.3-2.2 2.4 0 4.3.9 5.8 2.6.6.8 1.1 1.6 1.3 2.6h-2.4c-.2-.5-.5-1-1-1.5-.9-1-2.2-1.5-3.8-1.5-1.4 0-2.6.5-3.6 1.5s-1.4 2.3-1.4 3.9.5 2.9 1.5 3.9 2.2 1.5 3.6 1.5c1.6 0 2.9-.5 3.9-1.6.4-.5.8-1 1-1.6h2.4c-.3 1-.7 1.9-1.4 2.8-1.5 1.8-3.5 2.7-5.9 2.7-2.1.1-3.9-.7-5.3-2.1zM436 109v-2.2h12.7v2.2h-5.2v12.6h-2.4V109H436zm16.3 10.7c-1.4-1.5-2.2-3.3-2.2-5.5s.7-4 2.2-5.5c1.4-1.5 3.2-2.2 5.4-2.2s3.9.7 5.4 2.2c1.4 1.4 2.2 3.2 2.2 5.4v.9h-12.7c.2 1.4.7 2.5 1.7 3.4 1 .9 2.1 1.3 3.5 1.3 1.5 0 2.7-.4 3.8-1.3.5-.4.8-.8 1.1-1.3h2.4c-.4.9-.9 1.7-1.5 2.5-1.5 1.6-3.5 2.4-5.7 2.4-2.4-.1-4.2-.9-5.6-2.3zm.2-6.9h10.2c-.2-1.2-.7-2.1-1.6-2.9-.9-.8-2-1.2-3.4-1.2s-2.5.4-3.4 1.2c-1 .8-1.6 1.8-1.8 2.9zm15.9 8.8v-14.8h3.6l4.4 9.2h.7l4.4-9.2h3.6v14.8h-2.4v-12.1h-.1l-4.4 9.2h-3.1l-4.4-9.2h-.1v12.1h-2.2zm22.1-1.9c-1.4-1.5-2.1-3.3-2.1-5.5s.7-4 2.1-5.5c1.4-1.5 3.1-2.2 5-2.2 1.2 0 2.3.2 3.1.7.9.5 1.5 1 1.9 1.5l.3.4v-2.4h2.4v14.8h-2.4v-2.4l-.3.4c-.4.5-1 1-1.8 1.5-.9.5-1.9.7-3.2.7-2 .2-3.6-.6-5-2zm1.7-9.5c-1 1-1.4 2.3-1.4 3.9s.5 2.9 1.4 3.9c1 1 2.2 1.5 3.6 1.5s2.6-.5 3.6-1.5 1.4-2.3 1.4-3.9-.5-2.9-1.4-3.9c-1-1-2.2-1.5-3.6-1.5s-2.6.5-3.6 1.5z" />
</svg>